/* XPM */
static char * b_lc_xpm[] = {
"6 6 5 1",
" 	c None",
".	c #000000",
"+	c #F5F5F5",
"@	c #F3F3F3",
"#	c #D9D9D9",
".+@@#.",
".+@@#+",
".+@@@@",
".+@@@@",
".+####",
"......"};
