/* XPM */
static char * bl_fo_xpm[] = {
"16 5 8 1",
" 	c #000000",
".	c #B5E5FF",
"+	c #5A7284",
"@	c #AFDFFF",
"#	c #7595AB",
"$	c #576F7F",
"%	c #A3D3F4",
"&	c #516979",
"                ",
" ............+ .",
" @###########$ @",
" %&&&&&&&&&&&& %",
"                "};
