/* XPM */
static char * sep_un_xpm[] = {
"3 17 5 1",
" 	c None",
".	c #FFFFFF",
"+	c #B2AFAC",
"@	c #000000",
"#	c #EFEBE7",
".+@",
"#+@",
"#+@",
"#+@",
"#+@",
"#+@",
"#+@",
"#+@",
"#+@",
"#+@",
"#+@",
"#+@",
"#+@",
"#+@",
"#+@",
"++@",
"@@@"};
