/* XPM */
static char * title_decor_fo_xpm[] = {
"3 17 19 1",
" 	c None",
".	c #B5E5FF",
"+	c #4F6778",
"@	c #7898AF",
"#	c #7696AD",
"$	c #7595AC",
"%	c #7393AA",
"&	c #7292A8",
"*	c #7190A7",
"=	c #6F8FA5",
"-	c #6E8DA4",
";	c #6C8CA2",
">	c #6B8AA1",
",	c #69899F",
"'	c #68879E",
")	c #67869C",
"!	c #65849A",
"~	c #4B6172",
"{	c #000000",
"..+",
"@@+",
"##+",
"$$+",
"%%+",
"&&+",
"**+",
"==+",
"--+",
";;+",
">>+",
",,+",
"''+",
"))+",
"!!+",
"~~~",
"{{{"};
