/* XPM */
static char * tl_fo_xpm[] = {
"2 18 17 1",
" 	c #000000",
".	c #B5E5FF",
"+	c #B4E4FF",
"@	c #B1E1FF",
"#	c #AFDFFF",
"$	c #ACDCFF",
"%	c #ABDBFC",
"&	c #A9D8FA",
"*	c #A6D6F7",
"=	c #A5D3F6",
"-	c #A2D2F3",
";	c #A0CFF1",
">	c #9DCDEE",
",	c #9CCAED",
"'	c #9AC9EA",
")	c #97C6E7",
"!	c #96C4E5",
"  ",
" .",
" +",
" @",
" #",
" $",
" %",
" &",
" *",
" =",
" -",
" ;",
" >",
" ,",
" '",
" )",
" !",
"  "};
