/* XPM */
static char * btn_b_right_fo_xpm[] = {
"13 14 4 1",
" 	c None",
".	c #FFFFFF",
"+	c #FEB048",
"@	c #000000",
".............",
".++++++++++++",
".++++++++++++",
".++++++++++++",
".+++@@++@@+++",
".+++@@@@@@+++",
".++++@@@@++++",
".++++@@@@++++",
".+++@@@@@@+++",
".+++@@++@@+++",
".++++++++++++",
".++++++++++++",
".++++++++++++",
"@@@@@@@@@@@@@"};
