/* XPM */
static char * btn_b_left_fo_xpm[] = {
"14 14 4 1",
" 	c None",
".	c #FFFFFF",
"+	c #000000",
"@	c #FEB048",
".............+",
".@@@@@@@@@@@@+",
".@@@@@@@@@@@@+",
".@@@@@@@@@@@@+",
".@@@++++++@@@+",
".@@@++++++@@@+",
".@@@+....+@@@+",
".@@@+....+@@@+",
".@@@+....+@@@+",
".@@@++++++@@@+",
".@@@@@@@@@@@@+",
".@@@@@@@@@@@@+",
".@@@@@@@@@@@@+",
"++++++++++++++"};
