/* XPM */
static char * bd_bl_xpm[] = {
"23 6 19 1",
" 	c #84798C",
".	c #857C8C",
"+	c #BBA3C8",
"@	c #BAA3C8",
"#	c #BBA2C8",
"$	c #BAA3C7",
"%	c #A096A7",
"&	c #D6C7DE",
"*	c #AA94B7",
"=	c #998FA0",
"-	c #9A85A5",
";	c #9985A5",
">	c #9986A5",
",	c #9985A6",
"'	c #9A85A6",
")	c #928899",
"!	c #897794",
"~	c #897694",
"{	c #897695",
"                  .    ",
" +@@##+++++$$##++++%&&&",
" *******************=&&",
" -;;;;;>>;,;;-;;,,';-)&",
" !!~~{!!!~~{~~{{{{{{{{ ",
"                       "};
