/* XPM */
static char * bd_b_menu_xpm[] = {
"1 7 6 1",
" 	c #9F93A7",
".	c #A796AF",
"+	c #AC9DB6",
"@	c #998DA6",
"#	c #8B7F93",
"$	c #8B8093",
" ",
".",
"+",
"@",
"#",
"$",
" "};
