/* XPM */
static char * close_xpm[] = {
"18 22 37 1",
" 	c #74637E",
".	c #BCA4C9",
"+	c #A692B3",
"@	c #91829C",
"#	c #82718D",
"$	c #897B95",
"%	c #6C5D77",
"&	c #A696AB",
"*	c #E0D2E7",
"=	c #74607E",
"-	c #E0CEE7",
";	c #CBBED8",
">	c #7B6786",
",	c #BCAAC1",
"'	c #7B6B86",
")	c #82758D",
"!	c #D2BED8",
"~	c #AE9CB3",
"{	c #826E8D",
"]	c #BCADC9",
"^	c #897895",
"/	c #827195",
"(	c #BCB1C9",
"_	c #897B9C",
":	c #897595",
"<	c #917B9C",
"[	c #D2C1D8",
"}	c #B5A0BA",
"|	c #89789C",
"1	c #9F8FB3",
"2	c #D9CBDF",
"3	c #9882A4",
"4	c #9885AB",
"5	c #AE99BA",
"6	c #D9CBE7",
"7	c #9F88AB",
"8	c #84798C",
"                  ",
"..................",
"++++++++++++++++++",
"@@@@@@@@@@@@@@@@@@",
"######$$##########",
"%%%%%&**&%%%%%%%%%",
"=====-**-=========",
"     ;**;         ",
">>>>>#,,#>>>>>>>>>",
"')!-~''''~-!)'''''",
"{]***^{{^***]{{{{{",
"/(***_//_***(/////",
":<[-}::::}-[<:::::",
"|||||1221|||||||||",
"<<<<<2**2<<<<<<<<<",
"333332**2333333333",
"444445665444444444",
"777777777777777777",
"777777777777777777",
"777777777777777777",
"                  ",
"888888888888888888"};
