/* XPM */
static char * max_xpm[] = {
"15 22 39 1",
" 	c #74637E",
".	c #BCA4C9",
"+	c #A692B3",
"@	c #91829C",
"#	c #82718D",
"$	c #6C5D77",
"%	c #65596F",
"&	c #9F8FA4",
"*	c #CBBBD1",
"=	c #E0CEE7",
"-	c #74607E",
";	c #7B6786",
">	c #D2BED8",
",	c #E0D2E7",
"'	c #CBB7D1",
")	c #6C6077",
"!	c #AEA0BA",
"~	c #A692AB",
"{	c #B5A4BA",
"]	c #7B6B86",
"^	c #826E8D",
"/	c #827195",
"(	c #CBBED8",
"_	c #7B6B8D",
":	c #897595",
"<	c #89789C",
"[	c #AE9CBA",
"}	c #BCAAC9",
"|	c #917B9C",
"1	c #897895",
"2	c #D2C1D8",
"3	c #9882A4",
"4	c #9F85A4",
"5	c #D2C4DF",
"6	c #9885AB",
"7	c #9182A4",
"8	c #B5A4C1",
"9	c #9F88AB",
"0	c #84798C",
"               ",
"...............",
"+++++++++++++++",
"@@@@@@@@@@@@@@@",
"###############",
"$$$$%&*==*&%$$$",
"---;>,=''=,>;--",
"  )>,! $$ !,>) ",
";;~,{-;;;;;{,~;",
"]]*=]]]]]]]]=*]",
"^^=*;^^^^^^;*=^",
"//=(_//////_(=/",
"::>=::::::::=>:",
"<<[,}/<<<<<},[<",
"||12,}|::|},21|",
"33345,=22=,5433",
"6666782==287666",
"999999999999999",
"999999999999999",
"999999999999999",
"               ",
"000000000000000"};
