/* XPM */
static char * menu_xpm[] = {
"1 13 13 1",
" 	c #B0A4B8",
".	c #ADA3B5",
"+	c #8F8697",
"@	c #83778C",
"#	c #86798E",
"$	c #8C7F94",
"%	c #91869C",
"&	c #978BA4",
"*	c #9E91AA",
"=	c #A699B1",
"-	c #AEA1B9",
";	c #B3A5BD",
">	c #A295AA",
" ",
".",
"+",
"@",
"#",
"$",
"%",
"&",
"*",
"=",
"-",
";",
">"};
