/* XPM */
static char * min_xpm[] = {
"14 22 42 1",
" 	c #74637E",
".	c #BCA4C9",
"+	c #A692B3",
"@	c #91829C",
"#	c #82718D",
"$	c #6C5D77",
"%	c #65596F",
"&	c #9F8FA4",
"*	c #CBBBD1",
"=	c #E0CEE7",
"-	c #74607E",
";	c #7B6786",
">	c #D2BED8",
",	c #E0D2E7",
"'	c #CBB7D1",
")	c #6C6077",
"!	c #AEA0BA",
"~	c #A692AB",
"{	c #B5A4BA",
"]	c #7B6B86",
"^	c #98859C",
"/	c #D9C8DF",
"(	c #826E8D",
"_	c #827195",
":	c #CBBED8",
"<	c #897595",
"[	c #9F8CAB",
"}	c #D9CBDF",
"|	c #89789C",
"1	c #AE9CBA",
"2	c #BCAAC9",
"3	c #917B9C",
"4	c #897895",
"5	c #D2C1D8",
"6	c #9882A4",
"7	c #9F85A4",
"8	c #D2C4DF",
"9	c #9885AB",
"0	c #9182A4",
"a	c #B5A4C1",
"b	c #9F88AB",
"c	c #84798C",
"              ",
"..............",
"++++++++++++++",
"@@@@@@@@@@@@@@",
"##############",
"$$$%&*==*&%$$$",
"--;>,=''=,>;--",
" )>,!    !,>) ",
";~,{;;;;;;{,~;",
"]*=]]^//^]]=*]",
"(=*((/,,/((*=(",
"_=:__/,,/__:=_",
"<>=<<[}}[<<=><",
"|1,2||||||2,1|",
"345,233332,543",
"6678,=55=,8766",
"9990a5==5a0999",
"bbbbbbbbbbbbbb",
"bbbbbbbbbbbbbb",
"bbbbbbbbbbbbbb",
"              ",
"cccccccccccccc"};
