/* XPM */
static char * title_xpm[] = {
"1 22 18 1",
" 	c #74637E",
".	c #BCA4C9",
"+	c #A692B3",
"@	c #91829C",
"#	c #82718D",
"$	c #6C5D77",
"%	c #74607E",
"&	c #7B6786",
"*	c #7B6B86",
"=	c #826E8D",
"-	c #827195",
";	c #897595",
">	c #89789C",
",	c #917B9C",
"'	c #9882A4",
")	c #9885AB",
"!	c #9F88AB",
"~	c #84798C",
" ",
".",
"+",
"@",
"#",
"$",
"%",
" ",
"&",
"*",
"=",
"-",
";",
">",
",",
"'",
")",
"!",
"!",
"!",
" ",
"~"};
