/* XPM */
static char * bd_bl_xpm[] = {
"5 5 6 1",
" 	c #000000",
".	c #FFFFFF",
"+	c #E6E6E6",
"@	c #C5CACD",
"#	c #CDCACD",
"$	c #C5C6C5",
" .+@ ",
" .++.",
" .+++",
" +##$",
"     "};
