/* XPM */
static char * bt_close_fo_xpm[] = {
"19 21 6 1",
" 	c None",
".	c #000000",
"+	c #FFFFFF",
"@	c #E6E6E6",
"#	c #CDCACD",
"$	c #C5C6C5",
"...................",
"+++++++++++++++++@.",
"@@@@@@@@@@@@@@@@@#.",
"@#######$######@@#.",
"@#.............+@#.",
"@#.++++++++++@.+@$.",
"@#.+@@@@@@@@@#.+@$.",
"@$.+@@@@@@@@@#.+@#.",
"@#.+@@.@@@.@@$.+@#.",
"@$.+@@..@..@@#.+@$.",
"@#.+@@@...@@@#.+@#.",
"@$.+@@..@..@@#.+@$.",
"@#.+@@.@@@.@@#.+@#.",
"@#.+@@@@@@@@@#.+@#.",
"@#.+@@@@@@@@@#.+@#.",
"@$.@#####$####.+@$.",
"@#.............+@#.",
"@@++++++++++++++@#.",
"@@@@@@@@@@@@@@@@@#.",
"###############@@#.",
"...............+@$."};
