/* XPM */
static char * bt_max_fo_xpm[] = {
"16 21 6 1",
" 	c None",
".	c #000000",
"+	c #FFFFFF",
"@	c #E6E6E6",
"#	c #CDCACD",
"$	c #C5C6C5",
"................",
"++++++++++++++++",
"@@@@@@@@@@@@@@@@",
"@#######$##$###@",
"@#.............+",
"@#.++++++++++@.+",
"@#.+@@@@@@@@@#.+",
"@$.+@@@@@@@@@#.+",
"@#.+@@.....@@#.+",
"@$.+@@.....@@#.+",
"@#.+@@.@@@.@@#.+",
"@$.+@@.@@@.@@#.+",
"@#.+@@.....@@#.+",
"@#.+@@@@@@@@@#.+",
"@#.+@@@@@@@@@#.+",
"@$.@##########.+",
"@#.............+",
"@@++++++++++++++",
"@@@@@@@@@@@@@@@@",
"################",
"................"};
