/* XPM */
static char * bt_tl_fo_xpm[] = {
"15 21 6 1",
" 	c #000000",
".	c #FFFFFF",
"+	c #E6E6E6",
"@	c #C5C6C5",
"#	c #CDCACD",
"$	c #D5D6D5",
"               ",
" ..............",
" .+++++++++++++",
" .+@#++##++####",
" .+# .+# .+#   ",
" .++..++..+# ##",
" .+++++++++# #$",
" .+##++++++# #$",
" .+# .+++++# #$",
" .+++.+++++# #$",
" .+++++++++# #$",
" .+++++++++# #$",
" .+++++++++# #$",
" .+++++++++# #$",
" .+++++++++# #$",
" .+++++++++# #$",
" .+++++++++#   ",
" .++++++++++...",
" .+++++++++++++",
" .+#@######@@##",
" .+@           "};
