/* XPM */
static char * bottom_xpm[] = {
"7 3 3 1",
" 	c #707070",
".	c #606060",
"+	c #4E4E4E",
"       ",
".......",
"+++++++"};
