/* XPM */
static char * btn_close_cl_xpm[] = {
"29 22 68 1",
" 	c None",
".	c #FFFFFF",
"+	c #EBEBEB",
"@	c #EBEBED",
"#	c #727272",
"$	c #707070",
"%	c #737373",
"&	c #989898",
"*	c #999999",
"=	c #979797",
"-	c #9A9A9A",
";	c #969696",
">	c #E9E9E9",
",	c #717171",
"'	c #A0A0A0",
")	c #9F9F9F",
"!	c #BABABA",
"~	c #B9B9B9",
"{	c #E8E8E8",
"]	c #939393",
"^	c #BFBFBF",
"/	c #E6E6E6",
"(	c #909090",
"_	c #949494",
":	c #C5C5C5",
"<	c #E5E5E5",
"[	c #757575",
"}	c #9C9C9C",
"|	c #919191",
"1	c #CCCCCC",
"2	c #E3E3E3",
"3	c #A4A4A4",
"4	c #8E8E8E",
"5	c #8B8B8B",
"6	c #CFCFCF",
"7	c #E2E2E2",
"8	c #898989",
"9	c #8D8D8D",
"0	c #E1E1E1",
"a	c #E0E0E0",
"b	c #DDDDDD",
"c	c #DEDEDE",
"d	c #DFDFDF",
"e	c #A1A1A1",
"f	c #8A8A8A",
"g	c #DCDCDC",
"h	c #878787",
"i	c #9B9B9B",
"j	c #888888",
"k	c #B3B3B3",
"l	c #D8D8D8",
"m	c #DBDBDB",
"n	c #858585",
"o	c #6F6F6F",
"p	c #B0B0B0",
"q	c #D9D9D9",
"r	c #747474",
"s	c #767676",
"t	c #D7D7D7",
"u	c #D8D8D6",
"v	c #DADADA",
"w	c #D6D6D6",
"x	c #D7D7D5",
"y	c #D5D5D5",
"z	c #D3D3D3",
"A	c #D4D4D4",
"B	c #8C8C8C",
"C	c #868686",
".............................",
"+++++++++++++++++++++++++++++",
"@@@@@@@@@@@@@@@@@@@@@@++++@@@",
"@@@@@@@@@@@@@@@@@@@@@@++++@@@",
"###$%&*&&&&==&-*&&&&&=&&*;>>>",
",')'#!~~!~~~~~~!!!!~~~!~~-{{{",
"#)&],^^^^^^^^^^^^^^^^^^^^&///",
",'(_#::::::::::::::::::::-<<<",
"[}_|$11111111111111111111=222",
"$345%66666666666666666666-777",
"%)89#1111111111111111111&0aaa",
"%)55,::::::::::::::::::=bcddd",
"#eff$^^^^^^^^^^^^^^^^^-gddccc",
",'8h[!!!!!!!!!!!!!!!!igggbggg",
"%)8j#kkkkkkkkkkkkkkk}gglmmmmm",
"%)hnopppppppppppppp&mmlgqlqqq",
",,#rs*&&******-&&-=dllqttquuu",
"0dcvabccccccccbbcgctlllwtlxxx",
"wyywlwwwwwwwwwtylttytwltztyyy",
"wwwzAyyyyyyyyyywzAtyyyAwtywww",
"AAAAAAAAAAAAAAAAAAAAAAAAAAAyA",
"88888888888888888888888888BCj"};
