/* XPM */
static char * btn_max_cl_xpm[] = {
"23 22 26 1",
" 	c None",
".	c #A3A3A3",
"+	c #898989",
"@	c #89898B",
"#	c #878787",
"$	c #969696",
"%	c #888888",
"&	c #868686",
"*	c #4D4D4D",
"=	c #858585",
"-	c #848484",
";	c #989898",
">	c #838383",
",	c #808080",
"'	c #828282",
")	c #7F7F7F",
"!	c #818181",
"~	c #7A7A7A",
"{	c #7E7E7E",
"]	c #7C7C7C",
"^	c #7D7D7D",
"/	c #7B7B7B",
"(	c #797979",
"_	c #777777",
":	c #787878",
"<	c #606060",
".......................",
"+++++++++++++++++++++++",
"+++++++@@@@@@@@@@@+++++",
"+++++++@@@@@@@@@@@+++++",
"###$$$$$$$$$$$$$$$#####",
"%&%$**************%&%&%",
"&=-$*&&&&&&&&&&&;*&=&=-",
"-->$*&%#########$*---->",
"&--$**************&-&--",
",>=$*&-========'$*,>,>=",
">,)$*=&========&$*>,>,)",
"),!$*=&========-$*),),!",
"!))$*&=========-$*!)!))",
"~!{$*==---==---#$*~!~!{",
"{]]$*)=--------'$*{]{]]",
"~)^$*$$$$$$$$$$$$*~)~)^",
"]]^$**************]]]]^",
"///////////////////////",
"(]~(/_]~~((((~~]:/(](]~",
"~((~:/(~~((((~~(/(~(~((",
"(((((((((((((((((((((((",
"<<<<<<<<<<<<<<<<<<<<<<<"};
