/* XPM */
static char * btn_min_cl_xpm[] = {
"23 22 26 1",
" 	c None",
".	c #A3A3A3",
"+	c #898989",
"@	c #89898B",
"#	c #888888",
"$	c #878787",
"%	c #959595",
"&	c #858585",
"*	c #868686",
"=	c #4D4D4D",
"-	c #848484",
";	c #8A8A8A",
">	c #838383",
",	c #828282",
"'	c #818181",
")	c #808080",
"!	c #7E7E7E",
"~	c #7F7F7F",
"{	c #7D7D7D",
"]	c #7B7B7B",
"^	c #7C7C7C",
"/	c #797979",
"(	c #787878",
"_	c #7A7A7A",
":	c #777777",
"<	c #606060",
".......................",
"+++++++++++++++++++++++",
"@@@@@@@@@@@@@@@@@@@@@@@",
"@@@@@@@@@@@@@@@@@@@@@@@",
"#$$%%%%%%%%%%%%%%%$$$$$",
"&+*%==============*****",
"--*%=*;$&$$$*#&*$=&&&&&",
"$--%=#&$#$&$$*#&*=&&&&&",
"&->%=*-*&&***,$$*=>>>>>",
"''>%=-*&&**-#$>-&=>>>>>",
",,,%=$$-&*&*-&-$$=,,,,,",
")))%=&-**-**-*&-&=)))))",
"!))%=&-**>*-*-&--=~~~~~",
"~~{%==============~~~~~",
")!{%={{{{{{{{{{{%={{{{{",
"]]{%=%%%%%%%%%%%%={{{{{",
"{{]%==============^^^^^",
"]]]]]]]]]]]]]]]]]]]]]]]",
"{^/](]///(^____!:(_____",
"(_/(/__]_](/(_(:]//////",
"///////////////////////",
"<<<<<<<<<<<<<<<<<<<<<<<"};
