/* XPM */
static char * btn_min_fo_xpm[] = {
"23 22 36 1",
" 	c None",
".	c #A3A3A3",
"+	c #898989",
"@	c #89898B",
"#	c #888888",
"$	c #878787",
"%	c #858585",
"&	c #868686",
"*	c #5F5F5F",
"=	c #606060",
"-	c #616161",
";	c #5E5E5E",
">	c #949494",
",	c #848484",
"'	c #626262",
")	c #8A8A8A",
"!	c #969696",
"~	c #959595",
"{	c #838383",
"]	c #828282",
"^	c #818181",
"/	c #808080",
"(	c #989898",
"_	c #7E7E7E",
":	c #7F7F7F",
"<	c #7D7D7D",
"[	c #646464",
"}	c #979797",
"|	c #939393",
"1	c #7B7B7B",
"2	c #7C7C7C",
"3	c #7A7A7A",
"4	c #787878",
"5	c #929292",
"6	c #797979",
"7	c #777777",
".......................",
"+++++++++++++++++++++++",
"@@@@@@@@@@@@@@@@@@@@@@@",
"@@@@@@@@@@@@@@@@@@@@@@@",
"#$$+$$$##%#$+&$$&#&$$$$",
"%+&%***=--==;--=-=>&&&&",
",,&&'&)$%$$$&#%&$'!%%%%",
"$,,,*#%$#$%$$&#%&*~%%%%",
"%,{%*&,&%%&&&]$$&-!{{{{",
"^^{,;,&%%&&,#${,%*>{{{{",
"]]]/*$$,%&%&,%,$$;(]]]]",
"////=%,&&,&&,&%,%=~////",
"_//^*%,&&{&,&,%,,*>::::",
"::<_;'*-;*===*=';[!::::",
"/_<<-!}~!}~!|(!~!*}<<<<",
"11<_*|&$$%$#&&$$#=><<<<",
"<<11'===;'-=;'*-=*!2222",
"34<1!>~}}>~!!~~5}!>1111",
"<26141666423333_74<3333",
"43646331314643471666666",
"66666666666666666666666",
"======================="};
