/* XPM */
static char * title_fo_xpm[] = {
"5 22 26 1",
" 	c None",
".	c #FFFFFF",
"+	c #EBEBEB",
"@	c #EBEBED",
"#	c #E8E8E8",
"$	c #E9E9E9",
"%	c #E7E7E7",
"&	c #E6E6E6",
"*	c #E5E5E5",
"=	c #E4E4E4",
"-	c #E3E3E3",
";	c #E2E2E2",
">	c #E0E0E0",
",	c #DFDFDF",
"'	c #DEDEDE",
")	c #DCDCDC",
"!	c #DBDBDB",
"~	c #D9D9D9",
"{	c #D8D8D6",
"]	c #D7D7D5",
"^	c #D5D5D5",
"/	c #D6D6D6",
"(	c #D4D4D4",
"_	c #888888",
":	c #8C8C8C",
"<	c #868686",
".....",
"+++++",
"@@@@@",
"@@@@@",
"#$$$$",
"%####",
"&&&&&",
"*****",
"=----",
";;;;;",
">>>>>",
",,,,,",
"'''''",
")))))",
"!!!!!",
"~~~~~",
"{{{{{",
"]]]]]",
"^^^^^",
"/////",
"((^(^",
"_:<__"};
