/* XPM */
static char * title_un_xpm[] = {
"7 22 18 1",
" 	c None",
".	c #919191",
"+	c #858585",
"@	c #808080",
"#	c #838383",
"$	c #818181",
"%	c #7F7F7F",
"&	c #7E7E7E",
"*	c #7C7C7C",
"=	c #7B7B7B",
"-	c #7A7A7A",
";	c #787878",
">	c #777777",
",	c #767676",
"'	c #757575",
")	c #737373",
"!	c #717171",
"~	c #5A5A5A",
".......",
"+++++++",
"@@@@@@@",
"#######",
"$$$$$$$",
"%%%%%%%",
"%%%%%%%",
"&&&&&&&",
"*******",
"*******",
"=======",
"-------",
";;;;;;;",
">>>>>>>",
",,,,,,,",
",,,,,,,",
"'''''''",
")))))))",
")))))))",
")))))))",
"!!!!!!!",
"~~~~~~~"};
