/* XPM */
static char * close_xpm[] = {
"15 17 4 1",
" 	c None",
".	c #C8C8C8",
"+	c #ADADAD",
"@	c #FFFFFF",
"...............",
"...............",
".++++++++++++..",
".+@@@@@@@@@@+..",
".+@@@@@@@@@@+..",
".+@@++@@++@@+..",
".+@@++++++@@+..",
".+@@@++++@@@+..",
".+@@@++++@@@+..",
".+@@++++++@@+..",
".+@@++@@++@@+..",
".+@@@@@@@@@@+..",
".+@@@@@@@@@@+..",
".++++++++++++..",
"...............",
"...............",
"+++++++++++++++"};
