/* XPM */
static char * close_clicked_xpm[] = {
"15 17 4 1",
" 	c None",
".	c #FFFFFF",
"+	c #C8C8C8",
"@	c #ADADAD",
"...............",
"...............",
".++++++++++++..",
".+..........+..",
".+..........+..",
".+..++..++..+..",
".+..++++++..+..",
".+...++++...+..",
".+...++++...+..",
".+..++++++..+..",
".+..++..++..+..",
".+..........+..",
".+..........+..",
".++++++++++++..",
"...............",
"...............",
"@@@@@@@@@@@@@@@"};
