/* XPM */
static char * resize_middle_xpm[] = {
"24 4 3 1",
" 	c None",
".	c #ADADAD",
"+	c #C8C8C8",
"........................",
"++++++++++++++++++++++++",
"++++++++++++++++++++++++",
"........................"};
