/* XPM */
static char * seperator_focused_xpm[] = {
"2 19 17 1",
" 	c #000000",
".	c #7C899E",
"+	c #7B899D",
"@	c #7A879C",
"#	c #79869B",
"$	c #78869B",
"%	c #77859A",
"&	c #6E7E96",
"*	c #657690",
"=	c #5D6E89",
"-	c #546783",
";	c #4B5F7D",
">	c #455875",
",	c #CCD3DD",
"'	c #939393",
")	c #707070",
"!	c #020202",
"  ",
" .",
" .",
" .",
" +",
" @",
" #",
" $",
" %",
" &",
" *",
" =",
" -",
" ;",
" >",
",,",
"''",
"))",
"!!"};
