/* XPM */
static char * bd_right_xpm[] = {
"4 1 3 1",
" 	c #305170",
".	c #6586A2",
"+	c #7D9BB4",
" .+ "};
