/* XPM */
static char * close_xpm[] = {
"14 15 133 2",
"  	c None",
". 	c #4A7292",
"+ 	c #486D8A",
"@ 	c #43566A",
"# 	c #3C2D2E",
"$ 	c #404B58",
"% 	c #496D8C",
"& 	c #486E8C",
"* 	c #3F4A57",
"= 	c #3E2D2E",
"- 	c #4C4E58",
"; 	c #46657E",
"> 	c #49708F",
", 	c #486E8D",
"' 	c #3F4D5C",
") 	c #48191A",
"! 	c #6F1A1A",
"~ 	c #843536",
"{ 	c #4D4F60",
"] 	c #445E74",
"^ 	c #4D2324",
"/ 	c #701819",
"( 	c #AA4D4D",
"_ 	c #513A3D",
": 	c #456680",
"< 	c #45657E",
"[ 	c #3A292C",
"} 	c #641818",
"| 	c #B63636",
"1 	c #C61212",
"2 	c #7E1D1E",
"3 	c #33373A",
"4 	c #4F0C0B",
"5 	c #801313",
"6 	c #A61010",
"7 	c #662322",
"8 	c #45637B",
"9 	c #44627A",
"0 	c #44393C",
"a 	c #7E292C",
"b 	c #9B0606",
"c 	c #830202",
"d 	c #A00101",
"e 	c #500908",
"f 	c #380808",
"g 	c #911717",
"h 	c #830404",
"i 	c #51343D",
"j 	c #476B87",
"k 	c #476A86",
"l 	c #434E59",
"m 	c #6D4248",
"n 	c #840708",
"o 	c #710809",
"p 	c #780A0C",
"q 	c #810202",
"r 	c #701514",
"s 	c #871214",
"t 	c #6F0A0B",
"u 	c #434D5D",
"v 	c #497190",
"w 	c #497191",
"x 	c #475059",
"y 	c #8E575F",
"z 	c #871415",
"A 	c #6F1215",
"B 	c #74181C",
"C 	c #703138",
"D 	c #7C1619",
"E 	c #601619",
"F 	c #405F75",
"G 	c #476C89",
"H 	c #3C3D46",
"I 	c #3C2528",
"J 	c #8C3F41",
"K 	c #871315",
"L 	c #70414B",
"M 	c #84363C",
"N 	c #811518",
"O 	c #8B1717",
"P 	c #434F60",
"Q 	c #455869",
"R 	c #4E2C31",
"S 	c #5D1F21",
"T 	c #8D1818",
"U 	c #87353C",
"V 	c #8C474F",
"W 	c #855D67",
"X 	c #7D1F23",
"Y 	c #920404",
"Z 	c #4F3741",
"` 	c #476C8A",
" .	c #476882",
"..	c #5D5D67",
"+.	c #74505A",
"@.	c #821213",
"#.	c #842429",
"$.	c #8D5562",
"%.	c #796269",
"&.	c #555359",
"*.	c #752E35",
"=.	c #830606",
"-.	c #4B3D48",
";.	c #486E8B",
">.	c #566472",
",.	c #958E99",
"'.	c #A37B88",
").	c #957483",
"!.	c #7F6771",
"~.	c #2A363D",
"{.	c #232B32",
"].	c #3E2428",
"^.	c #352227",
"/.	c #3C5B74",
"(.	c #40617B",
"_.	c #374450",
":.	c #575E68",
"<.	c #4C4B55",
"[.	c #31363E",
"}.	c #1D2E3A",
"|.	c #233645",
"1.	c #233644",
"2.	c #36546A",
"3.	c #48708F",
"4.	c #3B5B74",
"5.	c #314C61",
"6.	c #38566F",
"7.	c #3D5F79",
"8.	c #416480",
"9.	c #436784",
"0.	c #466C8A",
"a.	c #497090",
"b.	c #305170",
". . . . . . . . . . . . . . ",
". . + @ # $ % & * = - ; > . ",
". , ' ) ! ~ { ] ^ / ( _ : . ",
". < [ } | 1 2 3 4 5 6 7 8 . ",
". 9 0 a b c d e f g h i j . ",
". k l m n o p q r s t u v . ",
". w k x y z A B C D E F . . ",
". . G H I J K L M N O P v . ",
". > Q R S T U V W X Y Z ` . ",
".  ...+.@.#.$.%.&.*.=.-.;.. ",
". j >.,.'.).!.~.{.].^./.. . ",
". . (._.:.<.[.}.|.1.2.3.. . ",
". . 3.4.5.6.7.8.9.0.a.. . . ",
". . . . . . . . . . . . . . ",
"b.b.b.b.b.b.b.b.b.b.b.b.b.b."};
