/* XPM */
static char * title_xpm[] = {
"1 15 3 1",
" 	c #4A7292",
".	c #487090",
"+	c #305170",
" ",
" ",
" ",
" ",
" ",
" ",
" ",
" ",
" ",
" ",
" ",
" ",
" ",
".",
"+"};
