/* XPM */
static char * br_fo_xpm[] = {
"6 6 7 1",
" 	c #4B4B4B",
".	c #403D3D",
"+	c #3F3F3F",
"@	c #000000",
"#	c #6988AC",
"$	c #4E6B8C",
"%	c #3E5876",
" ...+@",
".#$%+@",
".$$%+@",
".%%%+@",
"+++++@",
"@@@@@@"};
