/* XPM */
static char * br_un_xpm[] = {
"6 6 6 1",
" 	c #4B4B4B",
".	c #FFFFFF",
"+	c #D9D9D9",
"@	c #9D9D9D",
"#	c #3F3F3F",
"$	c #000000",
" .+@#$",
"..+@#$",
"+++@#$",
"@@@@#$",
"#####$",
"$$$$$$"};
