/* XPM */
static char * btn_max_un_xpm[] = {
"16 21 55 1",
" 	c #3F3F3F",
".	c #FFFFFF",
"+	c #C5C5C5",
"@	c #BABABA",
"#	c #F6F6F6",
"$	c #C7C7C7",
"%	c #7C7C7C",
"&	c #C9C9C9",
"*	c #EDEBED",
"=	c #D0CED0",
"-	c #CBCBCB",
";	c #EBE9EB",
">	c #DFDDDF",
",	c #DEDCDE",
"'	c #B3B1B3",
")	c #CECECE",
"!	c #B8B6B8",
"~	c #B0AEB0",
"{	c #AEACAE",
"]	c #D0D0D0",
"^	c #F3F1F3",
"/	c #ECEAEC",
"(	c #D9D7D9",
"_	c #D2D2D2",
":	c #E2E1E0",
"<	c #D2D0D2",
"[	c #D1CFD1",
"}	c #A8A6A8",
"|	c #D4D4D4",
"1	c #DFDEDD",
"2	c #CDCBCD",
"3	c #CCCACC",
"4	c #A4A2A4",
"5	c #D6D6D6",
"6	c #DCDBDA",
"7	c #C8C6C8",
"8	c #C9C7C9",
"9	c #A19FA1",
"0	c #D9D9D9",
"a	c #E4E3E2",
"b	c #C3C1C3",
"c	c #9C9A9C",
"d	c #DBDBDB",
"e	c #BEBCBE",
"f	c #9D9B9D",
"g	c #DDDDDD",
"h	c #BBB9BB",
"i	c #DFDFDF",
"j	c #D0CFCE",
"k	c #939193",
"l	c #E2E2E2",
"m	c #E4E4E4",
"n	c #D8D8D8",
"o	c #A6A6A6",
"p	c #4B4B4B",
"                ",
"................",
"++++++++++++++++",
"@@@@@@@@@@@@@@#$",
"@%%%%%%%%%%%%%#&",
"@%**********=%#-",
"@%;>>>>>>>>,'%#)",
"@%!~~~~~~~~~{%#]",
"@%^/////////(%#_",
"@%:<<<<<<<<[}%#|",
"@%12222222234%#5",
"@%67777777789%#0",
"@%abbbbbbbbbc%#d",
"@%aeeeeeeeeef%#g",
"@%ahhhhhhhhhc%#i",
"@%jkkkkkkkkkc%#l",
"@%%%%%%%%%%%%%#m",
"@##############.",
"nnnnnnnnnnnnnnnn",
"oooooooooooooooo",
"pppppppppppppppp"};
