/* XPM */
static char * title_fo_xpm[] = {
"4 21 43 1",
" 	c #3F3F3F",
".	c #7A9EC8",
"+	c #4E6B8C",
"@	c #354D68",
"#	c #698EB8",
"$	c #688EB8",
"%	c #668AB4",
"&	c #668BB4",
"*	c #6387B0",
"=	c #6387AF",
"-	c #6083AC",
";	c #6084AB",
">	c #6083AB",
",	c #5D80A6",
"'	c #5E7FA6",
")	c #5D80A7",
"!	c #5E80A7",
"~	c #5B7CA2",
"{	c #5A7CA2",
"]	c #5A7CA3",
"^	c #5A7DA2",
"/	c #57789E",
"(	c #58799E",
"_	c #54759A",
":	c #547599",
"<	c #527296",
"[	c #527195",
"}	c #517195",
"|	c #517196",
"1	c #4F6E90",
"2	c #4F6E91",
"3	c #4E6E91",
"4	c #4B6A8C",
"5	c #4C6A8D",
"6	c #4C6A8C",
"7	c #496688",
"8	c #496788",
"9	c #486788",
"0	c #466384",
"a	c #466383",
"b	c #456384",
"c	c #466180",
"d	c #4B4B4B",
"    ",
"....",
"++++",
"@@@@",
"++++",
"##$#",
"%&%%",
"**==",
"-;>;",
",')!",
"~{]^",
"//(/",
"__:_",
"<[}|",
"1223",
"4566",
"7889",
"0aba",
"cccc",
"@@@@",
"dddd"};
