/* XPM */
static char * sep_fo_xpm[] = {
"2 14 3 1",
" 	c None",
".	c #273B59",
"+	c #56739A",
".+",
".+",
".+",
".+",
".+",
".+",
".+",
".+",
".+",
".+",
".+",
".+",
".+",
".."};
