/* XPM */
static char * win_fo_xpm[] = {
"10 14 4 1",
" 	c None",
".	c #56739A",
"+	c #355176",
"@	c #14243B",
"..........",
"++++++++++",
"++++++++++",
"++++++++++",
"++++++++++",
"++++++++++",
"++++++++++",
"++++++++++",
"++++++++++",
"++++++++++",
"++++++++++",
"++++++++++",
"++++++++++",
"@@@@@@@@@@"};
