/* XPM */
static char * bottom_xpm[] = {
"5 6 7 1",
" 	c None",
".	c #4B4B4B",
"+	c #FFFFFF",
"@	c #D9D9D9",
"#	c #9D9D9D",
"$	c #3F3F3F",
"%	c #000000",
".....",
"+++++",
"@@@@@",
"#####",
"$$$$$",
"%%%%%"};
