/* XPM */
static char * btn_menu_fo_xpm[] = {
"13 21 54 1",
" 	c #3F3F3F",
".	c #E8904F",
"+	c #BC692B",
"@	c #6B3A16",
"#	c #74421E",
"$	c #494847",
"%	c #484648",
"&	c #48464A",
"*	c #49474B",
"=	c #474547",
"-	c #484744",
";	c #4A4749",
">	c #E3E1E5",
",	c #E3E1E3",
"'	c #E3E2E1",
")	c #E3E2DF",
"!	c #E2E0E2",
"~	c #A7A5A7",
"{	c #494646",
"]	c #494648",
"^	c #E4E2E6",
"/	c #B7B6B5",
"(	c #B7B5B9",
"_	c #B8B6BA",
":	c #B7B5B7",
"<	c #B8B6B8",
"[	c #A7A5A9",
"}	c #858385",
"|	c #807E80",
"1	c #7F7D81",
"2	c #7F7D7F",
"3	c #6E6D6C",
"4	c #A5A3A5",
"5	c #494749",
"6	c #B6B4B6",
"7	c #868486",
"8	c #807F7E",
"9	c #6D6C69",
"0	c #4A4747",
"a	c #E4E2E4",
"b	c #B5B6B7",
"c	c #B5B6B9",
"d	c #B6B4B8",
"e	c #A6A4A6",
"f	c #484746",
"g	c #484547",
"h	c #A74A06",
"i	c #A84A06",
"j	c #A84A05",
"k	c #A74A05",
"l	c #A44702",
"m	c #A44602",
"n	c #A44703",
"o	c #4B4B4B",
"             ",
".............",
"+++++++++++++",
"@@@@@@@@@@@@@",
"+++++++++++++",
"############.",
"#$%%&&%%&*=-.",
"#;>,'>,),!~{.",
"#]^//(_/:<[{.",
"#%}||1||2|3].",
"#%,,,,',,>45.",
"#5!:/6_(_(~].",
"#%71||||2890.",
"#%!a'''!!>4].",
"#=a(bc/:d_e%.",
"#f{{{]]];gf].",
"#............",
"hihhjihhiihhk",
"lmmmnlnlmllnl",
"@@@@@@@@@@@@@",
"ooooooooooooo"};
