/* XPM */
static char * btn_menu_pr_xpm[] = {
"13 21 54 1",
" 	c #3F3F3F",
".	c #E8904F",
"+	c #BC692B",
"@	c #6B3A16",
"#	c #74421E",
"$	c #494648",
"%	c #484746",
"&	c #484547",
"*	c #4A4749",
"=	c #494646",
"-	c #484648",
";	c #A6A4A6",
">	c #B8B6BA",
",	c #B6B4B8",
"'	c #B7B5B7",
")	c #B7B6B5",
"!	c #B5B6B9",
"~	c #B5B6B7",
"{	c #B7B5B9",
"]	c #E4E2E4",
"^	c #474547",
"/	c #A5A3A5",
"(	c #E3E1E5",
"_	c #E2E0E2",
":	c #E3E2E1",
"<	c #4A4747",
"[	c #6D6C69",
"}	c #807F7E",
"|	c #7F7D7F",
"1	c #807E80",
"2	c #7F7D81",
"3	c #868486",
"4	c #A7A5A7",
"5	c #B6B4B6",
"6	c #494749",
"7	c #E3E1E3",
"8	c #6E6D6C",
"9	c #858385",
"0	c #A7A5A9",
"a	c #B8B6B8",
"b	c #E4E2E6",
"c	c #E3E2DF",
"d	c #484744",
"e	c #49474B",
"f	c #48464A",
"g	c #494847",
"h	c #A74A06",
"i	c #A84A06",
"j	c #A84A05",
"k	c #A74A05",
"l	c #A44702",
"m	c #A44602",
"n	c #A44703",
"o	c #4B4B4B",
"             ",
".............",
"+++++++++++++",
"@@@@@@@@@@@@@",
"+++++++++++++",
"############.",
"#$%&*$$$===%.",
"#-;>,')!~{]^.",
"#$/(__:::]_-.",
"#<[}|111123-.",
"#$4{>{>5)'_6.",
"#6/(77:7777-.",
"#$81|112119-.",
"#=0a')>{))b$.",
"#=4_7c7(:7(*.",
"#d^ef--ff--g.",
"#............",
"hihhjihhiihhk",
"lmmmnlnlmllnl",
"@@@@@@@@@@@@@",
"ooooooooooooo"};
