/* XPM */
static char * btn_min_fo_xpm[] = {
"16 21 48 1",
" 	c #3F3F3F",
".	c #FFFFFF",
"+	c #C5C5C5",
"@	c #BABABA",
"#	c #F6F6F6",
"$	c #C7C7C7",
"%	c #3F3D3F",
"&	c #403E40",
"*	c #3E3C3E",
"=	c #C9C9C9",
"-	c #C0BEC0",
";	c #BFBDBF",
">	c #9A989A",
",	c #CBCBCB",
"'	c #A4A2A4",
")	c #848284",
"!	c #CECECE",
"~	c #A3A1A3",
"{	c #525052",
"]	c #535153",
"^	c #A5A3A5",
"/	c #828082",
"(	c #D0D0D0",
"_	c #C1BFC1",
":	c #838183",
"<	c #D2D2D2",
"[	c #D4D4D4",
"}	c #D6D6D6",
"|	c #D9D9D9",
"1	c #DBDBDB",
"2	c #ECEAEC",
"3	c #EDEBED",
"4	c #EEECEE",
"5	c #DDDDDD",
"6	c #D4D2D4",
"7	c #BBB9BB",
"8	c #BCBABC",
"9	c #979597",
"0	c #DFDFDF",
"a	c #A9A7A9",
"b	c #939193",
"c	c #949294",
"d	c #929092",
"e	c #E2E2E2",
"f	c #E4E4E4",
"g	c #D8D8D8",
"h	c #A6A6A6",
"i	c #4B4B4B",
"                ",
"................",
"++++++++++++++++",
"@@@@@@@@@@@@@@#$",
"@%&*&%%*%&%%*%#=",
"@*--;;--;--->*#,",
"@%-''''''''')*#!",
"@%-~'{{{]{^^/&#(",
"@%_'''{{{^'^:%#<",
"@%;''''{~''':%#[",
"@*-'~^'''~'~:%#}",
"@%>::/::::/:/%#|",
"@%%%%%&*&%%%*%#1",
"@&23332433333&#5",
"@*67777887779*#0",
"@%abbbbcdcbcb&#e",
"@%%*%&&%%*%&%%#f",
"@##############.",
"gggggggggggggggg",
"hhhhhhhhhhhhhhhh",
"iiiiiiiiiiiiiiii"};
