/* XPM */
static char * title_fo_xpm[] = {
"4 21 41 1",
" 	c #3F3F3F",
".	c #E8904F",
"+	c #BC692B",
"@	c #6B3A16",
"#	c #CD722F",
"$	c #CD722E",
"%	c #CA6F2C",
"&	c #CA6F2B",
"*	c #CA6E2B",
"=	c #C66B28",
"-	c #C76B28",
";	c #C46824",
">	c #C36825",
",	c #C46724",
"'	c #C16521",
")	c #C16421",
"!	c #C06521",
"~	c #BD611D",
"{	c #BE611E",
"]	c #BA5E1A",
"^	c #B75A17",
"/	c #B65A17",
"(	c #B75A16",
"_	c #B45814",
":	c #B35813",
"<	c #B35714",
"[	c #B45714",
"}	c #B15410",
"|	c #B05410",
"1	c #AD500C",
"2	c #AD510C",
"3	c #AD500D",
"4	c #AD510D",
"5	c #AB4D09",
"6	c #AA4D09",
"7	c #A74A05",
"8	c #A74A06",
"9	c #A84A06",
"0	c #A44702",
"a	c #A44602",
"b	c #4B4B4B",
"    ",
"....",
"++++",
"@@@@",
"++++",
"#$##",
"%&%*",
"=-=-",
";>,;",
"')!'",
"~{~~",
"]]]]",
"^^/(",
"_:<[",
"}}}|",
"1234",
"5666",
"7898",
"0a0a",
"@@@@",
"bbbb"};
