/* XPM */
static char * bd_btl_un_xpm[] = {
"20 6 19 1",
" 	c #010101",
".	c #060606",
"+	c #000000",
"@	c #030303",
"#	c #4A4A4A",
"$	c #545454",
"%	c #4F4F4F",
"&	c #5B5B5B",
"*	c #373737",
"=	c #282828",
"-	c #070707",
";	c #505050",
">	c #383838",
",	c #2F2F2F",
"'	c #050505",
")	c #535353",
"!	c #292929",
"~	c #2B2B2B",
"{	c #020202",
" .++++++++++++++++.+",
"@#$$$$$$$$$$$$$$$$% ",
"+&****************=-",
"+;>>>>>>>>>>>>>>>>,+",
"')!!!!!!!!!!!!!!!!~{",
"@++++++++++++++++++@"};
