/* XPM */
static char * bd_btr_un_xpm[] = {
"20 6 36 1",
" 	c #000000",
".	c #030303",
"+	c #090909",
"@	c #020202",
"#	c #070707",
"$	c #040404",
"%	c #555555",
"&	c #4C4C4C",
"*	c #535353",
"=	c #545454",
"-	c #505050",
";	c #565656",
">	c #515151",
",	c #5B5B5B",
"'	c #4F4F4F",
")	c #383838",
"!	c #343434",
"~	c #3A3A3A",
"{	c #373737",
"]	c #393939",
"^	c #353535",
"/	c #282828",
"(	c #4D4D4D",
"_	c #404040",
":	c #3C3C3C",
"<	c #3B3B3B",
"[	c #2E2E2E",
"}	c #2D2D2D",
"|	c #212121",
"1	c #252525",
"2	c #2B2B2B",
"3	c #292929",
"4	c #2C2C2C",
"5	c #262626",
"6	c #0A0A0A",
"7	c #010101",
"  . +         @   # ",
"$%&*=-========;>,='#",
"@=))!~{{{{{{{{!]^{/ ",
"@(~)_!)))))))):]<][ ",
" ;}|12333333334|253 ",
"$   6          77  $"};
