/* XPM */
static char * bd_btr_fo_xpm[] = {
"20 6 25 1",
" 	c #000000",
".	c #0A0A0A",
"+	c #010101",
"@	c #535353",
"#	c #575757",
"$	c #4E4E4E",
"%	c #030303",
"&	c #525252",
"*	c #353535",
"=	c #393939",
"-	c #3A3A3A",
";	c #383838",
">	c #2A2A2A",
",	c #5C5C5C",
"'	c #373737",
")	c #3D3D3D",
"!	c #2C2C2C",
"~	c #060606",
"{	c #484848",
"]	c #282828",
"^	c #2E2E2E",
"/	c #292929",
"(	c #202020",
"_	c #020202",
":	c #070707",
"                  . ",
"+@@@@@@@@@@@@@@@@#$%",
"+&*=-*=*-;;;;;;;;;>+",
"+,-''')'';;;;;;;;=!%",
"~{!]]]^]]////////>( ",
" . +_ + %+++++++++:+"};
