/* XPM */
static char * bd_btm_un_xpm[] = {
"16 6 5 1",
" 	c #000000",
".	c #545454",
"+	c #373737",
"@	c #383838",
"#	c #292929",
"                ",
"................",
"++++++++++++++++",
"@@@@@@@@@@@@@@@@",
"################",
"                "};
