/* XPM */
static char * bd_horz_fo_xpm[] = {
"1 16 9 1",
" 	c #000000",
".	c #010000",
"+	c #000202",
"@	c #000104",
"#	c #000005",
"$	c #010005",
"%	c #010004",
"&	c #000002",
"*	c #000100",
" ",
".",
".",
" ",
"+",
"@",
"#",
"$",
"%",
"%",
"%",
"&",
"&",
"&",
"*",
"*"};
