/* XPM */
static char * bd_tor_un_xpm[] = {
"2 15 15 1",
" 	c #030303",
".	c #000000",
"+	c #525252",
"@	c #292929",
"#	c #262626",
"$	c #2C2C2C",
"%	c #252525",
"&	c #060606",
"*	c #040404",
"=	c #2F2F2F",
"-	c #282828",
";	c #010101",
">	c #2A2A2A",
",	c #202020",
"'	c #090909",
" .",
"+.",
"@.",
"#.",
"$.",
"%&",
"#.",
"@*",
"=.",
"-*",
"@.",
"@;",
">*",
",*",
"'."};
