/* XPM */
static char * bd_tol_un_xpm[] = {
"10 15 51 1",
" 	c #020202",
".	c #000000",
"+	c #383838",
"@	c #545454",
"#	c #010101",
"$	c #535353",
"%	c #363636",
"&	c #3A3A3A",
"*	c #373737",
"=	c #3D3D3D",
"-	c #393939",
";	c #3F3F3F",
">	c #343434",
",	c #353535",
"'	c #2E2E2E",
")	c #3C3C3C",
"!	c #404040",
"~	c #303030",
"{	c #A6A6A6",
"]	c #333333",
"^	c #3E3E3E",
"/	c #3B3B3B",
"(	c #2F2F2F",
"_	c #353533",
":	c #393937",
"<	c #3A3A3C",
"[	c #39393B",
"}	c #38383A",
"|	c #545452",
"1	c #373A33",
"2	c #383933",
"3	c #393836",
"4	c #38373C",
"5	c #38373D",
"6	c #39363F",
"7	c #39363D",
"8	c #393833",
"9	c #393641",
"0	c #0E0E0E",
"a	c #4F4F4F",
"b	c #282A29",
"c	c #282A27",
"d	c #2A2927",
"e	c #2A282B",
"f	c #2A272E",
"g	c #2A2730",
"h	c #030303",
"i	c #000103",
"j	c #020001",
"k	c #020003",
"l	c #020005",
" .........",
".+@@@@@@@@",
"#$++++++++",
"#$%+&*+=%-",
"#$;&>,=***",
"#$'*)->&>&",
"#$!&*>-&*)",
"#$+~&&&{=]",
"#$**&%*^,/",
"#$*)*%;()%",
"#$_::,<[<}",
".|12234567",
".|11834697",
"0abcddefgf",
".hiijjjklk"};
