/* XPM */
static char * bd_tor_fo_xpm[] = {
"2 15 13 1",
" 	c #040404",
".	c #000000",
"+	c #464646",
"@	c #0B0B0B",
"#	c #2F2F2F",
"$	c #292929",
"%	c #010101",
"&	c #262626",
"*	c #020202",
"=	c #282828",
"-	c #212121",
";	c #060606",
">	c #030303",
" .",
"+@",
"#.",
"$%",
"$%",
"$%",
"$%",
"$%",
"$%",
"$%",
"$%",
"&*",
"= ",
"-;",
">."};
