/* XPM */
static char * bd_tol_fo_xpm[] = {
"10 15 81 1",
" 	c #050505",
".	c #000000",
"+	c #010101",
"@	c #020202",
"#	c #040301",
"$	c #040000",
"%	c #3E3E3E",
"&	c #494949",
"*	c #545454",
"=	c #585858",
"-	c #555555",
";	c #515151",
">	c #545351",
",	c #58534F",
"'	c #4C4C4C",
")	c #424242",
"!	c #363636",
"~	c #333333",
"{	c #383838",
"]	c #3C3C3C",
"^	c #3B3B3B",
"/	c #383735",
"(	c #3E3633",
"_	c #565656",
":	c #353535",
"<	c #414141",
"[	c #373332",
"}	c #3F3534",
"|	c #343434",
"1	c #393939",
"2	c #3D3B3C",
"3	c #3E3536",
"4	c #3A3A3A",
"5	c #323232",
"6	c #343436",
"7	c #39363D",
"8	c #525252",
"9	c #404040",
"0	c #3D3D3D",
"a	c #373739",
"b	c #37373F",
"c	c #313131",
"d	c #A5A5A5",
"e	c #3E3E40",
"f	c #38373D",
"g	c #373737",
"h	c #535353",
"i	c #2E2E2E",
"j	c #3C3D41",
"k	c #343841",
"l	c #343635",
"m	c #37383A",
"n	c #34393F",
"o	c #383A39",
"p	c #373B3A",
"q	c #343633",
"r	c #383A37",
"s	c #353533",
"t	c #3A3A38",
"u	c #5B5D5C",
"v	c #3A3C3B",
"w	c #343837",
"x	c #343935",
"y	c #3C3E3B",
"z	c #373735",
"A	c #393836",
"B	c #464847",
"C	c #2A2C2B",
"D	c #272928",
"E	c #262827",
"F	c #2D2D2D",
"G	c #292826",
"H	c #2B2726",
"I	c #2C2827",
"J	c #000100",
"K	c #090B0A",
"L	c #000201",
"M	c #010000",
"N	c #040001",
"O	c #070103",
"P	c #050001",
" .+@+...#$",
".%&*=-;;>,",
"+')!~{]^/(",
"._:^:{:<[}",
".;|{1]^!23",
".*^45||467",
".8{!9]0{ab",
".84]c1~def",
".-g!{1196b",
".h{4|{9ijk",
".8g%l!g4mn",
".8lopqrst{",
".uvwwxyzAA",
".BCDEDFGHI",
"JKJL@MN$OP"};
