/* XPM */
static char * btn_close_xpm[] = {
"11 13 30 1",
" 	c #545454",
".	c #5A5A5A",
"+	c #383838",
"@	c #363636",
"#	c #343434",
"$	c #393939",
"%	c #353535",
"&	c #3A3A3A",
"*	c #3C3C3C",
"=	c #373737",
"-	c #3E3E3E",
";	c #3F3F3F",
">	c #323232",
",	c #3D3D3D",
"'	c #313131",
")	c #AAAAAA",
"!	c #ABABAB",
"~	c #B0B0B0",
"{	c #A9A9A9",
"]	c #2F2F2F",
"^	c #404040",
"/	c #414141",
"(	c #AEAEAE",
"_	c #B2B2B2",
":	c #3B3B3B",
"<	c #A7A7A7",
"[	c #424242",
"}	c #333333",
"|	c #292929",
"1	c #2A2A2A",
"          .",
"++++++++++@",
"#$+%&++*+@=",
"-+@;=&=>-&=",
",'@)&#;!#==",
"%;;'~&{+-==",
"+]]^+!@,=%=",
"=/$>!&(=+&=",
"$=,_==:<[>=",
"#&@$%:+=}:=",
"++++++++++$",
"++++++++++&",
"||||||||||1"};
