/* XPM */
static char * btn_close_un_xpm[] = {
"11 13 30 1",
" 	c #545454",
".	c #5A5A5A",
"+	c #484848",
"@	c #585858",
"#	c #525252",
"$	c #383838",
"%	c #3B3B3B",
"&	c #353535",
"*	c #373737",
"=	c #3A3A3A",
"-	c #393939",
";	c #363636",
">	c #3E3E3E",
",	c #3D3D3D",
"'	c #3C3C3C",
")	c #AFAFAF",
"!	c #313131",
"~	c #AEAEAE",
"{	c #333333",
"]	c #A9A9A9",
"^	c #323232",
"/	c #B6B6B6",
"(	c #404040",
"_	c #414141",
":	c #2F2F2F",
"<	c #3F3F3F",
"[	c #ADADAD",
"}	c #A8A8A8",
"|	c #343434",
"1	c #292929",
"       .+@#",
"$$$$$$$$%&*",
"$%*****=-;=",
"&*$*>;,**%*",
"$'*)&%!~{==",
"%!,,]^/';$(",
"^_:;%]*&<{;",
"$;-*[%};%-*",
"*$'~&'*[*$-",
"_&{%-|=*%|%",
"$$$$$$$-$==",
"$$$$$$$**-$",
"11111111111"};
