/* XPM */
static char * btn_min_xpm[] = {
"11 13 27 1",
" 	c #545454",
".	c #383838",
"+	c #393939",
"@	c #363636",
"#	c #2F2F2F",
"$	c #3C3C3C",
"%	c #353535",
"&	c #3B3B3B",
"*	c #303030",
"=	c #404040",
"-	c #343434",
";	c #3F3F3F",
">	c #3A3A3A",
",	c #333333",
"'	c #373737",
")	c #444444",
"!	c #3D3D3D",
"~	c #323232",
"{	c #B1B1B1",
"]	c #AAAAAA",
"^	c #ADADAD",
"/	c #B2B2B2",
"(	c #ABABAB",
"_	c #AEAEAE",
":	c #A9A9A9",
"<	c #B0B0B0",
"[	c #292929",
"           ",
"...........",
"+@#$+%.+&*=",
"-;$%>@$,@+@",
"-'.&,&#=@)@",
"!->-'&>~@%&",
"'&+{]]{^$-.",
"+,,/'>%(@!+",
"'=~_(:_<>@*",
".@+'$'....!",
"...........",
"...........",
"[[[[[[[[[[["};
