/* XPM */
static char * sep_fo_xpm[] = {
"7 22 25 1",
" 	c #FBFFFF",
".	c #757575",
"+	c #E2E0E1",
"@	c #B8B8B8",
"#	c #FFFFFF",
"$	c #DFDFDF",
"%	c #DEDEDE",
"&	c #DCDCDC",
"*	c #DBDBDB",
"=	c #D9D9D9",
"-	c #D8D8D8",
";	c #D6D6D6",
">	c #D5D5D5",
",	c #D4D4D4",
"'	c #D3D3D3",
")	c #D1D1D1",
"!	c #CFCFCF",
"~	c #CECECE",
"{	c #CCCCCC",
"]	c #CBCBCB",
"^	c #C9C9C9",
"/	c #B5B5B3",
"(	c #A7A7A7",
"_	c #A4A4A2",
":	c #767674",
"   .   ",
"++@.#++",
"$$@.#$$",
"%%@.#%%",
"&&@.#&&",
"**@.#**",
"**@.#**",
"==@.#==",
"--@.#--",
";;@.#;;",
">>@.#>>",
",,@.#,,",
"''@.#''",
"))@.#))",
"!!@.#!!",
"~~@.#~~",
"{{@.#{{",
"]]@.#]]",
"^^@.#^^",
"@@/.@@@",
"((_.(((",
"..:...."};
