/* XPM */
static char * sep_un_xpm[] = {
"9 22 9 1",
" 	c #FBFFFF",
".	c #757575",
"+	c #C9C9C9",
"@	c #B8B8B8",
"#	c #FFFFFF",
"$	c #B5B5B3",
"%	c #A7A7A7",
"&	c #A4A4A2",
"*	c #767674",
"    .    ",
"+++@.#+++",
"+++@.#+++",
"+++@.#+++",
"+++@.#+++",
"+++@.#+++",
"+++@.#+++",
"+++@.#+++",
"+++@.#+++",
"+++@.#+++",
"+++@.#+++",
"+++@.#+++",
"+++@.#+++",
"+++@.#+++",
"+++@.#+++",
"+++@.#+++",
"+++@.#+++",
"+++@.#+++",
"+++@.#+++",
"@@@$.@@@@",
"%%%&.%%%%",
"...*....."};
