/* XPM */
static char * title_un_xpm[] = {
"5 22 5 1",
" 	c #FBFFFF",
".	c #C9C9C9",
"+	c #B8B8B8",
"@	c #A7A7A7",
"#	c #757575",
"     ",
".....",
".....",
".....",
".....",
".....",
".....",
".....",
".....",
".....",
".....",
".....",
".....",
".....",
".....",
".....",
".....",
".....",
".....",
"+++++",
"@@@@@",
"#####"};
