/* XPM */
static char *btn-min-un[] = {
/* columns rows colors chars-per-pixel */
"17 19 17 1",
"  c #535353",
". c #BBBBBB",
"X c #C1C1C1",
"o c gray84",
"O c gray85",
"+ c #DADADA",
"@ c #DFDFDF",
"# c #E6E6E6",
"$ c #EFEFEF",
"% c #F6F6F6",
"& c #F8F8F8",
"* c #FBFBFB",
"= c #FFFFFB",
"- c gray99",
"; c #FDFDFD",
": c #FEFEFE",
"> c gray100",
/* pixels */
"=================",
">>>>>>>>>>>>>>>>>",
"&>>>>>&>>>>>>>&>>",
">>&&&&>&&&&>&&>&&",
"%%%%%%%%%%%%%%%%%",
"$$$$$$$$$$$$$$$$$",
"#################",
"@@@@@>>>>.O@@@@@#",
"OOOOO>  &..OOOOOO",
"ooooo>  >>>.OooOo",
"ooooo>    >.ooooo",
"ooooo>    &.ooooo",
"ooooo>>>&>>.ooooo",
"ooooo.......ooooo",
"ooooooooooooooooo",
"ooooooooooooooooo",
"ooooooooooooooooo",
"OOOOOOOOOOOOOOOOO",
"XXXXXXXXXXXXXXXXX"
};
