/* XPM */
static char *btn-max-un[] = {
/* columns rows colors chars-per-pixel */
"15 19 19 1",
"  c #535353",
". c #BBBBBB",
"X c #C1C1C1",
"o c gray84",
"O c gray85",
"+ c #DADADA",
"@ c #DFDFDF",
"# c #E6E6E6",
"$ c #EFEFEF",
"% c #F6F6F6",
"& c #F8F8F8",
"* c #F9F9F9",
"= c gray98",
"- c #FBFBFB",
"; c #FFFFFB",
": c gray99",
"> c #FDFDFD",
", c #FEFEFE",
"< c gray100",
/* pixels */
";;;;;;;;;;;;;;;",
"<<<<<<<<<<<<<<<",
"<<<<<<*<*<*<*<*",
"*****<*<*<*<*<*",
"%%%%%%%%%%%%%%%",
"$$$$$$$$$$$$$$$",
"###############",
"@@@@<*<*<<.@@@@",
"OOOO*    <.OOOO",
"Oooo<    <.oooo",
"oooo<<<  <.oooo",
"oooo..*  <.oooo",
"ooooo.*<*<.oooo",
"ooooo......oooo",
"ooooooooooooooo",
"ooooooooooooooo",
"ooooooooooooooo",
"OOOOOOOOOOOOOOO",
"XXXXXXXXXXXXXXX"
};
