/* XPM */
static char *title-tr-fo[] = {
/* columns rows colors chars-per-pixel */
"6 19 76 1",
"  c #4F6077",
". c #4F86A9",
"X c #5187AB",
"o c #5088AB",
"O c #5288AC",
"+ c #538AAD",
"@ c #558AAD",
"# c #548CAF",
"$ c #578CAE",
"% c #578CAF",
"& c #558CB0",
"* c #568EB1",
"= c #578FB2",
"- c #5A8FB2",
"; c #5E8EB0",
": c #5890B3",
"> c #5A90B2",
", c #5A92B5",
"< c #5F94B6",
"1 c #5E94B8",
"2 c #6292B3",
"3 c #6093B6",
"4 c #6595B6",
"5 c #6398B8",
"6 c #6698B9",
"7 c #6B91B0",
"8 c #6D92B2",
"9 c #6E94B4",
"0 c #689ABD",
"q c #689CBB",
"w c #6B9CBD",
"e c #6E9DBB",
"r c #6C9EBC",
"t c #6F9EBC",
"y c #709EBB",
"u c #72A1BE",
"i c #74A0BC",
"p c #74A3BD",
"a c #76A3C0",
"s c #78A4C0",
"d c #7CA6C0",
"f c #7BA8C1",
"g c #7FA9C3",
"h c #86ACC6",
"j c #8CB2CC",
"k c #91B7D1",
"l c #99B7D0",
"z c #9DBBD3",
"x c #9FBDD5",
"c c #C0C0C0",
"v c #D9D4D8",
"b c #DDD8DC",
"n c #DDD9DC",
"m c #E0DCE0",
"M c #E1DCE0",
"N c #E5E0E4",
"B c #E8E6E7",
"V c #ECE9EB",
"C c #EFF6FF",
"Z c #F0EEEF",
"A c #F4F2F4",
"S c #F7F6F8",
"D c #F6FBFF",
"F c #F5FEFB",
"G c #F6FCFC",
"H c #F9FBF8",
"J c #FBFBFB",
"K c #F8FDFF",
"L c #F8FFFF",
"P c #F9FFFF",
"I c #FAFDFF",
"U c #FBFEFF",
"Y c #FBFFFF",
"T c #FCFFFD",
"R c #FCFFFF",
"E c gray100",
/* pixels */
"987 CE",
"42; YE",
"-%@ DE",
"OXX YE",
".XO YE",
"o%* EE",
"*=: YJ",
",=* YS",
"<*O DA",
"%>< YZ",
"<50 YV",
"6qq DB",
"tqt DN",
"auy Ym",
"spi Fn",
"fph Dv",
"hjk En",
"lzx HM",
"    cc"
};
