/* XPM */
static char * tl_fo_xpm[] = {
"27 20 56 1",
" 	c None",
".	c #5D5B60",
"+	c #565B5E",
"@	c #FFFFFF",
"#	c #4F6077",
"$	c #6D92B2",
"%	c #6B91B0",
"&	c #6F94B3",
"*	c #6292B3",
"=	c #5E8EB0",
"-	c #578CAF",
";	c #558AAD",
">	c #5388AA",
",	c #5187AB",
"'	c #528AAD",
")	c #568EB1",
"!	c #FBFBFD",
"~	c #578FB2",
"{	c #5B91B5",
"]	c #FBFBFC",
"^	c #5890B3",
"/	c #F8F6F7",
"(	c #588EB2",
"_	c #548CAF",
":	c #FDFEF9",
"<	c #F3F2F3",
"[	c #F0EEF0",
"}	c #5A90B2",
"|	c #5F94B6",
"1	c #ECEAEC",
"2	c #6398B8",
"3	c #689ABD",
"4	c #649ABC",
"5	c #E9E5E8",
"6	c #689CBB",
"7	c #6C9EBC",
"8	c #E5E1E4",
"9	c #E0DCE0",
"0	c #6B9CBA",
"a	c #E0DCDF",
"b	c #7BA8C1",
"c	c #719FBA",
"d	c #DCD8DB",
"e	c #DCD8DC",
"f	c #76A2BC",
"g	c #D9D4D8",
"h	c #7FA9C3",
"i	c #8CB2CC",
"j	c #91B7D1",
"k	c #8EB4CC",
"l	c #9DBBD3",
"m	c #9FBDD5",
"n	c #9BB8D0",
"o	c #DBDBDB",
"p	c #D8D8D8",
"q	c #C0C0C0",
"....+...........+..........",
".@@@@@@@@@@@@@@@@@@@@@@#$%&",
".@@@@@@@@@@@@@@@@@@@@@@#*=*",
".@@@@@@@@@@@@@@@@@@@@@@#-;>",
".@@@@@@@@@@@@@@@@@@@@@@#,,,",
".@@@@@@@@@@@@@@@@@@@@@@#,')",
".!@@@@@@@@@@@@@@@@@@@@@#-~{",
".@!!]]]]]]]]]]!!]]]]!!@#)^)",
"+@////////////////////@#(_'",
".:<<<<<<<<<<<<<<<<<<<<@#)')",
".:[[[[[[[[[[[[[[[[[[[[@#}|{",
"+:11111111111111111111@#234",
".@55555555555555555555@#676",
".:88888888888888888889@#770",
".:aaaaaaaaaaaaaaaaaaaa@#bcc",
"+:dddddddddddddddeeeee@#ccf",
"+@gggggggggggggggggggg@#bhh",
"+:eeeeeeeeeeeeeeeeeeee@#ijk",
"+@aaaaaa99aa99999999aa@#lmn",
"+:opqqqqqqqqqqqqqqqqqqq####"};
