/* XPM */
static char * tl_un_bdls_xpm[] = {
"27 19 35 1",
" 	c None",
".	c #5D5B60",
"+	c #FFFFFB",
"@	c #FFFFFF",
"#	c #FBFCF7",
"$	c #F3F4EF",
"%	c #C5C6C1",
"&	c #BFBFBF",
"*	c #EAEAEA",
"=	c #FBFBFB",
"-	c #FCFCFA",
";	c #EEEEEE",
">	c #FAFAFA",
",	c #F6F6F4",
"'	c #F6F6F6",
")	c #E2E2E4",
"!	c #EFEFEF",
"~	c #E6E6E6",
"{	c #E9E9E9",
"]	c #EBEBEB",
"^	c #DFDFDF",
"/	c #DADADA",
"(	c #DBDBDB",
"_	c #D9D9D9",
":	c #D7D7D7",
"<	c #D6D6D6",
"[	c #D5D5D5",
"}	c #D8D8D8",
"|	c #C2C2C2",
"1	c #C0C0C0",
"2	c #CECECE",
"3	c #565B5E",
"4	c #D3D3D3",
"5	c #C8C8C8",
"6	c #C0BEC3",
".++++@+++@++@+++++@++#+$%@+",
".@@+@@@@@@@@@@@@@@@@@@@@&@*",
".=@+=@=@@-@-@=@=@=@=@==@&@;",
".>=@>>======>=====@=@=>+&@*",
".@,,','''''',,'''',,'',,&@)",
".@;;!!!!!!!!!!!!!!!!!!;!&@~",
".@~{~~~~~~~~~~~~~~~~~~~~&@]",
".@^)^^^^^^^^^^^^)^^^^^^)&@{",
".@/^////////////(_:(___^&@)",
".@<_<<<<<<<<<<<<:[[:[:[:&@^",
".@<}<<<<<<<<<<<<[[[:[:[[|@[",
".@[[<<<<<<<<<<<<:[[:[:[[&-)",
".@<[<<<<<<<<<<<<[:[_[_[[&@^",
".@<<<<<<<<<<<<<<:[[:[:[[|@[",
".@[}<<<<<<<<<<<<[[[:[:[[&@[",
".@[[}}[[}[[[}[}[[}[}[}[[1@2",
"3@[[[[[}[[}[}[[[[[[[[[[[1@^",
"3@_}[}[}4[_[}4_4_[[[[[}45>^",
"366666666666666666666666666"};
