/* XPM */
static char *tl-un[] = {
/* columns rows colors chars-per-pixel */
"27 20 61 1",
"  c #4D4D52525555",
". c #56565B5B5E5E",
"X c #5D5D5B5B6060",
"o c #BBBBBBBBBBBB",
"O c #BCBCBCBCBCBC",
"+ c gray74",
"@ c gray",
"# c gray75",
"$ c #C0C0C0C0C0C0",
"% c #C1C1C1C1C1C1",
"& c gray76",
"* c #C3C3C3C3C3C3",
"= c #C5C5C6C6C1C1",
"- c gray77",
"; c #C8C8C8C8C8C8",
": c #CECECECECECE",
"> c #D0D0D0D0D0D0",
", c LightGray",
"< c gray83",
"1 c #D5D5D5D5D5D5",
"2 c gray84",
"3 c #D7D7D7D7D7D7",
"4 c #D8D8D8D8D8D8",
"5 c gray85",
"6 c #DADADADADADA",
"7 c gray86",
"8 c gainsboro",
"9 c #DDDDDDDDDDDD",
"0 c #DDDDDDDDDFDF",
"q c gray87",
"w c #DFDFDFDFDFDF",
"e c gray88",
"r c #E1E1E1E1E1E1",
"t c gray89",
"y c #E2E2E2E2E4E4",
"u c #E4E4E4E4E4E4",
"i c #E6E6E6E6E6E6",
"p c #E7E7E7E7E7E7",
"a c #E9E9E9E9E9E9",
"s c #EAEAEAEAEAEA",
"d c gray92",
"f c gray93",
"g c #EEEEEEEEEEEE",
"h c #EFEFEFEFEFEF",
"j c #F3F3F4F4EFEF",
"k c gray96",
"l c #F6F6F6F6F4F4",
"z c #F6F6F6F6F6F6",
"x c gray97",
"c c #FBFBFCFCF7F7",
"v c #F9F9F9F9F9F9",
"b c gray98",
"n c #FBFBFBFBFBFB",
"m c #FCFCFCFCFAFA",
"M c #FDFDFDFDFBFB",
"N c #FEFEFFFFFAFA",
"B c #FFFFFEFEFBFB",
"V c #FFFFFFFFFBFB",
"C c #FDFDFDFDFDFD",
"Z c #FEFEFEFEFEFE",
"A c gray100",
/* pixels */
"XXXX.XX.XX.XX.XX.XX.XX.X ..",
"XVVVVAVVVAVVAVVVVVAVVcVj=AV",
"XAAVAAAAAAAAAAAAAAAAAAAA#As",
"XnAVnAnAAmAmAnAnAnAnAnnA#Ag",
"XbnAbbnnnnnnbnnnnnAnAnbV#As",
"XAllzlzzzzzzllzzzzllzzll#Ay",
"XAgghhhhhhhhhhhhhhhhhhgh#Ai",
"XAiaiiiiiiiiiiiiiiiiiiii#Ad",
"XAwywwwwwwwwwwwwywwwwwwy#Aa",
"XA6w6666666666667537555w#Ay",
"XA2522222222222231131313#Aw",
"XA2422222222222211131311&A1",
"XA1122222222222231131311#my",
"XA2122222222222213151511#Aw",
"XA2222222222222231131311&A1",
"XA1422222222222211131311#A1",
"XA1144114111414114141411$A:",
".A1111141141411111111111$Aw",
".A541414,1514,5,5111114,;bw",
".A1&&&&&#$#O&&&$#&&#$&*#O*O"
};
