/* XPM */
static char * sep_fo_xpm[] = {
"4 21 25 1",
" 	c #3F3F3F",
".	c #515F82",
"+	c #3A445F",
"@	c #272C3A",
"#	c #394564",
"$	c #3A4564",
"%	c #384261",
"&	c #394261",
"*	c #37415D",
"=	c #353F5A",
"-	c #343E57",
";	c #343D57",
">	c #323C53",
",	c #333C54",
"'	c #313A50",
")	c #323A50",
"!	c #30384D",
"~	c #2F364A",
"{	c #2F374A",
"]	c #2E3547",
"^	c #2E3546",
"/	c #2C3444",
"(	c #2C3344",
"_	c #2D3444",
":	c #4B4B4B",
"    ",
"....",
"++++",
"@@ @",
"+@ +",
"#@ $",
"%@ &",
"*@ *",
"=@ =",
"-@ ;",
">@ ,",
"'@ )",
"!@ !",
"~@ {",
"]@ ^",
"/@ (",
"(@ /",
"(@ _",
"/@ (",
"@@ @",
"::::"};
