/* XPM */
static char * tr_tbls_xpm[] = {
"6 6 7 1",
" 	c None",
".	c #000000",
"+	c #3F3F3F",
"@	c #9D9D9D",
"#	c #D9D9D9",
"$	c #FFFFFF",
"%	c #4B4B4B",
"......",
"+++++.",
"@@@@+.",
"###@+.",
"$$#@+.",
"%$#@+."};
