/* XPM */
static char * btn_maxi_un_xpm[] = {
"16 18 13 1",
" 	c None",
".	c #7D7D7D",
"+	c #F5F5F5",
"@	c #DCDCDC",
"#	c #D9D9D9",
"$	c #DFDFDF",
"%	c #000000",
"&	c #E1E1E1",
"*	c #E4E4E4",
"=	c #E7E7E7",
"-	c #EAEAEA",
";	c #EDEDED",
">	c #F0F0F0",
"                ",
"                ",
"                ",
"  ............  ",
"  .++++++++++.  ",
"  .+@@@@@@@@#.  ",
"  .+$%%%%%%$#.  ",
"  .+&%%%%%%&#.  ",
"  .+*%****%*#.  ",
"  .+=%====%=#.  ",
"  .+-%----%-#.  ",
"  .+;%%%%%%;#.  ",
"  .+>>>>>>>>#.  ",
"  .+#########.  ",
"  ............  ",
"                ",
"                ",
"                "};
