/* XPM */
static char * btn_close_fo_xpm[] = {
"12 18 13 1",
" 	c None",
".	c #656565",
"+	c #CCCCCC",
"@	c #AFAFAF",
"#	c #ADADAD",
"$	c #B1B1B1",
"%	c #000000",
"&	c #B5B5B5",
"*	c #B8B8B8",
"=	c #BBBBBB",
"-	c #BEBEBE",
";	c #C2C2C2",
">	c #C5C5C5",
"            ",
"            ",
"            ",
"............",
".++++++++++.",
".+@@@@@@@@#.",
".+$%%$$%%$#.",
".+&%%%%%%&#.",
".+**%%%%**#.",
".+==%%%%==#.",
".+-%%%%%%-#.",
".+;%%;;%%;#.",
".+>>>>>>>>#.",
".+#########.",
"............",
"            ",
"            ",
"            "};
