/* XPM */
static char * b_b_xpm[] = {
"6 6 5 1",
" 	c None",
".	c #000000",
"+	c #CCCCCC",
"@	c #C7C7C7",
"#	c #ADADAD",
"......",
"++++++",
"@@@@@@",
"@@@@@@",
"######",
"......"};
