/* XPM */
static char * b_rct_xpm[] = {
"6 6 5 1",
" 	c None",
".	c #000000",
"+	c #ADADAD",
"@	c #C7C7C7",
"#	c #CCCCCC",
"......",
"+++++.",
"@@@@+.",
"@@@@+.",
"#@@@+.",
".@@@+."};
