/* XPM */
static char * b_rc_xpm[] = {
"6 6 5 1",
" 	c None",
".	c #000000",
"+	c #C7C7C7",
"@	c #ADADAD",
"#	c #CCCCCC",
".+++@.",
"#+++@.",
"++++@.",
"++++@.",
"@@@@@.",
"......"};
