/* XPM */
static char * btn_mini_fo_xpm[] = {
"12 18 11 1",
" 	c #000000",
".	c #C0C4C0",
"+	c #A8A8A8",
"@	c #606060",
"#	c #A8ACA8",
"$	c #A8B0A8",
"%	c #B0B0B0",
"&	c #B0B4B0",
"*	c #B8B8B8",
"=	c #B8BCB8",
"-	c #C0C0C0",
"            ",
"............",
"++++++++++++",
"@@@@@@@@@@@@",
"@..........@",
"@.+++++++++@",
"@.########+@",
"@.$$$$$$$$+@",
"@.%%%%%%%%+@",
"@.&&&&&&&&+@",
"@.*     **+@",
"@.=     ==+@",
"@.--------+@",
"@.+++++++++@",
"@@@@@@@@@@@@",
"============",
"++++++++++++",
"            "};
