/* XPM */
static char * btn_mini_un_xpm[] = {
"12 18 11 1",
" 	c #000000",
".	c #F0F0F0",
"+	c #D8D8D8",
"@	c #787C78",
"#	c #D0D4D0",
"$	c #D8DCD8",
"%	c #E0E0E0",
"&	c #E0E4E0",
"*	c #E0E8E0",
"=	c #E8E8E8",
"-	c #E8ECE8",
"            ",
"............",
"++++++++++++",
"@@@@@@@@@@@@",
"@..........@",
"@.++++++++#@",
"@.$$$$$$$$#@",
"@.$$$$$$$$#@",
"@.%%%%%%%%#@",
"@.&&&&&&&&#@",
"@.*     **#@",
"@.=     ==#@",
"@.--------#@",
"@.#########@",
"@@@@@@@@@@@@",
"------------",
"############",
"            "};
