/* XPM */
static char * btn_maxi_fo_xpm[] = {
"16 18 12 1",
" 	c #000000",
".	c #C0C4C0",
"+	c #A8A8A8",
"@	c #A8ACA8",
"#	c #606060",
"$	c #A8B0A8",
"%	c #B0B0B0",
"&	c #B0B4B0",
"*	c #B8B8B8",
"=	c #B0B8B0",
"-	c #B8BCB8",
";	c #C0C0C0",
"                ",
"................",
"++++++++++++++++",
"@@############@@",
"@@#..........#@@",
"$$#.+++++++++#$$",
"$$#.@      @+#$$",
"%%#.$      $+#%%",
"%%#.% %%%% %+#%%",
"&&#.& &&&& &+#&&",
"&&#.* **** *+#&&",
"==#.-      -+#==",
"**#.;;;;;;;;+#**",
"--#.+++++++++#--",
"--############--",
"----------------",
"++++++++++++++++",
"                "};
