/* XPM */
static char * right_fo_xpm[] = {
"5 18 19 1",
" 	c None",
".	c #000000",
"+	c #CCCCCC",
"@	c #AFAFAF",
"#	c #ADADAD",
"$	c #B0B0B0",
"%	c #B1B1B1",
"&	c #B4B4B4",
"*	c #B5B5B5",
"=	c #B7B7B7",
"-	c #B8B8B8",
";	c #B9B9B9",
">	c #BBBBBB",
",	c #BCBCBC",
"'	c #BEBEBE",
")	c #C1C1C1",
"!	c #C2C2C2",
"~	c #C5C5C5",
"{	c #C6C6C6",
".....",
"++++.",
"@@@#.",
"$$$#.",
"%%%#.",
"&&&#.",
"***#.",
"===#.",
"---#.",
";;;#.",
">>>#.",
",,,#.",
"'''#.",
")))#.",
"!!!#.",
"!!!#.",
"#~~#.",
"{{{#."};
