/* XPM */
static char * right_un_xpm[] = {
"5 18 19 1",
" 	c None",
".	c #000000",
"+	c #F5F5F5",
"@	c #DCDCDC",
"#	c #D9D9D9",
"$	c #DDDDDD",
"%	c #DFDFDF",
"&	c #E0E0E0",
"*	c #E1E1E1",
"=	c #E3E3E3",
"-	c #E4E4E4",
";	c #E6E6E6",
">	c #E7E7E7",
",	c #E9E9E9",
"'	c #EAEAEA",
")	c #EBEBEB",
"!	c #EDEDED",
"~	c #EEEEEE",
"{	c #F0F0F0",
".....",
"++++.",
"@@@#.",
"$$$#.",
"%%%#.",
"&&&#.",
"***#.",
"===#.",
"---#.",
";;;#.",
">>>#.",
",,,#.",
"'''#.",
")))#.",
"!!!#.",
"~~~#.",
"#{{#.",
"+++#."};
