/* XPM */
static char *b-bottom-r2[] = {
/* columns rows colors chars-per-pixel */
"5 5 2 1",
"  c gray60",
". c #EEEEEEEEEEEE",
/* pixels */
" ... ",
".... ",
".... ",
".... ",
"     "
};
