/* XPM */
static char *b-top-l2[] = {
/* columns rows colors chars-per-pixel */
"5 5 2 1",
"  c gray60",
". c #EEEEEEEEEEEE",
/* pixels */
"     ",
" ....",
" ....",
" ....",
" ... "
};
