/* XPM */
static char * bd_b_xpm[] = {
"1 6 2 1",
" 	c #000000",
".	c #898C6E",
" ",
".",
".",
".",
".",
" "};
