/* XPM */
static char * close_un_xpm[] = {
"18 20 3 1",
" 	c #DCD9C8",
".	c #B9B7A7",
"+	c #000000",
"                  ",
"                  ",
"                  ",
"                  ",
"                  ",
"                  ",
"                  ",
"     ..  ..       ",
"     ......       ",
"      ....        ",
"      ....        ",
"     ......       ",
"     ..  ..       ",
"                  ",
"                  ",
"                  ",
"                  ",
"                  ",
"                  ",
"++++++++++++++++++"};
