/* XPM */
static char * corner_un_xpm[] = {
"23 6 2 1",
" 	c #000000",
".	c #DEDBCA",
"                       ",
" ..................... ",
" ..................... ",
" ..................... ",
" ..................... ",
"                       "};
