/* XPM */
static char * corner_xpm[] = {
"23 6 2 1",
" 	c #000000",
".	c #898C6E",
"                       ",
" ..................... ",
" ..................... ",
" ..................... ",
" ..................... ",
"                       "};
