/* XPM */
static char * min_un_xpm[] = {
"16 20 6 1",
" 	c #DDDAC9",
".	c #DCDAC9",
"+	c #B9B7A7",
"@	c #DCD9C8",
"#	c #090909",
"$	c #080808",
"                ",
"                ",
"                ",
"                ",
"                ",
"                ",
"                ",
"            .   ",
".               ",
"      .  .  .   ",
"     ..         ",
"     ++++++     ",
"     ++++++     ",
"                ",
"                ",
"@@@@@@@@@@@@@@@@",
"                ",
"                ",
"                ",
"###############$"};
