/* XPM */
static char * title_un_xpm[] = {
"1 20 4 1",
" 	c #DDDAC9",
".	c #DCDAC9",
"+	c #DCD9C8",
"@	c #090909",
" ",
" ",
" ",
" ",
" ",
" ",
" ",
".",
" ",
".",
" ",
" ",
" ",
" ",
" ",
"+",
" ",
" ",
" ",
"@"};
