/* XPM */
static char * btn_mini_fo_xpm[] = {
"14 16 4 1",
" 	c None",
".	c #000000",
"+	c #97ADC3",
"@	c #F0F0F0",
"..............",
"++++++++++++++",
"++++++++++++++",
"++++++++++++++",
"+++++@@++@@+++",
"+++++@@++@@+++",
"++++++++++++++",
"++++++++++++++",
"+++++@@++@@+++",
"+++++@@++@@+++",
"++++++++++++++",
"++++++++++++++",
"++++++++++++++",
"++++++++++++++",
"++++++++++++++",
".............."};
