/* XPM */
static char * btn_close_un_xpm[] = {
"14 16 3 1",
" 	c None",
".	c #000000",
"+	c #F0F0F0",
"..............",
"++++++++++++++",
"++++++++++++++",
"++++++++++++++",
"++++++++++++++",
"++++++++++++++",
"++++++++++++++",
"++++++++++++++",
"++++++++++++++",
"++++++++++++++",
"++++++++++++++",
"++++++++++++++",
"++++++++++++++",
"++++++++++++++",
"++++++++++++++",
".............."};
