/* XPM */
static char * btn_maxi_fo_xpm[] = {
"10 16 4 1",
" 	c None",
".	c #000000",
"+	c #97ADC3",
"@	c #F0F0F0",
"..........",
"++++++++++",
"++++++++++",
"++++++++++",
"+++@@@@@++",
"+++@+++@++",
"++@@@@+@++",
"++@++@+@++",
"++@++@@@++",
"++@@@@++++",
"++++++++++",
"++++++++++",
"++++++++++",
"++++++++++",
"++++++++++",
".........."};
