/* XPM */
static char * sep_fo_xpm[] = {
"3 16 3 1",
" 	c None",
".	c #000000",
"+	c #97ADC3",
"...",
"+.+",
"+.+",
"+.+",
"+.+",
"+.+",
"+.+",
"+.+",
"+.+",
"+.+",
"+.+",
"+.+",
"+.+",
"+.+",
"+.+",
"..."};
