/* XPM */
static char * win_fo_xpm[] = {
"1 16 3 1",
" 	c None",
".	c #000000",
"+	c #97ADC3",
".",
"+",
"+",
"+",
"+",
"+",
"+",
"+",
"+",
"+",
"+",
"+",
"+",
"+",
"+",
"."};
