/* XPM */
static char * sep_fo_xpm[] = {
"6 18 53 1",
" 	c None",
".	c #F6F9FA",
"+	c #F4F7F7",
"@	c #BBBCBC",
"#	c #C2C4C4",
"$	c #F8FBFB",
"%	c #E1E0E0",
"&	c #D5D4D5",
"*	c #9B9B9B",
"=	c #C4C4C4",
"-	c #EAE9E9",
";	c #DEDEDE",
">	c #D3D3D3",
",	c #E8E8E8",
"'	c #DDDDDD",
")	c #D2D2D2",
"!	c #E6E6E6",
"~	c #DBDBDB",
"{	c #D1D1D1",
"]	c #E5E5E5",
"^	c #DADADA",
"/	c #D9D9D9",
"(	c #CFCFCF",
"_	c #E4E4E4",
":	c #D7D7D7",
"<	c #CECECE",
"[	c #E2E2E2",
"}	c #D5D5D5",
"|	c #CDCDCD",
"1	c #E1E1E1",
"2	c #D4D4D4",
"3	c #CCCCCC",
"4	c #E0E0E0",
"5	c #CBCBCB",
"6	c #DFDFDF",
"7	c #D0D0D0",
"8	c #C9C9C9",
"9	c #C8C8C8",
"0	c #DCDCDC",
"a	c #C6C6C6",
"b	c #CACACA",
"c	c #C5C5C5",
"d	c #C1C1C1",
"e	c #BEBEBE",
"f	c #9B9B9A",
"g	c #B1B1B1",
"h	c #ADADAD",
"i	c #ACACAC",
"j	c #939392",
"k	c #959595",
"l	c #7E7E7E",
"m	c #7A7A79",
"n	c #7A7A7A",
".+@#$.",
"%&*=-%",
";>*=,;",
"')*=!'",
"~{*=]~",
"^{*=]^",
"/(*=_/",
":<*=[:",
"}|*=1}",
"23*=42",
")5*=6)",
"78*='7",
"<9*=0<",
"3a*=~3",
"bc*=/b",
"defgbd",
"hijkhh",
"llmnll"};
