/* XPM */
static char * title_un_xpm[] = {
"5 18 5 1",
" 	c #EAECEC",
".	c #C9C9C9",
"+	c #C1C1C1",
"@	c #ADADAD",
"#	c #7E7E7E",
"     ",
".....",
".....",
".....",
".....",
".....",
".....",
".....",
".....",
".....",
".....",
".....",
".....",
".....",
".....",
"+++++",
"@@@@@",
"#####"};
