/* XPM */
static char * bd_t_tbls_xpm[] = {
"5 4 3 1",
" 	c None",
".	c #ACACAC",
"+	c #F6F6F6",
".....",
"+++++",
"+++++",
"+++++"};
