/* XPM */
static char *btn-menu-fo.png[] = {
/* columns rows colors chars-per-pixel */
"20 23 127 2",
"   c #393939",
".  c #3C3C3C",
"X  c #3D3C3C",
"o  c gray24",
"O  c #3E3E3E",
"+  c #434343",
"@  c gray27",
"#  c #474647",
"$  c gray29",
"%  c #4B4B4B",
"&  c #4C4C4C",
"*  c gray30",
"=  c #4E4E4E",
"-  c #505050",
";  c #515151",
":  c gray32",
">  c gray33",
",  c #585858",
"<  c gray35",
"1  c #5A5A5A",
"2  c gray36",
"3  c #5D5D5D",
"4  c #5F5F5F",
"5  c #646464",
"6  c gray42",
"7  c #717171",
"8  c #747474",
"9  c gray46",
"0  c #767676",
"q  c #777777",
"w  c gray47",
"e  c #797979",
"r  c gray49",
"t  c #7E7E7E",
"y  c #818181",
"u  c #838383",
"i  c gray52",
"p  c gray55",
"a  c #8D8D8D",
"s  c #8E8E8E",
"d  c gray56",
"f  c gray57",
"g  c #929292",
"h  c #939393",
"j  c gray58",
"k  c #979797",
"l  c gray60",
"z  c #9A9A9A",
"x  c #9B9B9B",
"c  c #9D9D9D",
"v  c gray62",
"b  c #9F9E9F",
"n  c #A0A0A0",
"m  c #A4A4A4",
"M  c #A5A5A5",
"N  c gray65",
"B  c #A7A6A7",
"V  c #A7A7A7",
"C  c gray66",
"Z  c #AAAAAA",
"A  c #ABAAAB",
"S  c #ACACAC",
"D  c gray68",
"F  c #AEAEAE",
"G  c #B2B2B2",
"H  c gray70",
"J  c #B4B4B4",
"K  c gray71",
"L  c #B6B6B6",
"P  c #B7B6B7",
"I  c gray72",
"U  c #BFBEBF",
"Y  c gray75",
"T  c #C0C0C0",
"R  c #C3C2C3",
"E  c #C4C3C4",
"W  c #C6C5C6",
"Q  c #C6C6C6",
"!  c gray78",
"~  c #CACACA",
"^  c gray80",
"/  c #CDCDCD",
"(  c #CECECE",
")  c #D0D0D0",
"_  c gray82",
"`  c #D2D2D2",
"'  c LightGray",
"]  c gray83",
"[  c #D5D5D5",
"{  c gray84",
"}  c #D7D7D7",
"|  c #D8D7D8",
" . c #D8D8D8",
".. c #D9D8D9",
"X. c gray85",
"o. c #DADADA",
"O. c #DBDADB",
"+. c #DCDBDC",
"@. c gainsboro",
"#. c #DDDCDD",
"$. c #DDDDDD",
"%. c gray87",
"&. c #DFDEDF",
"*. c #DFDFDF",
"=. c gray88",
"-. c #E1E0E1",
";. c #E1E1E1",
":. c gray89",
">. c #E4E3E4",
",. c #E4E4E4",
"<. c gray90",
"1. c #E7E6E7",
"2. c #E7E7E7",
"3. c #E8E7E8",
"4. c #E9E8E9",
"5. c #E9E9E9",
"6. c #EAE9EA",
"7. c #EAEAEA",
"8. c #ECEBEC",
"9. c #ECECEC",
"0. c #EDECED",
"q. c #EEEDEE",
"w. c #F0EFF0",
"e. c #F2F1F2",
"r. c #F4F3F4",
"t. c #F6F5F6",
"y. c #F8F7F8",
/* pixels */
"y.y.y.y.y.y.y.y.y.y.y.y.y.y.y.y.y.y.y.y.",
"t.t.t.t.t.t.t.t.t.t.t.t.t.t.t.t.t.t.t.t.",
"r.r.r.r.r.r.r.r.r.r.r.r.r.r.r.r.r.r.r.r.",
"e.e.e.e.e.e.e.e.e.e.e.e.e.e.e.e.e.e.e.e.",
"w.w.w.w.w.w.w.w.*.W T %.w.w.w.w.w.w.w.w.",
"q.q.q.q.q.q.B $ . 1 3 . # b q.q.q.q.q.q.",
"8.8.8.8.<.3 > T 2.9.q.6.W 5 : <.8.8.8.8.",
"6.6.6.6.2 6 ] ............] w : 3.6.6.6.",
"2.2.2.v + I Q Q Q Q Q Q Q Q Y & f 3.2.2.",
"<.<.2.@ 8 H H H H H H H H H H r O <.<.<.",
":.:.`   w l v n n n n n n n v w O ~ <.=.",
"=.=.K & 9 y p s j k k h s p y w : A =.&.",
"*.%.W > w w u b S H H S b i w w 1 Y %.%.",
"%.%.%.5 w u C I I I I I K N y 0 3 %.%.%.",
"+...| y 8 j K I I I I I I K f 9 w ..o.o.",
"....} / & h K I I I I I I H f * Q { .. .",
"] ] ] ..b 2 B H I I I I I m 4 s o.{ { { ",
"] ] ] ] %.l * f N D D C h * s *.` ] ] ] ",
"] _ _ _ _ @.] w : : : - 7 ` *.` ` ` ` ` ",
"_ _ _ _ ) ) ) *.9.6.6.q.=.( ( ) _ ) ) ) ",
"( / ( / / / ( ( / ( ( / ( / ( / ( ( ( ( ",
"/ ^ / ^ / ^ ^ / ^ ^ / ^ / ^ / ^ ^ ^ ^ ^ ",
"Z Z Z Z Z Z Z Z Z Z Z Z Z Z Z Z Z Z Z Z "
};
