/* XPM */
static char *win-fo.png[] = {
/* columns rows colors chars-per-pixel */
"6 23 23 1",
"  c #AAAAAA",
". c gray80",
"X c #CECECE",
"o c #D0D0D0",
"O c #D2D2D2",
"+ c gray83",
"@ c gray84",
"# c #D8D8D8",
"$ c #DBDADB",
"% c #DDDCDD",
"& c #DFDEDF",
"* c #E1E0E1",
"= c gray89",
"- c gray90",
"; c #E7E7E7",
": c #EAE9EA",
"> c #ECEBEC",
", c #EEEDEE",
"< c #F0EFF0",
"1 c #F2F1F2",
"2 c #F4F3F4",
"3 c #F6F5F6",
"4 c #F8F7F8",
/* pixels */
"444444",
"333333",
"222222",
"111111",
"<<<<<<",
",,,,,,",
">>>>>>",
"::::::",
";;;;;;",
"------",
"======",
"******",
"&&&&&&",
"%%%%%%",
"#%%##%",
"######",
"@@@@@@",
"+@++++",
"OOOOOO",
"oooooo",
"XXXXXX",
"......",
"      "
};
