/* XPM */
static char * title_decor_fo_xpm[] = {
"7 21 26 1",
" 	c #3F3F3F",
".	c #F9F9F9",
"+	c #A0A0A0",
"@	c #A6A6A6",
"#	c #FFFFFF",
"$	c #B1B1B1",
"%	c #C5C5C5",
"&	c #C7C7C7",
"*	c #C9C9C9",
"=	c #CBCBCB",
"-	c #CECECE",
";	c #D0D0D0",
">	c #D2D2D2",
",	c #D4D4D4",
"'	c #D6D6D6",
")	c #D9D9D9",
"!	c #DBDBDB",
"~	c #DDDDDD",
"{	c #DFDFDF",
"]	c #E2E2E2",
"^	c #E7E6E6",
"/	c #E4E4E4",
"(	c #E4E5E5",
"_	c #E2E3E3",
":	c #D8D8D8",
"<	c #4B4B4B",
"       ",
".+ @###",
"$+ @%%%",
"++ @&&&",
"+ @****",
"+ @====",
"+ @----",
"+ @;;;;",
"+ @>>>>",
"+ @,,,,",
"+ @''''",
"+ @))))",
"+ @!!!!",
"+ @~~~~",
"+ @{{{{",
"+ @]]]]",
"^+ @///",
"(+ @###",
"_+ @:::",
"++ @@@@",
"<<<<<<<"};
