/* XPM */
static char * tl_fo_xpm[] = {
"6 22 23 1",
" 	c #000000",
".	c #3F3F3F",
"+	c #F9F9F9",
"@	c #B1B1B1",
"#	c #A0A0A0",
"$	c #F1F0F1",
"%	c #F1F1F1",
"&	c #EFEFEF",
"*	c #EFF0EF",
"=	c #EDEDED",
"-	c #ECECEB",
";	c #EAE9E9",
">	c #E9EAEA",
",	c #E8E8E8",
"'	c #E8E8E7",
")	c #E6E5E6",
"!	c #E6E6E6",
"~	c #E4E4E4",
"{	c #E2E2E2",
"]	c #E3E2E3",
"^	c #E1E1E1",
"/	c #403D3D",
"(	c #4B4B4B",
"      ",
" .....",
" .++++",
" .@@@@",
" .####",
" .@@@@",
" .+$$%",
" .+&&*",
" .+===",
" .+---",
" .+;;>",
" .+,,'",
" .+))!",
" .+~~~",
" .+{{]",
" .+^^^",
" .+^^^",
" .+^^^",
" .+^^^",
" .+^^^",
" .+###",
" .///("};
