/* XPM */
static char * tl_un_xpm[] = {
"6 22 32 1",
" 	c #000000",
".	c #3F3F3F",
"+	c #B7B7B7",
"@	c #919191",
"#	c #666666",
"$	c #A1A1A1",
"%	c #9F9F9F",
"&	c #9E9E9F",
"*	c #9C9C9C",
"=	c #99999A",
"-	c #9A9999",
";	c #979797",
">	c #979696",
",	c #949494",
"'	c #949493",
")	c #8E8E8F",
"!	c #8F8E8F",
"~	c #8B8C8B",
"{	c #8C8C8C",
"]	c #898A89",
"^	c #898989",
"/	c #878687",
"(	c #878786",
"_	c #848484",
":	c #848483",
"<	c #828282",
"[	c #818181",
"}	c #7F7F80",
"|	c #7F7F7F",
"1	c #7F7F7E",
"2	c #403D3D",
"3	c #4B4B4B",
"      ",
" .....",
" .++++",
" .@@@@",
" .####",
" .@@@@",
" .+$$$",
" .+%&%",
" .+***",
" .+=-=",
" .+;>;",
" .+,',",
" .+@@@",
" .+)!)",
" .+~{~",
" .+]^]",
" .+/(/",
" .+_:_",
" .+<<[",
" .+}|1",
" .+###",
" .2223"};
