/* XPM */
static char *bottom.png[] = {
/* columns rows colors chars-per-pixel */
"2 7 2 1",
"  c gray32",
". c #EFEFEF",
/* pixels */
"  ",
"..",
"..",
"..",
"..",
"..",
"  "
};
