/* XPM */
static char *btn-close-un.png[] = {
/* columns rows colors chars-per-pixel */
"11 20 37 1",
"  c gray32",
". c #B3B3B4",
"X c gray78",
"o c gray79",
"O c #CACBCA",
"+ c #CACBCB",
"@ c #CBCBCA",
"# c #CBCBCB",
"$ c #CDCDCC",
"% c #CDCDCD",
"& c #CECFCE",
"* c #CECFCF",
"= c #CFCFCE",
"- c #D0D1D1",
"; c gray82",
": c #D2D3D2",
"> c #D3D3D2",
", c #D4D5D5",
"< c #D6D7D7",
"1 c #D8D9D8",
"2 c #DADBDA",
"3 c #DCDDDC",
"4 c #DCDDDD",
"5 c #DEDFDE",
"6 c #DFDFDE",
"7 c #E0E1E0",
"8 c #E0E1E1",
"9 c #E1E1E0",
"0 c #E2E3E2",
"q c #E4E5E4",
"w c gray90",
"e c #E6E7E6",
"r c #E7E7E6",
"t c #E8E9E8",
"y c #E9E9E9",
"u c #EAEBEA",
"i c #F4F3F2",
/* pixels */
"uuuuuuuuuuu",
"urruttttttu",
"eeeeeeeeeee",
"qqqqqqqqqqe",
"00000000000",
"7777    880",
"555 iiii 55",
"33 iiiiii 2",
"2 iii..iii ",
"1 ii....ii ",
"< ii....ii ",
", iii..iii ",
">; iiiiii >",
";;; iiii ;;",
"$***    ***",
"$*$*@*#*#*#",
"@@#########",
"X@X@@XX@X@@",
"XXXXXXXXXXX",
"           "
};
