/* XPM */
static char *tr-fo_sq.png[] = {
/* columns rows colors chars-per-pixel */
"9 21 42 1",
"  c gray32",
". c #B3BBC7",
"X c #B5BCC9",
"o c #B6BECB",
"O c #B7C0CD",
"+ c #B8C0CC",
"@ c #B8C0CD",
"# c #B9C2CE",
"$ c #BAC2CE",
"% c #BAC2CF",
"& c #BBC4D0",
"* c #BBC4D1",
"= c #BCC4D0",
"- c #BCC4D1",
"; c #BDC6D2",
": c #BDC6D3",
"> c #BEC8D5",
", c #BFC8D4",
"< c #BFC8D5",
"1 c #C1CAD6",
"2 c #C1CAD7",
"3 c #C2CBD8",
"4 c #C3CBD9",
"5 c #C4CDDB",
"6 c #C5CDDA",
"7 c #C5CDDB",
"8 c #C6CFDC",
"9 c #C6CFDD",
"0 c #C7D1DF",
"q c #C8D1DE",
"w c #C8D1DF",
"e c #C9D3E0",
"r c #C9D3E1",
"t c #CAD3E1",
"y c #CBD5E2",
"u c #CCD5E2",
"i c #CDD7E4",
"p c #CFD9E6",
"a c #D0DAE8",
"s c #D0DAE9",
"d c #D2DCEA",
"f c #D2DCEB",
/* pixels */
"         ",
"ddddffff ",
"sssspsdp ",
"pppppppp ",
"iipiiipi ",
"wipwiwyy ",
"wwwiwwyw ",
"wwww0www ",
"55058880 ",
"58844885 ",
"44444444 ",
"11111111 ",
">1:>>;>> ",
";::;;;;> ",
"%;;%;;;# ",
"%%%%#### ",
"%oo%o%o% ",
"oooooooo ",
"o.o.XXXX ",
".......X ",
"         "
};
