/* XPM */
static char * b_corner_fo_xpm[] = {
"29 6 11 1",
" 	c #465774",
".	c #E2FDFF",
"+	c #707E94",
"@	c #D8F4FF",
"#	c #90A3C2",
"$	c #6C7991",
"%	c #C3E2FF",
"&	c #8297B8",
"*	c #61708A",
"=	c #AFD0FF",
"-	c #576782",
"                             ",
" ..........................+ ",
" @#########################$ ",
" %&&&&&&&&&&&&&&&&&&&&&&&&&* ",
" =-------------------------- ",
"                             "};
