/* XPM */
static char * bottom_xpm[] = {
"15 6 2 1",
" 	c #465774",
".	c #EDEAE4",
"               ",
"...............",
"...............",
"...............",
"...............",
"               "};
