/* XPM */
static char * br_un_xpm[] = {
"29 6 2 1",
" 	c #465774",
".	c #EDEAE4",
"                             ",
"............................ ",
"............................ ",
"............................ ",
"............................ ",
"                             "};
