/* XPM */
static char * btn_max_pr_xpm[] = {
"15 19 22 1",
" 	c #E2FDFF",
".	c #95A7C5",
"+	c #92A5C3",
"@	c #8FA2C1",
"#	c #4C5E7C",
"$	c #8C9FBF",
"%	c #A3A09B",
"&	c #899DBD",
"*	c #869ABA",
"=	c #EBE8E3",
"-	c #8397B8",
";	c #8095B6",
">	c #7D92B4",
",	c #7A8FB1",
"'	c #778DAF",
")	c #748AAD",
"!	c #7187AB",
"~	c #6E85A9",
"{	c #6B82A6",
"]	c #687FA4",
"^	c #4B5D79",
"/	c #465774",
"               ",
"...............",
"+++++++++++++++",
"@############@@",
"$#%%%%%%%%%%#$$",
"&#%%%%%%%%%%#&&",
"*#%%%%====%%#**",
"-#%%%%%===%%#--",
";#%%=%%%==%%#;;",
">#%%==%%%=%%#>>",
",#%%===%%%%%#,,",
"'#%%====%%%%#''",
")#%%%%%%%%%%#))",
"!#%%%%%%%%%%#!!",
"~############~~",
"{{{{{{{{{{{{{{{",
"]]]]]]]]]]]]]]]",
"^^^^^^^^^^^^^^^",
"///////////////"};
