/* XPM */
static char * tl_fo_xpm[] = {
"2 20 19 1",
" 	c #465774",
".	c #E2FDFF",
"+	c #DFFAFF",
"@	c #DBF7FF",
"#	c #D6F3FF",
"$	c #D2EEFF",
"%	c #CDEBFF",
"&	c #C9E7FF",
"*	c #C4E2FF",
"=	c #C0DFFF",
"-	c #BBDBFF",
";	c #B7D6FF",
">	c #B2D3FF",
",	c #AECFFF",
"'	c #A9CAFF",
")	c #A5C7FD",
"!	c #A0C3F9",
"~	c #9CBEF6",
"{	c #97BBF3",
"  ",
" .",
" +",
" @",
" #",
" $",
" %",
" &",
" *",
" =",
" -",
" ;",
" >",
" ,",
" '",
" )",
" !",
" ~",
" {",
"  "};
