/* XPM */
static char * tl_un_xpm[] = {
"2 20 17 1",
" 	c #465774",
".	c #FFFFFF",
"+	c #FCFFFF",
"@	c #F9FFFF",
"#	c #F4FFFF",
"$	c #F0FFFF",
"%	c #EDFCFF",
"&	c #E8F7FF",
"*	c #E5F4FF",
"=	c #E1F0FF",
"-	c #DEEDFF",
";	c #D9E8FF",
">	c #D6E5FF",
",	c #D2E2FD",
"'	c #CDDEF9",
")	c #CADBF6",
"!	c #C6D6F3",
"  ",
" .",
" .",
" .",
" +",
" @",
" #",
" $",
" %",
" &",
" *",
" =",
" -",
" ;",
" >",
" ,",
" '",
" )",
" !",
"  "};
