/* XPM */
static char * top_tbls_xpm[] = {
"3 6 5 1",
" 	c #465774",
".	c #E2FDFF",
"+	c #90A3C2",
"@	c #8297B8",
"#	c #576782",
"   ",
"...",
"+++",
"@@@",
"###",
"   "};
