/* XPM */
static char * tr_fo_xpm[] = {
"2 20 19 1",
" 	c #465774",
".	c #707E94",
"+	c #6F7C93",
"@	c #6D7B91",
"#	c #6A7990",
"$	c #69768E",
"%	c #66758D",
"&	c #64738B",
"*	c #61708A",
"=	c #606F88",
"-	c #5D6D87",
";	c #5B6A84",
">	c #586982",
",	c #576781",
"'	c #54647F",
")	c #52637E",
"!	c #4F617C",
"~	c #4E5E7B",
"{	c #4B5D79",
"  ",
". ",
"+ ",
"@ ",
"# ",
"$ ",
"% ",
"& ",
"* ",
"= ",
"- ",
"; ",
"> ",
", ",
"' ",
") ",
"! ",
"~ ",
"{ ",
"  "};
