/* XPM */
static char * tr_tbls_xpm[] = {
"2 6 5 1",
" 	c #465774",
".	c #707E94",
"+	c #6C7991",
"@	c #61708A",
"#	c #576782",
"  ",
". ",
"+ ",
"@ ",
"# ",
"  "};
