/* XPM */
static char *btn-min-fo.png[] = {
/* columns rows colors chars-per-pixel */
"14 16 10 1",
"  c black",
". c #424142",
"X c #A5A2A5",
"o c #A5A6A5",
"O c #ADAAAD",
"+ c #B5B2B5",
"@ c #C6C7C6",
"# c #DEDFDE",
"$ c gray97",
"% c gray100",
/* pixels */
"%%%%%%%%%%%%%%",
"oooooooooooooo",
"##############",
"##############",
"##############",
"##############",
"##############",
"###$$$$$######",
"####.....#####",
"####+XXXX@####",
"##############",
"##############",
"##############",
"OOOOOOOOOOOOOO",
"##############",
"              "
};
