/* XPM */
static char *btn-close-pr.png[] = {
/* columns rows colors chars-per-pixel */
"13 16 9 1",
"  c black",
". c #424142",
"X c #A5A6A5",
"o c #ADAAAD",
"O c #B5B2B5",
"+ c #C6C7C6",
"@ c #DEDFDE",
"# c gray97",
"$ c gray100",
/* pixels */
"$$$$$$$$$$$$$",
"XXXXXXXXXXXXX",
"@@@@@@@@@@@@@",
"@@@@@@@@@@@@@",
"@@@+O@@+O@@@@",
"@@@@.O+O.@@@@",
"@@@@@.O.@#@@@",
"@@@@+O.O#@@@@",
"@@@+O.@.O@@@@",
"@@@@.@#@.@@@@",
"@@@@@#@@@#@@@",
"@@@@@@@@@@@@@",
"@@@@@@@@@@@@@",
"ooooooooooooo",
"@@@@@@@@@@@@@",
"             "
};
