/* XPM */
static char *sep-fo.png[] = {
/* columns rows colors chars-per-pixel */
"7 16 29 1",
"  c black",
". c #425463",
"X c #7D91A2",
"o c #8094A5",
"O c #8497A7",
"+ c #8397A8",
"@ c #8497A8",
"# c #869AAA",
"$ c #879AAA",
"% c #879AAB",
"& c #8A9DAD",
"* c #8A9EAD",
"= c #8A9EAE",
"- c #8DA0B0",
"; c #8DA1B1",
": c #90A3B3",
"> c #91A3B3",
", c #90A3B4",
"< c #93A6B6",
"1 c #93A7B6",
"2 c #94A6B6",
"3 c #94A7B6",
"4 c #97A9B9",
"5 c #97A9BA",
"6 c #9AACBC",
"7 c #9AADBC",
"8 c #9BADBC",
"9 c #D6D3D6",
"0 c gray100",
/* pixels */
"0000000",
".......",
"666.866",
"666.866",
"444.444",
"131.133",
">>>.>;>",
";;;.--;",
"===.===",
"%%%.###",
"OO#.OO#",
"XXX.OXX",
"XXX.XXX",
".......",
"9999999",
"       "
};
