/* XPM */
static char *title-btn-sep-un.png[] = {
/* columns rows colors chars-per-pixel */
"5 16 6 1",
"  c black",
". c #5A6563",
"X c #B3B7B5",
"o c #BDBEBD",
"O c #D6D3D6",
"+ c gray100",
/* pixels */
"+++++",
"... o",
"XXX +",
"XXX +",
"XXX +",
"XXX +",
"XXX +",
"XXX +",
"XXX +",
"XXX +",
"XXX +",
"XXX +",
"XXX +",
"... o",
"OOOOO",
"     "
};
