/* XPM */
static char *tr.png[] = {
/* columns rows colors chars-per-pixel */
"2 17 5 1",
"  c black",
". c #848684",
"X c #8C8E8C",
"o c #B5B2B5",
"O c #D6D3D6",
/* pixels */
"  ",
"O ",
". ",
"o ",
"o ",
"o ",
"o ",
"o ",
"o ",
"o ",
"o ",
"o ",
"o ",
"o ",
". ",
"X ",
"  "
};
