/* XPM */
static char *btn-close-un.png[] = {
/* columns rows colors chars-per-pixel */
"12 19 18 1",
"  c #535353",
". c #BBBBBB",
"X c #C1C1C1",
"o c gray84",
"O c gray85",
"+ c #DADADA",
"@ c #DFDFDF",
"# c #E6E6E6",
"$ c #EFEFEF",
"% c #F6F6F6",
"& c #F9F9F9",
"* c gray98",
"= c #FBFBFB",
"- c #FFFFFB",
"; c gray99",
": c #FDFDFD",
"> c #FEFEFE",
", c gray100",
/* pixels */
"------------",
",,,,,,,,,,,,",
",,,,,&,,,,,,",
"&&&&,&&&&&&&",
"%%%%%%%%%%%%",
"$$$$$$$$$$$$",
"############",
"@@@@@,&,&,,.",
"oo@oo,    ,.",
"ooooo,    ,.",
"ooooo,    ,.",
"ooooo&    ,.",
"ooooo,,,&,&.",
"ooooo.......",
"oooooooooooo",
"oooooooooooo",
"oooooooooooo",
"o@@oooo@@ooo",
"XXXXXXXXXXXX"
};
