/* XPM */
static char *btn-close-pr.png[] = {
/* columns rows colors chars-per-pixel */
"12 19 42 1",
"  c black",
". c #010101",
"X c #020202",
"o c gray1",
"O c gray2",
"+ c gray3",
"@ c #0B0B0B",
"# c gray74",
"$ c #C0C0C0",
"% c #D9D4D8",
"& c #DCD8DB",
"* c #DDD8DB",
"= c #DCD8DC",
"- c #DDD8DC",
"; c #DDD9DC",
": c #E0DCDF",
"> c #E1DCDF",
", c #E0DCE0",
"< c #E1DCE0",
"1 c #E1DDE0",
"2 c #E4E1E4",
"3 c #E5E0E4",
"4 c #E5E1E4",
"5 c #E8E6E7",
"6 c #E8E5E8",
"7 c #E9E5E8",
"8 c #ECE9EB",
"9 c #ECEAEB",
"0 c #ECEAEC",
"q c #EFEDF0",
"w c #F0EEEF",
"e c #F0EEF0",
"r c #F3F2F3",
"t c #F4F2F3",
"y c #F4F2F4",
"u c #F7F6F7",
"i c #F7F6F8",
"p c #F8F6F7",
"a c #FBFBFB",
"s c #FBFBFC",
"d c #FCFBFB",
"f c gray100",
/* pixels */
"ffffffffffff",
"ffffffffffff",
"ffffffffffff",
"ffffffffffff",
"ffffffffffff",
"ffffffffffff",
"sasasadsadaa",
"iipuu#######",
"yyryu#@ O #f",
"wweqw#    #f",
"99099#    #f",
"55777#+   #f",
"11622######f",
"11<<1#ffffff",
"------&----&",
"%%%%%%%%%%%%",
"------==----",
"<1<<,<1;1111",
"$$$$$$$$$$$$"
};
