/* XPM */
static char *sep-un.png[] = {
/* columns rows colors chars-per-pixel */
"12 19 55 1",
"  c #BEBCC1",
". c #BFBDC2",
"X c #C0BEC3",
"o c #C1BFC4",
"O c #C3C1C6",
"+ c #CACACA",
"@ c #CDCDCD",
"# c #CECECE",
"$ c #CCD0D1",
"% c #CED2D3",
"& c #D0D0D0",
"* c gray82",
"= c #D2D2D2",
"- c LightGray",
"; c #D0D4D5",
": c gray83",
"> c #D5D5D5",
", c gray84",
"< c #D7D7D7",
"1 c #D3D7D8",
"2 c #D8D8D8",
"3 c gray85",
"4 c #DADADA",
"5 c gray86",
"6 c #D8DCDD",
"7 c #D9DDDE",
"8 c gainsboro",
"9 c #DDDDDD",
"0 c gray87",
"q c #DFDFDF",
"w c gray88",
"e c #E1E1E1",
"r c #E2E2E2",
"t c gray89",
"y c #E4E4E4",
"u c gray90",
"i c #E6E6E6",
"p c #E7E7E7",
"a c gray91",
"s c #E9E9E9",
"d c #EAEAEA",
"f c gray92",
"g c #ECECEC",
"h c gray93",
"j c #EEEEEE",
"k c #EFEFEF",
"l c gray94",
"z c #F1F1F1",
"x c #F3F3F3",
"c c gray96",
"v c #F6F6F6",
"b c #FBFBFB",
"n c #FFFFFB",
"m c #FDFDFD",
"M c gray100",
/* pixels */
"nnnnXmnXmnnn",
"ggggommoasgg",
"gssg.mmXgvss",
"gssg.bmXxgki",
"isggXvvXgsis",
"sgsiXkkXtiig",
"ssitXii.ttks",
"stttXt9.tgia",
"t99iX44Xssi5",
"99aiX<>Xaq95",
"5sttX><X99>i",
"tti>X<>X9-ti",
"t9>4X><X4tt9",
"9>-9X<>o9t5-",
">#9tX>>.t->-",
"-9>4o>>.4>+4",
"49q#.><.%-79",
"6,%%o44.#77,",
".o.o.oo..oo."
};
