/* XPM */
static char * tr_un_tbls_xpm[] = {
"4 4 5 1",
" 	c None",
".	c #575B5A",
"+	c #FFFFFF",
"@	c #D7D7D7",
"#	c #C1C1C1",
"....",
"+++.",
"@@+.",
"#@+."};
