/* XPM */
static char *tr.png[] = {
/* columns rows colors chars-per-pixel */
"8 20 62 1",
"  c black",
". c #565B5E",
"X c #4D586A",
"o c #485578",
"O c #54566B",
"+ c #555965",
"@ c #575B66",
"# c #52596C",
"$ c #565968",
"% c #575A6B",
"& c #5D5B60",
"* c #59616E",
"= c #5D6073",
"- c #74727F",
"; c #7F8593",
": c #848389",
"> c #C0C0C0",
", c #CFCED6",
"< c #CDD2D8",
"1 c #D1D0D5",
"2 c #DAD1D6",
"3 c #D9D4D8",
"4 c #D8D8D8",
"5 c gray86",
"6 c #DCD8DB",
"7 c #DDD8DB",
"8 c #DCD8DC",
"9 c #DDD8DC",
"0 c #DDD9DC",
"q c #E0DCDF",
"w c #E1DCDF",
"e c #E0DCE0",
"r c #E1DCE0",
"t c #E1DDE0",
"y c #E4E1E4",
"u c #E5E0E4",
"i c #E5E1E4",
"p c #E8E6E7",
"a c #E8E5E8",
"s c #E9E5E8",
"d c #ECE9EB",
"f c #ECEAEB",
"g c #ECEAEC",
"h c #EFEDF0",
"j c #F0EEEF",
"k c #F0EEF0",
"l c #F3F2F3",
"z c #F4F2F3",
"x c #F4F2F4",
"c c #F7F6F7",
"v c #F7F6F8",
"b c #F8F6F7",
"n c #FBFBFB",
"m c #FBFBFC",
"M c #FBFBFD",
"N c #FDFEF9",
"B c #FFFFF8",
"V c #FFFFFA",
"C c #FFFFFB",
"Z c #FFFFFD",
"A c gray100",
"S c None",
/* pixels */
"&*XSSSSS",
"AA<;#SSS",
"AAAA,-SS",
"AAAAA2oS",
"AAAAAA:S",
"AAAAAA1O",
"AAAAAAm=",
"nmnmnmA%",
"vbbbccA@",
"xxxxllN+",
"jjjjgjV@",
"ffffffV@",
"ssssssA.",
"yyyyyyV.",
"rqrrwwA.",
"878877V.",
"333333A.",
"989889V.",
"wwwww0A.",
">>>>55V."
};
