/* XPM */
static char *btn-close.png[] = {
/* columns rows colors chars-per-pixel */
"18 20 128 2",
"   c gray1",
".  c #1B1B1B",
"X  c #1C1B1C",
"o  c #1C1C1B",
"O  c #282828",
"+  c gray16",
"@  c #2E2D2E",
"#  c #313131",
"$  c #323232",
"%  c #333233",
"&  c #343332",
"*  c #343434",
"=  c #353535",
"-  c gray21",
";  c #444344",
":  c #444444",
">  c #454445",
",  c #4B4A48",
"<  c gray29",
"1  c gray30",
"2  c #555555",
"3  c gray35",
"4  c #5B5B5B",
"5  c gray36",
"6  c #6F6D6A",
"7  c #6F6E6A",
"8  c #6F6E6C",
"9  c #70706E",
"0  c #71706E",
"q  c #717171",
"w  c #7A7977",
"e  c #7A7A77",
"r  c #7B7A77",
"t  c gray47",
"y  c #7A7A78",
"u  c #7B7A78",
"i  c #7C7B7A",
"p  c #76859A",
"a  c #878688",
"s  c #8B8B8B",
"d  c gray55",
"f  c #908F8E",
"g  c #91908F",
"h  c #999997",
"j  c #999998",
"k  c #9B9A99",
"l  c #98A5B7",
"z  c #98A6B7",
"x  c #A4A4A3",
"c  c #A5A5A4",
"v  c #ACACAC",
"b  c #ADACAC",
"n  c gray68",
"m  c #B1B1B1",
"M  c #B2B1B1",
"N  c #B2B2B2",
"B  c #B4B4B4",
"V  c #B5B5B4",
"C  c #B6B5B6",
"Z  c #B6B6B6",
"A  c gray72",
"S  c #BCBCBA",
"D  c #B8D5FB",
"F  c #B8D6FA",
"G  c #B8D6FB",
"H  c #B9D6FB",
"J  c #B9D7FB",
"K  c #BAD7FB",
"L  c #BBD8FB",
"P  c #BDDAFD",
"I  c #BEDBFF",
"U  c #C0C0C1",
"Y  c #C1C0C1",
"T  c gray76",
"R  c #C3C3C3",
"E  c #C4C4C5",
"W  c #C5C5C6",
"Q  c #C6C6C6",
"!  c #CBCBCB",
"~  c #CECECE",
"^  c gray81",
"/  c #D0D0D0",
"(  c #D0D0D1",
")  c gray82",
"_  c #D1D1D2",
"`  c #D2D2D2",
"'  c #D2D2D4",
"]  c gray83",
"[  c #D5D5D5",
"{  c #D6D5D6",
"}  c #D7D7D7",
"|  c gray85",
" . c #DADADA",
".. c #DBDBDA",
"X. c gray86",
"o. c #DDDCDD",
"O. c #DDDDDD",
"+. c #DDDDDF",
"@. c #DEDEDC",
"#. c gray87",
"$. c #DEDEDF",
"%. c #DFDFDF",
"&. c gray88",
"*. c #E0E1E2",
"=. c #E2E2E1",
"-. c gray89",
";. c #E3E3E4",
":. c #E4E4E2",
">. c #E5E5E7",
",. c #E6E6E5",
"<. c #E6E6E6",
"1. c #E7E7E7",
"2. c #E5E6E8",
"3. c #E4E7EA",
"4. c #E6E7E9",
"5. c #E7E7E9",
"6. c #E5E8EB",
"7. c #E7EAED",
"8. c #E8E8E9",
"9. c #E9E9EA",
"0. c #EDEDEE",
"q. c #E9EDF0",
"w. c #EBEFF2",
"e. c #ECF0F3",
"r. c gray94",
"t. c #F3F3F2",
"y. c #F3F3F3",
"u. c #F5F8FF",
/* pixels */
"u.u.u.u.u.u.u.u.u.u.u.u.u.u.u.u.u.u.",
"e.e.e.e.q.q.7.6.6.6.6.6.q.e.e.e.e.e.",
"4.4.4.4.=._ U C m m C U _ =.4.4.5.4.",
"5.4.>.+.W n g r 7 8 r g n W +.>.5.1.",
"1.>.%.R c r , o     o , y c U +.1.1.",
">.=.! b r & @ a m m a @ % r n ! =.,.",
":.@.S g , + s d y t s d O , g S @.:.",
"=...V r o > q z L L z q > . r V ..=.",
"=...Z 9   % 4 G P P G 5 %   9 C ..%.",
"+.%.U 9   % & G P P G - %   9 U +.%.",
"+.%._ u o ; % p G G p % : o u _ %.+.",
"....8.h , . 3 < - - < 3 o , h 8... .",
" ...r.[ r & X 1 q q 1 X & r [ r... .",
"} } %.y.R r , o     o , r R t.+.} } ",
"] ] [ +.0.+.k u 7 7 y k ..0.+.[ ] ] ",
") ) _ _ [ +.-.-.-.-.-.:.%.] ) _ ) ) ",
"~ ~ ~ ~ ~ ~ ) ) ) ) ) ) ~ ~ ~ ~ ~ ~ ",
"Q W Q Q Q Q Q W Q Q W Q Q Q Q Q Q Q ",
"A A A A A A A A A A A A A A A A A A ",
"2 2 2 2 2 2 2 2 2 2 2 2 2 2 2 2 2 2 "
};
