/* XPM */
static char *btn-mnu-pr.png[] = {
/* columns rows colors chars-per-pixel */
"18 20 114 2",
"   c black",
".  c #010001",
"X  c #030100",
"o  c gray1",
"O  c #040404",
"+  c #060606",
"@  c #1A191A",
"#  c gray10",
"$  c #1C1A1C",
"%  c #232323",
"&  c #242320",
"*  c #272727",
"=  c #393939",
"-  c #3C3C3C",
";  c gray24",
":  c #3F3F3F",
">  c gray29",
",  c #555555",
"<  c #595652",
"1  c #595752",
"2  c #595755",
"3  c #5A5A57",
"4  c #5C5A57",
"5  c gray36",
"6  c gray40",
"7  c #696765",
"8  c #696965",
"9  c #696966",
"0  c #6A6965",
"q  c #6A6966",
"w  c #6C6A69",
"e  c #7C7A7D",
"r  c gray51",
"t  c #838383",
"y  c #898886",
"u  c #8A8988",
"i  c #969693",
"p  c #969695",
"a  c #999896",
"s  c #A6A6A5",
"d  c #A8A8A6",
"f  c #B2B2B2",
"g  c #B3B2B2",
"h  c gray70",
"j  c gray72",
"k  c #B9B9B9",
"l  c #BBB9B9",
"z  c #BBBBBB",
"x  c #BDBDBB",
"c  c gray",
"v  c #C0BFC0",
"b  c #C0C0C0",
"n  c #C3C3C0",
"m  c #C6C6C6",
"M  c #C8C8C8",
"N  c #C8C8C9",
"B  c gray79",
"V  c #CBCBCC",
"C  c #CCCCCD",
"Z  c #CDCDCD",
"A  c #CECECE",
"S  c gray81",
"D  c #D0CFD0",
"F  c #D0D0D0",
"G  c #D0D0D1",
"H  c gray82",
"J  c LightGray",
"K  c gray83",
"L  c #D5D5D5",
"P  c #D4D4D7",
"I  c #D7D7D7",
"U  c gray85",
"Y  c #DADADA",
"T  c #DBDBDA",
"R  c gray86",
"E  c #DDDDDD",
"W  c #DDDDDF",
"Q  c #DEDEDC",
"!  c gray87",
"~  c #DEDEDF",
"^  c #DFDFDF",
"/  c #C9F5FF",
"(  c #CBF5FF",
")  c gray88",
"_  c #E1E1E1",
"`  c #E0E1E2",
"'  c #E2E2E1",
"]  c #E4E4E2",
"[  c #E4E4E5",
"{  c gray90",
"}  c #E5E5E7",
"|  c #E6E6E5",
" . c #E6E6E6",
".. c #E7E7E7",
"X. c #E5E6E8",
"o. c #E4E7EA",
"O. c #E6E7E9",
"+. c #E7E7E9",
"@. c #E5E8EB",
"#. c #E7EAED",
"$. c gray93",
"%. c #EEEDEE",
"&. c #E9EDF0",
"*. c #EBEFF2",
"=. c #ECF0F3",
"-. c gray95",
";. c #F4F4F5",
":. c gray96",
">. c #F5F8FF",
",. c #F8F7F8",
"<. c #F8F8F7",
"1. c #F8F8F8",
"2. c gray98",
"3. c #FEFEFE",
/* pixels */
">.>.>.>.>.>.>.>.>.>.>.>.>.>.>.>.>.>.",
"=.=.=.=.=.#.#.@.o.o.@.#.#.=.=.=.=.=.",
"O.O.O.O.` P B c k k c B P ' O.@...@.",
"+.O.} W A h y 7 2 2 7 u g V W } ....",
"..} ^ B d 0 & . . . . & 0 s B ^ | @.",
"} ' A h 7 X . e k z e . . 7 g A ' | ",
"] Q n y & . r t 6 6 t t . & y n T ] ",
"' T x 0 . $ 5 / / / ( 5 # . 0 k T ' ",
"^ U b 3 . . - > > > > ; . . 3 n T ' ",
"^ W J 4 . . . - : : - O . . 3 A T ^ ",
"W ^ } 0 . # . / ( ( ( . # . w } ^ W ",
"T T :.p & . = % + + % = . & i ;.W T ",
"U T -.$.0 . . * 5 5 * . . 0 $.-.T T ",
"I I W 2.J 0 & . . . . & 0 J <.W L L ",
"L L P W -.2.a 0 1 1 0 a <.;.W L J P ",
"H H H H P ' -.2.3.3.2.-.^ L H H F J ",
"Z Z A A A S S J F J S S S A A A A A ",
"m m m m m m m m m m m m m m m m m m ",
"j j j j j j j j j j j j j j j j j j ",
"< , , , , , , , , , , , , , , , , , "
};
