/* XPM */
static char *btn-close-pr.png[] = {
/* columns rows colors chars-per-pixel */
"18 20 121 2",
"   c black",
".  c #010001",
"X  c #030100",
"o  c gray1",
"O  c #040404",
"+  c #060606",
"@  c #1A191A",
"#  c gray10",
"$  c #1C1A1C",
"%  c #232323",
"&  c #242320",
"*  c #272727",
"=  c #393939",
"-  c #3C3C3C",
";  c gray24",
":  c #555555",
">  c #595652",
",  c #595752",
"<  c #595755",
"1  c #5A5A57",
"2  c #5C5A57",
"3  c gray36",
"4  c gray40",
"5  c #696765",
"6  c #696965",
"7  c #696966",
"8  c #6A6965",
"9  c #6A6966",
"0  c #6C6A69",
"q  c #7C7A7D",
"w  c #637998",
"e  c gray51",
"r  c #838383",
"t  c #898886",
"y  c #8A8988",
"u  c #969693",
"i  c #969695",
"p  c #999896",
"a  c #A6A6A5",
"s  c #A8A8A6",
"d  c #B2B2B2",
"f  c #B3B2B2",
"g  c gray70",
"h  c gray72",
"j  c #B9B9B9",
"k  c #BBB9B9",
"l  c #BBBBBB",
"z  c #BDBDBB",
"x  c gray",
"c  c #95A8C2",
"v  c #95A9C2",
"b  c #C0BFC0",
"n  c #C0C0C0",
"m  c #C3C3C0",
"M  c #C6C6C6",
"N  c #C8C8C8",
"B  c #C8C8C9",
"V  c gray79",
"C  c #CBCBCC",
"Z  c #CCCCCD",
"A  c #CDCDCD",
"S  c #CECECE",
"D  c gray81",
"F  c #D0CFD0",
"G  c #D0D0D0",
"H  c #D0D0D1",
"J  c gray82",
"K  c LightGray",
"L  c gray83",
"P  c #D5D5D5",
"I  c #D4D4D7",
"U  c #D7D7D7",
"Y  c gray85",
"T  c #DADADA",
"R  c #DBDBDA",
"E  c gray86",
"W  c #DDDDDD",
"Q  c #DDDDDF",
"!  c #DEDEDC",
"~  c gray87",
"^  c #DEDEDF",
"/  c #DFDFDF",
"(  c #C3EEFF",
")  c #C3EFFF",
"_  c #C5EFFF",
"`  c #C5F0FF",
"'  c #C6F0FF",
"]  c #C8F2FF",
"[  c #CBF5FF",
"{  c #CCF6FF",
"}  c gray88",
"|  c #E1E1E1",
" . c #E0E1E2",
".. c #E2E2E1",
"X. c #E4E4E2",
"o. c #E4E4E5",
"O. c gray90",
"+. c #E5E5E7",
"@. c #E6E6E5",
"#. c #E6E6E6",
"$. c #E7E7E7",
"%. c #E5E6E8",
"&. c #E4E7EA",
"*. c #E6E7E9",
"=. c #E7E7E9",
"-. c #E5E8EB",
";. c #E7EAED",
":. c gray93",
">. c #EEEDEE",
",. c #E9EDF0",
"<. c #EBEFF2",
"1. c #ECF0F3",
"2. c gray95",
"3. c #F4F4F5",
"4. c gray96",
"5. c #F5F8FF",
"6. c #F8F7F8",
"7. c #F8F8F7",
"8. c #F8F8F8",
"9. c gray98",
"0. c #FEFEFE",
/* pixels */
"5.5.5.5.5.5.5.5.5.5.5.5.5.5.5.5.5.5.",
"1.1.1.1.1.;.;.-.&.&.-.;.;.1.1.1.1.1.",
"*.*.*.*. .I V x j j x V I ..*.-.-.$.",
"=.*.+.Q S g t 5 < < 5 y f C Q +.$.$.",
"$.+./ V s 8 & . . . . & 8 a V / +.@.",
"+...S g 5 X . q j l q . . 5 f S X.@.",
"X.! m t & . e e 4 4 r r . & t m ! X.",
"..R z 8 . $ 3 v ] ' v 3 # . 8 j T X.",
" .T n 2 . . - ' ] { ` - . . 1 n T / ",
"! ! D 2 . . . ) { { ` O . . 1 D Q ! ",
"Q ! +.0 . # . w ' ' w . # . 0 +.! Q ",
"T Q 3.i & . = % + + % = . & u 3.Q T ",
"T T 2.:.8 . . * 3 3 * . . 8 :.2.T T ",
"U U Q 9.K 8 & . . . . & 8 K 7.Q U U ",
"P P I R 2.9.p 8 , , 8 p 7.3.Q P P K ",
"J J J K I ..2.9.0.0.9.2./ P J J J J ",
"S S S S S D J D J J J D D S S S S S ",
"M M M M M M M M M M M M M M M M M M ",
"h h h h h h h h h h h h h h h h h h ",
": : : : : : : : : : : : : : : : : : "
};
