/* XPM */
static char *harbour.png[] = {
/* columns rows colors chars-per-pixel */
"64 64 67 1",
"  c black",
". c #CDC9CD",
"X c #CDCACD",
"o c #CECACE",
"O c #CECBCE",
"+ c #CFCBCF",
"@ c #CFCCCF",
"# c #D0CCD0",
"$ c #D0CDD0",
"% c #D1CDD1",
"& c #D1CED1",
"* c #D2CED2",
"= c #D2CFD2",
"- c #D3CFD3",
"; c #D3D0D3",
": c #D4D0D4",
"> c #D4D1D4",
", c #D5D1D5",
"< c #D5D2D5",
"1 c #D6D2D6",
"2 c #D6D3D6",
"3 c #D7D3D7",
"4 c #D7D4D7",
"5 c #D8D4D8",
"6 c #D8D5D8",
"7 c #D9D5D9",
"8 c #D9D6D9",
"9 c #DAD6DA",
"0 c #DAD7DA",
"q c #DBD7DB",
"w c #DBD8DB",
"e c #DCD8DC",
"r c #DCD9DC",
"t c #DDD9DD",
"y c #DDDADD",
"u c #DEDADE",
"i c #DEDBDE",
"p c #DFDBDF",
"a c #DFDCDF",
"s c #E0DCE0",
"d c #E0DDE0",
"f c #E1DDE1",
"g c #E1DEE1",
"h c #E2DEE2",
"j c #E2DFE2",
"k c #E3DFE3",
"l c #E3E0E3",
"z c #E4E0E4",
"x c #E4E1E4",
"c c #E5E1E5",
"v c #E5E2E5",
"b c #E6E2E6",
"n c #E6E3E6",
"m c #E7E3E7",
"M c #E7E4E7",
"N c #E8E4E8",
"B c #E8E5E8",
"V c #E9E5E9",
"C c #E9E6E9",
"Z c #EAE6EA",
"A c #EAE7EA",
"S c #EBE7EB",
"D c #EBE8EB",
"F c #ECE8EC",
"G c #ECE9EC",
"H c #EDE9ED",
"J c #EEE9EE",
/* pixels */
"                                                                ",
" JJJJJJJJJJJJJJJJJJJJJJJJJJJJJJJJJJJJJJJJJJJJJJJJJJJJJJJJJJJJJJ ",
" JJJJJJJJJJJJJJJJJJJJJJJJJJJJJJJJJJJJJJJJJJJJJJJJJJJJJJJJJJJJJJ ",
" JJJJJJJJJJJJJJJJJJJJJJJJJJJJJJJJJJJJJJJJJJJJJJJJJJJJJJJJJJJJJJ ",
" JJJJJJJJJJJJJJJJJJJJJJJJJJJJJJJJJJJJJJJJJJJJJJJJJJJJJJJJJJJJJJ ",
" JJJJJJJJJJJJJJJJJJJJJJJJJJJJJJJJJJJJJJJJJJJJJJJJJJJJJJJJJJJJJJ ",
" JJJJJJJJJJJJJJJJJJJJJJJJJJJJJJJJJJJJJJJJJJJJJJJJJJJJJJJJJJJJJJ ",
" JJJJJJJJJJJJJJJJJJJJJJJJJJJJJJJJJJJJJJJJJJJJJJJJJJJJJJJJJJJJJJ ",
" JJJJJJJJJJJJJJJJJJJJJJJJJJJJJJJJJJJJJJJJJJJJJJJJJJJJJJJJJJJJJJ ",
" JJJJJJJJJJJJJJJJJJJJJJJJJJJJJJJJJJJJJJJJJJJJJJJJJJJJJJJJJJJJJJ ",
" JJJJJJJJJJJJJJJJJJJJJJJJJJJJJJJJJJJJJJJJJJJJJJJJJJJJJJJJJJJDJJ ",
" JJJJJJJJJJJJJJJJJJJJJJJJJJJJJJJJJJJJJJJJJJJJJJJJJJJJJJJJJJJJJJ ",
" JJJJJJJJJJJJJJJJJJJJJJJJJJJJJJJJJJJJJJJJJJJJJJJJJJJJJJJJJJJDJC ",
" JJJJJJJJJJJJJJJJJJJJJJJJJJJJJJJJJJJJJJJJJJJJJJJJJJJJJJJJJJSDDC ",
" JJJJJJJJJJJJJJJJJJJJJJJJJJJJJJJJJJJJJJJJJJJJJJJJJJJJJJJJDSJSCC ",
" JJJJJJJJJJJJJJJJJJJJJJJJJJJJJJJJJJJJJJJJJJJJJJJJJJJJJDJJDSSSSC ",
" JJJJJJJJJJJJJJJJJJJJJJJJJJJJJJJJJJJJJJJJJJJJJJJJJJJJJJJJCSCCNN ",
" JJJJJJJJJJJJJJJJJJJJJJJJJJJJJJJJJJJJJJJJJJJJJJJJJJJJJJCCCSCNNC ",
" JJJJJJJJJJJJJJJJJJJJJJJJJJJJJJJJJJJJJJJJJJJJJJJJJJDJSSSCCCCNNN ",
" JJJJJJJJJJJJJJJJJJJJJJJJJJJJJJJJJJJJJJJJJJJJJJJJJJDSSSSSCNNbNb ",
" JJJJJJJJJJJJJJJJJJJJJJJJJJJJJJJJJJJJJJJJJJJJJJJJDCJCCCNCCnbbbb ",
" JJJJJJJJJJJJJJJJJJJJJJJJJJJJJJJJJJJJJJJJJJJJJJDGDJJSCCNCnnbbbb ",
" JJJJJJJJJJJJJJJJJJJJJJJJJJJJJJJJJJJJJJJJJJJJJJJJDCCCCNNbbbbbkk ",
" JJJJJJJJJJJJJJJJJJJJJJJJJJJJJJJJJJJJJJJJJJJJJJSDDCCCCNNbbbbkbk ",
" JJJJJJJJJJJJJJJJJJJJJJJJJJJJJJJJJJJJJJJJJJJDDSSCCNCCnnnbbbkkkk ",
" JJJJJJJJJJJJJJJJJJJJJJJJJJJJJJJJJJJJJJJJJJJJDSCCNCCnnbnbbkkkkk ",
" JJJJJJJJJJJJJJJJJJJJJJJJJJJJJJJJJJJJJJJJJJSCJCCCNCbCbbkkkkkkkk ",
" JJJJJJJJJJJJJJJJJJJJJJJJJJJJJJJJJJJJJDJJSSSCCCCNNbbbbbkkkkkiik ",
" JJJJJJJJJJJJJJJJJJJJJJJJJJJJJJJJJJJJDJJSSSCCCCCNNbbbkkkkkksaii ",
" JJJJJJJJJJJJJJJJJJJJJJJJJJJJJJJJJJJJJJDSSSSNCNbNbbkkkkkkkikkii ",
" JJJJJJJJJJJJJJJJJJJJJJJJJJJJJJJJJJJJJDDSSCCNNbbbbbkkkkkikssiii ",
" JJJJJJJJJJJJJJJJJJJJJJJJJJJJJJJJJDJDDDCCNCNbNbbbbkkkkkkiiiiiii ",
" JJJJJJJJJJJJJJJJJJJJJJJJJJJJJJJDJJDDSCCCCNbNbbbkkkkskskiiiiiiq ",
" JJJJJJJJJJJJJJJJJJJJJJJJJJJJJJJJDJCCCSCnCbNbbbkkkkkkkiisiqiqqi ",
" JJJJJJJJJJJJJJJJJJJJJJJJJJJJJJJDJCJCNCNCbnbbbkkkkkassisiiqi9i9 ",
" JJJJJJJJJJJJJJJJJJJJJJJJJJJDJJJDDCCCCNNnbbbkbkkakkasisiiqiqq99 ",
" JJJJJJJJJJJJJJJJJJJJJJJJJJJJJSSSCCCNNNNbbbkkkkkkakiiiiqaqqqq99 ",
" JJJJJJJJJJJJJJJJJJJJJJJJJDJSSSSSCNCNNNkkbkkkkkkkaiiiiiiqqq9999 ",
" JJJJJJJJJJJJJJJJJJJJJJJJJJDSSSCNCCbbbbkbkkkkakiaaiiiqiqqq99992 ",
" JJJJJJJJJJJJJJJJJJJJJJJDJDDSSCNNNbNbbbbkkkkakssiiiiqi99qq99223 ",
" JJJJJJJJJJJJJJJJJJJJJJJSSSSSSNNNNbbbbkkkkkassssaaawqqqq4q22422 ",
" JJJJJJJJJJJJJJJJJJJJDJDSSSSCNNNNNNkkkkkkkkasiiiqawwqqq2q2q2222 ",
" JJJJJJJJJJJJJJJJJJJJJDDSSCNNNNNbbkbkkkkkkaaiiiiiqwwqqq92442332 ",
" JJJJJJJJJJJJJJJJJJDJDDDCCCCNNNbbkbkkkkkaaaaiiiqwqqqq4292222;;3 ",
" JJJJJJJJJJJJJJJJJJSDDCCCCNCnnbbbkkkkkkiaaiiiqqiqqq49292;333;;; ",
" JJJJJJJJJJJJJJDJJSSDCCCCCbbnbkbbkkkkaksaiiiiqiqqq4q922233;;;;; ",
" JJJJJJJJJJJJJJJJJSSSCCCCnnbbbkkkkkakasiiiiiqi99qqq422;3;;3&;;& ",
" JJJJJJJJJJJJJJDJCSSCCNNnnbbbkkkkkakiiiiii9qqq9944442233;3;;&&& ",
" JJJJJJJJJJJJGJDSSSNCNNbbbbkkkkkkaaaaaaaawqqqq9944443;3;;;;&&&@ ",
" JJJJJJJJJDJDDJDCCNCNNNbbbbkkkkkkkaaaawawwqqq29944223;;;&;&&&@@ ",
" JJJJJJJJJJJDJDCCCCCNNbbbkkkksksaiiiiqwwqqqq922222223;;;;&&@&@@ ",
" JJJJJJJJDDDCCCCCbCnbbbkkbkkkkssaiaiaqwwqq29q2232;2;;;&;&&@@OOO ",
" JJJJJDJJSSSCSCCCnnnnbbkkkkkiassiiiqwwwqq4q4222322;;;;&&@@@OOOO ",
" JJJJJJJSSSCCCCNnnbbbkkkkkkiikiiiiqiqqqq4q442223;;;&;@;@&@OOOOO ",
" JJJJJDDSSCSNNNNnbkbkkkakkakiiiiiiqqqqq44q423;333;;;&;@@@OO..OO ",
" JJJDDJDSSCNNNNbbbbbkkkkkiiaiiii99iqq4qq24223;;;;;@;@@@@OO...OO ",
" JJJSSSCSCCNNNbbbkkkkkakaaaaaawqqqq929223333;;;&&&&@@@OOOO..... ",
" JJSSSCCCNNbbbbkkkkkkkkakiiiqawqq99929923;;;;;;;&&&@@OO.......O ",
" JSSSSCCNNNbbbbkkkakakaaiiaiqqqqq9292222;3;3;;&&&&@@OO........O ",
" DSSSCCNNNbbkbbkkkkkaaaaiiqawwq99992222233&;;&&@&OOOOO.......OO ",
" SCCCCNNbbbbbkkkkaaksiiiqi9qqq9q9223223;;;&;&&&&OOOO.O......... ",
" CSCNCbbbbbkkkkkkkiaiiqiqiq999929233223;3&&&&&O@OOOOO.........O ",
" CCNCbbbbkbkkkkakiasiiiiiqqq9929223333;;&;&&@@@OOO..OOOO..OOOOO ",
"                                                                "
};
