/* XPM */
static char *tl.png[] = {
/* columns rows colors chars-per-pixel */
"5 20 23 1",
"  c #555555",
". c gray72",
"X c gray",
"o c #C6C6C6",
"O c gray80",
"+ c #CECECE",
"@ c gray82",
"# c gray83",
"$ c #D7D7D7",
"% c gray85",
"& c #DADADA",
"* c #DDDDDD",
"= c #DFDFDF",
"- c gray88",
"; c #E2E2E1",
": c #E2E2E2",
"> c #E4E4E2",
", c #E6E6E5",
"< c #E7E7E7",
"1 c #E6E7E9",
"2 c #E7E7E9",
"3 c #ECF0F3",
"4 c #F5F8FF",
/* pixels */
"     ",
" X444",
" O333",
" :112",
" :222",
" =<<<",
" =><<",
" ::::",
" -;-;",
" ----",
" --=-",
" -***",
" -&&&",
" -&$&",
" -$$$",
" -###",
" -+#+",
" -+++",
" -++o",
" -++."
};
