/* XPM */
static char *top-tbl.png[] = {
/* columns rows colors chars-per-pixel */
"5 5 5 1",
"  c #555555",
". c #B9B9B9",
"X c #BCBCBC",
"o c #CECECE",
"O c gray88",
/* pixels */
"     ",
"OOOOO",
"ooooo",
"XXXX.",
"     "
};
