/* XPM */
static char * bd_horz_xpm[] = {
"16 4 3 1",
" 	c None",
".	c #5888F8",
"+	c #F8FCF8",
"................",
"++++++++++++++++",
"++++++++++++++++",
"................"};
