/* XPM */
static char * bless_bt_close_pr_xpm[] = {
"18 21 3 1",
" 	c None",
".	c #5888F8",
"+	c #F8FCF8",
"..................",
"+++++++++++++++++.",
"+++++++++++++++++.",
"...............++.",
"...............++.",
"..+++++++++++..++.",
"..+++++++++++..++.",
"..++..+++..++..++.",
"..++..+++..++..++.",
"..++++...++++..++.",
"..++++...++++..++.",
"..++++...++++..++.",
"..++..+++..++..++.",
"..++..+++..++..++.",
"..+++++++++++..++.",
"..+++++++++++..++.",
"...............++.",
"...............++.",
"+++++++++++++++++.",
"+++++++++++++++++.",
".................."};
