/* XPM */
static char * mn_sel_xpm[] = {
"2 20 8 1",
" 	c None",
".	c #B8B4B8",
"+	c #D8D8D8",
"@	c #E0E0E0",
"#	c #E8E8E8",
"$	c #F8F4F8",
"%	c #F8FCF8",
"&	c #F0F0F0",
"..",
"++",
"@@",
"##",
"$$",
"%%",
"%%",
"%%",
"%%",
"%%",
"%%",
"%%",
"%%",
"%%",
"%%",
"%%",
"%%",
"%%",
"&&",
".."};
