/* XPM */
static char * br_xpm[] = {
"5 5 2 1",
" 	c #405060",
".	c #203040",
"    .",
"    .",
"    .",
"    .",
"....."};
