/* XPM */
static char * utl_xpm[] = {
"5 5 2 1",
" 	c #707070",
".	c #505050",
"     ",
" ....",
" ....",
" ....",
" ...."};
