/* XPM */
static char * bottom_left_xpm[] = {
"5 5 5 1",
" 	c None",
".	c #000000",
"+	c #F8FCF8",
"@	c #E8ECE8",
"#	c #989C98",
".+@##",
".+@#+",
".+@@@",
".####",
"....."};
