/* XPM */
static char * close_fo_xpm[] = {
"19 20 13 1",
" 	c None",
".	c #000000",
"+	c #A8B4E0",
"@	c #80A0C8",
"#	c #809CC8",
"$	c #305488",
"%	c #789CC8",
"&	c #7898C8",
"*	c #7894C8",
"=	c #7094C8",
"-	c #7090C8",
";	c #708CC8",
">	c #688CC8",
"...................",
".++++++++++++++++++",
".+@@@@@@@@@@@@@@@@@",
".+#$$$$$$$$$$$$$$+#",
".+%$++++++++++++$+%",
".+%$+%%%%%%%%%%%$+%",
".+%$+%%%%%%%%%%%$+%",
".+&$+&&&&&&&&&&&$+&",
".+&$+&&&&&&&&&&&$+&",
".+&$+&&&&&&&&&&&$+&",
".+*$+***********$+*",
".+=$+===========$+=",
".+=$+===========$+=",
".+-$+-----------$+-",
".+-$+-----------$+-",
".+-$+-----------$+-",
".+;$$$$$$$$$$$$$$+;",
".+;+++++++++++++++;",
".+>>>>>>>>>>>>>>>>>",
".+$$$$$$$$$$$$$$$$$"};
