/* XPM */
static char * sep_fo_xpm[] = {
"2 20 6 1",
" 	c None",
".	c #000000",
"+	c #A8B4E0",
"@	c #80A0C8",
"#	c #305488",
"$	c #688CC8",
"..",
"++",
"@@",
"#+",
"#+",
"#+",
"#+",
"#+",
"#+",
"#+",
"#+",
"#+",
"#+",
"#+",
"#+",
"#+",
"#+",
"++",
"$$",
"##"};
