/* XPM */
static char * title_un_xpm[] = {
"2 20 15 1",
" 	c None",
".	c #000000",
"+	c #F0F4F0",
"@	c #C8CCC8",
"#	c #C8C8C8",
"$	c #C0C4C0",
"%	c #C0C0C0",
"&	c #B8BCB8",
"*	c #B8B8B8",
"=	c #B0B4B0",
"-	c #B0B0B0",
";	c #A8ACA8",
">	c #A8A8A8",
",	c #A0A4A0",
"'	c #707070",
"..",
"++",
"@@",
"##",
"##",
"$$",
"$$",
"%%",
"&&",
"&&",
"**",
"==",
"==",
"--",
"--",
";;",
">>",
">>",
",,",
"''"};
