/* XPM */
static char * top_right_xpm[] = {
"5 5 5 1",
" 	c None",
".	c #000000",
"+	c #F8FCF8",
"@	c #989C98",
"#	c #E8ECE8",
".....",
"+++@.",
"###@.",
"@+#@.",
"@+#@."};
