/* XPM */
static char * bd_btr_fo_xpm[] = {
"10 4 27 1",
" 	c #AAA8AB",
".	c #A9A7AA",
"+	c #ADABAE",
"@	c #B0AEB1",
"#	c #A19FA2",
"$	c #DEDCDF",
"%	c #CBC9CC",
"&	c #D9D7DA",
"*	c #79777A",
"=	c #D6D4D7",
"-	c #D7D5D8",
";	c #D0CED1",
">	c #DAD8DB",
",	c #D3D1D4",
"'	c #D5D3D6",
")	c #6C6A6D",
"!	c #D4D2D5",
"~	c #DBD9DC",
"{	c #C7C5C8",
"]	c #807E81",
"^	c #737174",
"/	c #716F72",
"(	c #767477",
"_	c #757376",
":	c #706E71",
"<	c #6E6C6F",
"[	c #7A787B",
"  .+@#$%&*",
"==-;=>,'>)",
"&-!!=!!~{]",
"^^/(_:<_[)"};
