/* XPM */
static char * bd_btr_un_xpm[] = {
"10 4 31 1",
" 	c #AEACAF",
".	c #B1AFB2",
"+	c #A7A5A8",
"@	c #B5B3B6",
"#	c #B0AEB1",
"$	c #ADABAE",
"%	c #D9D9D9",
"&	c #CFCFCF",
"*	c #D1D1D1",
"=	c #6E6E6E",
"-	c #D1CFD0",
";	c #D4D2D3",
">	c #D2D0D1",
",	c #D7D5D6",
"'	c #CFCDCE",
")	c #D6D4D5",
"!	c #D7D7D7",
"~	c #D2D2D2",
"{	c #D6D6D6",
"]	c #707070",
"^	c #D8D6D7",
"/	c #D0CECF",
"(	c #D5D3D4",
"_	c #737172",
":	c #727071",
"<	c #716F70",
"[	c #706E6F",
"}	c #6C6C6C",
"|	c #727272",
"1	c #777777",
"2	c #6D6D6D",
" .+@#$%&*=",
"-;>,')!~{]",
"^/^;((~*!]",
"_::<<[}|12"};
