/* XPM */
static char * bd_btl_un_xpm[] = {
"10 4 30 1",
" 	c #EBE9EA",
".	c #CCCACD",
"+	c #DCDADD",
"@	c #A8A6A9",
"#	c #B5B3B6",
"$	c #ACAAAD",
"%	c #AEACAF",
"&	c #F0EEEF",
"*	c #DBD9DA",
"=	c #CECCCD",
"-	c #D2D0D1",
";	c #E0DEDF",
">	c #C2C0C1",
",	c #DEDCDD",
"'	c #D3D1D2",
")	c #EEECED",
"!	c #DCDADB",
"~	c #D5D3D4",
"{	c #D6D4D5",
"]	c #DDDBDC",
"^	c #D0CECF",
"/	c #D1CFD0",
"(	c #7D7B7C",
"_	c #6C6A6B",
":	c #716F70",
"<	c #767475",
"[	c #757374",
"}	c #6F6D6E",
"|	c #727071",
"1	c #747273",
" .+@#$%%%%",
"&*=--;>,''",
")-!~-{]^~~",
"/(_:<[<}|1"};
