/* XPM */
static char * bd_topm_un_xpm[] = {
"10 4 8 1",
" 	c None",
".	c #747273",
"+	c #737172",
"@	c #757374",
"#	c #727071",
"$	c #D5D3D4",
"%	c #D3D1D2",
"&	c #AEACAF",
"..+++.+@.#",
"$$$$$$$$$$",
"%%%%%%%%%%",
"&&&&&&&&&&"};
