/* XPM */
static char * bd_tol_fo_xpm[] = {
"1 16 14 1",
" 	c None",
".	c #E9E9E9",
"+	c #EEEEEE",
"@	c #F1F1F1",
"#	c #E3E3E3",
"$	c #F8F8F8",
"%	c #F2F2F2",
"&	c #E6E6E6",
"*	c #EFEFEF",
"=	c #EDEDED",
"-	c #E8E8E8",
";	c #EAEAEA",
">	c #EBEBEB",
",	c #E2E2E2",
".",
"+",
"@",
"@",
"#",
"$",
"%",
"&",
"*",
"=",
"-",
";",
">",
"+",
",",
"="};
