/* XPM */
static char * bd_topl_un_xpm[] = {
"10 4 31 1",
" 	c None",
".	c #D1CFD0",
"+	c #7D7B7C",
"@	c #6C6A6B",
"#	c #716F70",
"$	c #767475",
"%	c #757374",
"&	c #6F6D6E",
"*	c #727071",
"=	c #747273",
"-	c #EEECED",
";	c #D2D0D1",
">	c #DCDADB",
",	c #D5D3D4",
"'	c #D6D4D5",
")	c #DDDBDC",
"!	c #D0CECF",
"~	c #F0EEEF",
"{	c #DBD9DA",
"]	c #CECCCD",
"^	c #E0DEDF",
"/	c #C2C0C1",
"(	c #DEDCDD",
"_	c #D3D1D2",
":	c #EBE9EA",
"<	c #CCCACD",
"[	c #DCDADD",
"}	c #A8A6A9",
"|	c #B5B3B6",
"1	c #ACAAAD",
"2	c #AEACAF",
".+@#$%$&*=",
"-;>,;')!,,",
"~{];;^/(__",
":<[}|12222"};
