/* XPM */
static char * bd_tol_un_xpm[] = {
"1 16 7 1",
" 	c None",
".	c #F5F5F5",
"+	c #E6E6E6",
"@	c #EEECEF",
"#	c #EDEBEE",
"$	c #EFEDF0",
"%	c #EBE9EC",
".",
"+",
"@",
"@",
"@",
"@",
"@",
"@",
"@",
"@",
"#",
"$",
"@",
"$",
"%",
"$"};
