/* XPM */
static char * btn_min_xpm[] = {
"12 14 35 1",
" 	c None",
".	c #C2C0C1",
"+	c #C3C1C2",
"@	c #C0C0C0",
"#	c #C3C3C3",
"$	c #BDBDBD",
"%	c #C2C2C2",
"&	c #BFBFBF",
"*	c #C1C1C1",
"=	c #C7C7C7",
"-	c #C5C5C5",
";	c #CECECE",
">	c #3F3F3F",
",	c #484848",
"'	c #414141",
")	c #424242",
"!	c #E9E9E9",
"~	c #BABABA",
"{	c #C4C4C4",
"]	c #464646",
"^	c #F2F2F2",
"/	c #CCCCCC",
"(	c #B7B7B7",
"_	c #F6F6F6",
":	c #B8B8B8",
"<	c #CDCDCD",
"[	c #BCBCBC",
"}	c #454545",
"|	c #CBCBCB",
"1	c #B3B3B3",
"2	c #F0F0F0",
"3	c #BEBEBE",
"4	c #C8C8C8",
"5	c #F5F5F5",
"6	c #BBBBBB",
"....+++++.++",
"++++.+++...+",
"@#$%#%&%#&*&",
"#@@=&-#*$#;&",
"%>,>'>>')>!*",
"~{>]>>)>>^-=",
"/{('))>>_:-~",
"-$<[>'}!#|1;",
"[%&{->234{-~",
"-%-&@564[[%-",
"***%@@******",
"%%%%%%%%%%%%",
"@@@*&&@@@@@@",
"#%%#%%%%####"};
