/* XPM */
static char * btn_close_xpm[] = {
"11 14 93 2",
"  	c None",
". 	c #C2C2C2",
"+ 	c #C1C1C1",
"@ 	c #CBCBCB",
"# 	c #C6C6C6",
"$ 	c #C7C7C7",
"% 	c #C5C5C5",
"& 	c #C4C4C4",
"* 	c #C3C3C3",
"= 	c #BFBFBF",
"- 	c #C8C8C8",
"; 	c #000000",
"> 	c #CACACA",
", 	c #BDBDBD",
"' 	c #CDCDCD",
") 	c #C0C0C0",
"! 	c #C6C3C7",
"~ 	c #C8C5C9",
"{ 	c #D2CFD3",
"] 	c #E7E3E9",
"^ 	c #C1BEC2",
"/ 	c #C5C2C6",
"( 	c #C3C0C4",
"_ 	c #BEBBBF",
": 	c #E1DEE2",
"< 	c #CAC7CB",
"[ 	c #C9C6CA",
"} 	c #C2BFC3",
"| 	c #C0BDC1",
"1 	c #DEDBDF",
"2 	c #B8B5B9",
"3 	c #B6B6B6",
"4 	c #C9C9C9",
"5 	c #B9B9B9",
"6 	c #DAD7DB",
"7 	c #C7C4C8",
"8 	c #C4C1C5",
"9 	c #CBC8CC",
"0 	c #CFCFCF",
"a 	c #EBE1E9",
"b 	c #CBC5CA",
"c 	c #CAC4C9",
"d 	c #C8C2C7",
"e 	c #D0CACF",
"f 	c #B4AEB3",
"g 	c #BEBEBE",
"h 	c #E5E1EB",
"i 	c #C2BDC3",
"j 	c #C6C0C5",
"k 	c #BDB9BA",
"l 	c #CCC8C9",
"m 	c #C2BAC2",
"n 	c #D0C7D1",
"o 	c #C8C6C7",
"p 	c #B8B6B7",
"q 	c #C4C0D0",
"r 	c #C3C0CC",
"s 	c #CBC6C3",
"t 	c #C6C0BC",
"u 	c #CDC3C4",
"v 	c #DFCFDF",
"w 	c #CDC0D4",
"x 	c #BBB9BA",
"y 	c #C9C7C8",
"z 	c #C7C5CB",
"A 	c #C2C0D0",
"B 	c #C3C0D0",
"C 	c #C7C5BF",
"D 	c #C6C0B8",
"E 	c #C8BFBC",
"F 	c #D4C4D3",
"G 	c #C6B6CE",
"H 	c #C2C0C1",
"I 	c #C1BFC0",
"J 	c #BEBDC3",
"K 	c #C1C1CD",
"L 	c #C4C4CE",
"M 	c #C1C4C0",
"N 	c #C5C7BB",
"O 	c #C8C5BA",
"P 	c #C9C1CB",
"Q 	c #C2B8CA",
"R 	c #C4C2C3",
"S 	c #B3B1B2",
"T 	c #C8C8CA",
"U 	c #B6BAC2",
"V 	c #BCC1C4",
"W 	c #B9BFB7",
"X 	c #BBC0B0",
"Y 	c #C1C1B3",
"Z 	c #C1BDB5",
"` 	c #C0BABF",
" .	c #BFB8C6",
". + @ # $ $ % & % % % ",
"& # * & % % & & # $ $ ",
". $ & * & @ % % # = # ",
"# - ; > , . . & ; ' . ",
") + % ; ! ~ { ; ] ^ / ",
"& - # ( ; _ ; : / < [ ",
"$ ) & } | ; 1 ~ / 2 ! ",
"3 4 5 ( ; 6 ; 7 ! 8 9 ",
"0 5 $ ; a b c ; d e f ",
"g + ; h i j k l ; m n ",
"o p h q r ^ s t u v w ",
"x y z A B = C D E F G ",
"H I J K L M N O t P Q ",
"R S T U V W X Y Z `  ."};
