/* XPM */
static char * tol_un_xpm[] = {
"3 15 13 1",
" 	c None",
".	c #BCBABB",
"+	c #BBB9BA",
"@	c #BCBABD",
"#	c #BBB9BC",
"$	c #B8B6B9",
"%	c #B7B5B8",
"&	c #B6B4B7",
"*	c #B4B2B5",
"=	c #B5B3B6",
"-	c #BDBDC1",
";	c #C0C0C2",
">	c #737174",
"..+",
"@@@",
"@@@",
"@@@",
"@@@",
"@@@",
"###",
"$$$",
"%%%",
"%%%",
"&&&",
"%$$",
"*==",
"=&&",
"-;>"};
