/* XPM */
static char * tol_xpm[] = {
"3 15 27 1",
" 	c None",
".	c #C9C4C8",
"+	c #C8C3C7",
"@	c #C6C1C5",
"#	c #C4BFC3",
"$	c #C7C2C6",
"%	c #C4C2C5",
"&	c #C1BFC2",
"*	c #BDBDBD",
"=	c #BEBEBE",
"-	c #BDBFBE",
";	c #BBC0BC",
">	c #BDBFBC",
",	c #BAC1BA",
"'	c #BBC0BA",
")	c #B8BDB9",
"!	c #B8BCBB",
"~	c #BABCB9",
"{	c #BABBBF",
"]	c #BBBAC0",
"^	c #BEB9BF",
"/	c #BABAC2",
"(	c #BCB9C2",
"_	c #C1B7C2",
":	c #C9C7C8",
"<	c #CBC9CA",
"[	c #7B6E78",
".++",
"+@#",
"$$$",
"+++",
"%%%",
"&&&",
"***",
"===",
"---",
";->",
",;'",
")!~",
"{]^",
"/(_",
":<["};
