/* XPM */
static char * win_fo_xpm[] = {
"10 15 58 1",
" 	c #C9C4C8",
".	c #C8C3C7",
"+	c #C6C1C5",
"@	c #C7C2C6",
"#	c #C7C5C8",
"$	c #C4C2C5",
"%	c #C4BFC3",
"&	c #C3C1C4",
"*	c #C6C4C7",
"=	c #C5C3C6",
"-	c #C3C3C5",
";	c #C1BFC2",
">	c #C0C0C2",
",	c #BDBDBD",
"'	c #BEBEBE",
")	c #BDBFBE",
"!	c #BDBFBC",
"~	c #BBC0BC",
"{	c #BBC0BA",
"]	c #BAC1BA",
"^	c #BABFBB",
"/	c #BCBEBB",
"(	c #BEBCBD",
"_	c #BFBABE",
":	c #BBBBB9",
"<	c #BABCB9",
"[	c #B8BCBB",
"}	c #B8BDB9",
"|	c #B9BBBA",
"1	c #BABABA",
"2	c #C0BCBD",
"3	c #C0BABE",
"4	c #BFB8BF",
"5	c #BEB9BF",
"6	c #BBBAC0",
"7	c #BABBBF",
"8	c #BABBC0",
"9	c #BBBABF",
"0	c #BEB9C0",
"a	c #BFBBBC",
"b	c #BDBBBC",
"c	c #C2B6C2",
"d	c #C1B7C2",
"e	c #BCB9C2",
"f	c #BABAC2",
"g	c #BBBAC2",
"h	c #C0B8C3",
"i	c #C0B9C1",
"j	c #BBB9BA",
"k	c #7B6E78",
"l	c #796F78",
"m	c #717277",
"n	c #6E7377",
"o	c #727378",
"p	c #787179",
"q	c #7A7078",
"r	c #737373",
"s	c #737572",
" .. .+@#$#",
"%%+..++ &*",
"@@@@@@@@==",
".......***",
"$$$$$$$$$-",
";;;;;;;;>>",
",,,,,,,,,,",
"''''''''''",
"))))))))))",
"!!)~)~))''",
"{{~]~]^/(_",
":<[}[}|123",
"45678905ab",
"cdeffghij:",
"klmnnopqrs"};
