/* XPM */
static char * clear_xpm[] = {
"20 20 4 1",
" 	c None",
".	c #E75512",
"+	c #332E7B",
"@	c #000000",
"                    ",
"               ...  ",
"              ....  ",
"             ....   ",
"            ....    ",
"           ....     ",
"    ++    ....      ",
"   @@++  ....       ",
"  @@ @++....        ",
" @@ @@ ++..         ",
" @ @@ @@++          ",
"  @@ @@@ ++         ",
"  @ @@@ @@++        ",
"   @@  @@ @++       ",
"     @@@ @ @        ",
"      @ @@@         ",
"       @ @          ",
"        @           ",
"                    ",
"                    "};
