/* XPM */
static char * 1_xpm[] = {
"20 20 14 1",
" 	c None",
".	c #000000",
"+	c #556C9E",
"@	c #7291D5",
"#	c #516797",
"$	c #10141E",
"%	c #2F3C58",
"&	c #20293C",
"*	c #6B88C9",
"=	c #6A87C6",
"-	c #6A86C6",
";	c #0D1018",
">	c #5A73A9",
",	c #0B0F16",
"                    ",
"                    ",
"         .....      ",
"        ...   .     ",
"       ..+@@+#$.    ",
"       .% @@@@@..   ",
"      ..@@@@@@@..   ",
"      .&*@@@@@  .   ",
"      ..=@@@@@-;.   ",
"      ..%@@@@@ ..   ",
"       ..> @@ ..    ",
"       ...,....     ",
"      ..... .       ",
"     ...            ",
"    ...             ",
"   ...              ",
"   ..               ",
"                    ",
"                    ",
"                    "};
