/* XPM */
static char *bl-un.png[] = {
/* columns rows colors chars-per-pixel */
"26 4 45 1",
"  c #332E31",
". c #333031",
"X c #333033",
"o c #343034",
"O c #343134",
"+ c #363136",
"@ c #363337",
"# c #373339",
"$ c #373439",
"% c #37343A",
"& c #39363C",
"* c #39363D",
"= c #3A373F",
"- c #3A3740",
"; c #3A3940",
": c #3C3942",
"> c #3C3A43",
", c #3D3A45",
"< c #3D3C45",
"1 c #3F3C46",
"2 c #5D5555",
"3 c #5E5757",
"4 c #5E5858",
"5 c #60585B",
"6 c #615A5D",
"7 c #635B5E",
"8 c #635D61",
"9 c #645D61",
"0 c #645E63",
"q c #665E64",
"w c #666066",
"e c #676169",
"r c #69636A",
"t c #6A646C",
"y c #6A646F",
"u c #6C6670",
"i c #6D6772",
"p c #6D6975",
"a c #6F6976",
"s c #706A78",
"d c #706C79",
"f c #726D7C",
"g c #736F7E",
"h c #756F7F",
"j c #BAB8AB",
/* pixels */
"jjjjjjjjjjjjjjjjjjjjjjjjjj",
"j2244679qqwertyyippsdggg=j",
"j9 XXX++@@%%%&&&==;>>>,,1j",
"jjjjjjjjjjjjjjjjjjjjjjjjjj"
};
