/* XPM */
static char * btn_max_pr_xpm[] = {
"14 18 6 1",
" 	c None",
".	c #BAB8AB",
"+	c #E6E6E6",
"@	c #B7B5B8",
"#	c #827D79",
"$	c #B8C4DE",
"..............",
"++++++++++++++",
"@@@@@@@@@@@@@@",
"@############@",
"@#@@@@@@@@@@#@",
"@#@@@@@@@@@@#@",
"@#@@@#####@@#@",
"@#@@@#$$$#@@#@",
"@#@@####$#@@#@",
"@#@@#$$#$#@@#@",
"@#@@#$$###@@#@",
"@#@@####@@@@#@",
"@#@@@@@@@@@@#@",
"@#@@@@@@@@@@#@",
"@############@",
"@@@@@@@@@@@@@@",
"++++++++++++++",
".............."};
