/* XPM */
static char * btn_max_fo_xpm[] = {
"14 18 5 1",
" 	c None",
".	c #BAB8AB",
"+	c #E6E6E6",
"@	c #B8C4DE",
"#	c #827D79",
"..............",
"++++++++++++++",
"@@@@@@@@@@@@@@",
"@############@",
"@#@@@@@@@@@@#@",
"@#@@@@@@@@@@#@",
"@#@@@#####@@#@",
"@#@@@#@@@#@@#@",
"@#@@####@#@@#@",
"@#@@#@@#@#@@#@",
"@#@@#@@###@@#@",
"@#@@####@@@@#@",
"@#@@@@@@@@@@#@",
"@#@@@@@@@@@@#@",
"@############@",
"@@@@@@@@@@@@@@",
"++++++++++++++",
".............."};
