/* XPM */
static char *title-800-un.png[] = {
/* columns rows colors chars-per-pixel */
"800 18 40 1",
"  c #7E7E7C",
". c #7F807D",
"X c #807F7D",
"o c #80807E",
"O c #848482",
"+ c #878885",
"@ c #888785",
"# c #888886",
"$ c #8C8C8A",
"% c #8F908D",
"& c #908E8C",
"* c #91908E",
"= c #949491",
"- c #979895",
"; c #989694",
": c #999896",
"> c #9D9C99",
", c #A09E9C",
"< c #A1A09E",
"1 c #A5A4A1",
"2 c #A8A6A4",
"3 c #A9A9A6",
"4 c #ADACA9",
"5 c #B0AEAB",
"6 c #B2B1AD",
"7 c #BAB8AB",
"8 c #B5B4B1",
"9 c #B8B6B3",
"0 c #BAB9B5",
"q c #BDBCB9",
"w c #C0BEBB",
"e c #C2C1BD",
"r c #C5C4C0",
"t c #C8C6C3",
"y c #CBC9C5",
"u c #CECCC8",
"i c #D0CECA",
"p c #D3D1CD",
"a c #D5D3D0",
"s c #E6E6E6",
/* pixels */
"77777777777777777777777777777777987777777777777777777777877777777777777777777777777777777777777777777777777777877777777777777777777777777777777777777777777777777777777777777777877777777777w77777w77777w77777777777777777777777777777777777777777777777777777777777777777777777777777777777777777777777777777777777777777777777e77777777777e77777777777777777777777777777777777777777777777w77777e77777w77777w77777777777w77777w77777777777w77777w77777777777777777777777777777777777777777777777777777777777777777777777777777777777777777777777777777877777777777777777777777777777777777777777777777777777777777777777777777677777777777777777777777777777777777777777777777777777777777777777777777777777777777777777777777777777777777777777777777777777777777777777777777777777777777777777777777777777777777777777777777",
"ssssssssssssssssssssssssssssssssssssssssssssssssssssssssssssssssssssssssssssssssssssssssssssssssssssssssssssssssssssssssssssssssssssssssssssssssssssssssssssssssssssssssssssssssssssssssssssssssssssssssssssssssssssssssssssssssssssssssssssssssssssssssssssssssssssssssssssssssssssssssssssssssssssssssssssssssssssssssssssssssssssssssssssssssssssssssssssssssssssssssssssssssssssssssssssssssssssssssssssssssssssssssssssssssssssssssssssssssssssssssssssssssssssssssssssssssssssssssssssssssssssssssssssssssssssssssssssssssssssssssssssssssssssssssssssssssssssssssssssssssssssssssssssssssssssssssssssssssssssssssssssssssssssssssssssssssssssssssssssssssssssssssssssssssssssssssssssssssssssssssssssssssssssssssssssssssssssssssssssssssssssssssssssssssssssssssssssssssssssssssssssssssssssssssssssssssssssssssssssssss",
"        .  XXX..o..o oooooooOooOoooOoOoOoOoOoOOoOOOOOOOOOoOOOOOOOO@O@O@OOOOO+++@@@o@@@@@##++@####@#########$#$###$$#$$@$##$$#$#$$$$$$$$$&$$$$$$$*$=$=$$$&&%*&*&*$*$**&&**********==****=*==*=****=**==**===*o======;;=====;;;==;=;=;::;::-:;:;;::;::::::>:>:::>:::>::::>>>::>>>>:>>>>>>>,>>>>,>>>>,,>,,>><>><><<<<<><<<><<<<<<,<<<<<<<<1<<<<<<<<<<11<<<<<11111111111111111113131222<2222<3222<32<33<33<33333<3333312243334434323443424444444444524w4w43445455555555565556656666666666666686668686868686888866668068888889880988888980080800899000090900900000000000q0q000q00q0qqqqq0qqqqqqqqqqqqqqwqwwqwwqwweqeqqeeqwwwweewewwewweeeeweeeeeeeeeeeerrrrererrrrrrrrrrrrrrtrrrtrtrtrryryryyrrrytyryryytyyyyyyytyyyytyutyytuuuyyuyuuyyyyuuyuuuuuuuuuuuuuiupuiiiiiiiiiiiiiiiiiipiipppipuppppppppppppappappaaaapaaaaaaaaaaaaaaaaaaaaaa",
"         X XXXXX....ooooooooooooOoooOooOOoXOOoOOoOoOOOoOOOOOOOOOO@O@O@OO@+@@O@O++##@@@@@+$o##############$##$#$#$#$##$$$$$$$$$$$$$#$$$$$$$$$$*$*$$&$&$$=$*$$$*&&*&***&*****&***************=*=*;**===*======:;====;===;;;=;===;;;=:;;==:;;;;;:::;:::::::::::::::>>:>>:>>>:>>:>:>>>>>>>>>>>>,>>,,>,,>,>,,><<<><><><><><<<><<<,<,<<<<<<1<<<<<<3<<3<11<<3<<11<1111111112111313111312222222243<22323333333333333333433434344433444433444344444445444441314275555555555555555656556566666666666686866866888688688600888888898890688909899880800809998090909009900000000000q0qq0q00qq00qqqqqq0qqqqqwqqqwqwwqwqwqwwqeqeeqeeewweeweweeeeeeeeeeeeeeeereeereereererreererrrrrrrrrrrttrrrtryrrrryrryyyrtytyyttytryytyyyyyyyuytuutuyyyuyyuyyuuuuuuuuuuuuuiuuuiiuuuiuiyiuiiiiiiiiipippiippipippppppipppppapppappappapapapaaaaaaaaaaaaaaaaaaaa",
"        X  XXX...Xoo oo ooooooOOoooooOOoOXOOoOoOOooOOOOOOOOOO@OOOOOOOOO@@o@@+O@@@o##@@++#+##############$#####$##$@$#$$#$$$$$$#$$$$$$$$&$$$$$$$$*$$$$$&$$*$&*$$*&&***$&*********=***=$*==*=**;=*=**============;=;;=;======;;;;=:=:;=;:==:;-;::;:;;::::::::::>>:::>::>>:>:>:>>:>>>>:>>>>>>>>,>>>,>,,,,,>><>,><,,<>><><<<<,<<<<<<<<<<<<<<<<<<<<<<<3<33<3<<1111111111111133131113122223<3<<44<4<22<344333333333333433434344334334443444444444454455445347355455555555556565556665666666666668668668668868888886606888888898989989889999999808008090909900000000q00000q0000q0q00qq00qqqqqq0qqqqqqqwqwqqqwwqwqwwwwwwqewwewwweweweeweqeeeeeeeeeeereererrererrrrererrerrrrrrtrrrrtttrrrryyttttryytttyryyytytytytuytutuyutuyutuyuyyuuyuuuuuuuuuuyuuuuuuuiiuiuiiiiuiiiiiiiiiiipiiipipipiuppppipppppppppppappapaapaaaaaaaaaaaaaaaaaaaaaaa",
"          ....X.Xo oooo oooooooooOoOoooOOoooOoOOOOOOoOOoOOOOOOOO@O@OO@O@++@oO@+@@@#+@#++o#o############$##$##$#$$#$$$#$##$##$$$$$$$$$$$$$$$$$$*$$$$&%&$$&&*%&**&$*$****&*********$=*=*=*=******;*===*==*==============;=;;;==;;;=:=::;:;;::-:;;::::;::::::>::::::>:>:::>:>>>:>>>>>>>>>>,>>>>>>,>,>>>>>,,<><><>,,<<<<<<><,<,<<<,<<<<<3<<<<<<3<3<<<<<<<<<3111111111111311111133113<22233334<<4443244<<337<3333334433343434343344344444444444444445455544454555555555555565666666666666666868666688868668868868006688888989889889809999999990900090909009000000000000000qq00q0qqq0qqq0q0qqqqqqqwqqqqqwwwqqwwqqwwqwweqwwwwwweqeeweeeeeeeeeeeerereeeeeeererreerrrrrrrrrrrrrrrttrrrtrtyrrrttttyrryryyrryrytyyytytyttuyttututuyyyuuyyuyyuyuuyuuuuuuuuuuuuuuuiuiiiiiiiiiiiiiipiippipipippppppppppppppppaapaapaapaapaapaaaaaaaaaaaaaaaaaa",
"        X  XXXX.oooX ooooooooooOooooOoOooOoOOoOooOOOoOOOOOO@OOOOOOOO@O@Oo@@+@O+O++#o@@+############$########$####$##$#$$$$$$$#$#$$$$$$$$$$$$*$*$$*&$$$*$$*$&$*********&***$=*****==***==**===*=*=**=*====*==========;;====;;=;=;:=;::=;;;=:;=:;;:::::::::>:::::>::>:>:::>>>:>>>>>:>>>>>>>>>,,>>>>,,,,,>,><<<<>,,<<<<><><,<<<<<<<<<<<<<<<<<<<<<<3<33<<3<311111111111311<11111111322223<333<4<<<434<4434<333333333334334443734434443443454744454444445445545555555655565665656655666666666686666866686886860806660886988888889898089999899808099999990909009000000q0q000q0q0q0q0q00qq0qqqqqqqqqwqwqwqqwqwwwqqwwwwwwwqweeqeqeeweweeweeeeeeeeeeereerreerreerrrerrrrrrrrrrrrrrrtrrtrtyrtrtrtttryryyrtytytyytyyytuutututuyyyyuuyuyyyyuuuyyyuuuuuuuuuuuiuuiuuiiuuiiiiiuiiipiipiiipipipiuppppppipupppppppapppaappaaaaaaaaaaaaaaaaaaaaaaa",
"          XX.X.XoXXooo oooooooooooOooOooOoOooOOOOOoOOOOOOOOOOOOOOOO@O@O++@@O@++@+++@@@+#######o###########$$##$#$#$##$$#$@$#$$$$$$$$$$$$$&&$$$$$$$&=$*$*$***$%$%*$*&*&*&*$*****=****=*$=*=***=*========*==========;====;=;=;;;=;=-=;=:;;;-:::::::::::::::::::>::>:>::>>>>::>>:>>>>:>>>>>>>>>>,,>>>>,>>>,<,>>><<>>>><<<<<<,<,<<<<<<<<<<<<<3<<<3<<<<<<<<<<1<1111<11111113311311311222233<3<442433344<33<33333433344333333332443443443444343344445454454554555555555565565565656666666666666668866888686688668660068806880889989988998999998008909000090900000000000000000qq00q00qqq0qqqqqqqqqqqqqqwqwqqwqwwwqwwqwwqeeeeqewweweweeweeeeeeeeeeeeeerereeeerreerrrerrrrrrrrrrrtrrrtrrtrtrtttttrytyttyyrytytyrytuttyytututuyyuyyuyyuuuyyuuuuuuuyuuuuuuuuiuupuiuiuiuiiiiiiiiipiiipipipipppipippppppppppppppaappaaappaaaaaaaaaaaaaaaaaaaa",
"            .X.Xo.o.ooooooooooooOoooOooOoOOooOOoooOOOOOOOOOOOOO@o@@++oo@+O+o@++o##+@@@+o#++@####@###+###$$@###$##$#$#$$$$$$$$$$$$$$$$$$$$$$&$$$&$$*$&&$$*$*&*$*%******$=********=*=*=*****=*=*=***=*==*=*==========;===-=;=;==--=:=:=:;-;;:-:-::;:::::::::::>::>::::>::>>:>>::>>>>>>>>>>,>>>,>,>,,,>>,,>,>,,,,>,<><>><><,<><<<<<<<<<<<3<<<<<<1,1<1<11<11<11111111111111113131113<3333<3313133333<73333333333334334433333334344344444444444544444444535553555455555566565566566666666666668866686686888688888688606888898890880609808099999999999990909009000000q0q0qq00q0qq0q00qq0q7qqqqqqqqqqwqqwqqwwwwwwwwwwwwwwwwewwweweweeeeeeeweeeeeewreeeeeereerrerrrrrrrrrrrrrrrtrtrrtrttrttrttttttttyttyytytytytyyyyyyyttuyyyyyuyuuyuyuuuuyyuuuyuuuuuuuiuiuuiuuiiiiiiiiiupiiipippiipippiippppppppapppppppppaapaappaaaaaaaaaaaaaaaaaaaaaa",
"             .X. oXoXXoooooooooOooOoOoOooOoOOoOOOOOooOoOOOOOOOOO@@oo@@+@O@@@@+@@o@#@@@+@@+@#@+@#####+$#####$$#$##$#$$$@#$@$$#$@$$$$$$$$$$$$$&&$$*$*$$&&&$**$$&***$&*$**$********$=$==*=*==***=*======*===========;==;=;==;=;;;=;:=:=:=;:;;;:;:;-::;:::::::::::::>:>>::>>:>>:>>:>>>>:>>>>>>>>>>>>>>>,>,>,,,,,,,<<<<><<<<<,<<<<<<<<<<<<<<<<1<11,113111<111111111111131131111111313<23<33<3333111334<<333333333333333334443333434343443444445344455454455555555545554645656556665666666666866666868686868866888888668898988890660699889999909900990099090000000000000000q00q000qq0qqqqqqqqqqqqqqqqqqqqwwqqwqwwwwwwwwwwwwwewweweweewweeeeeeeererrerrreererrrrererrerrrrrrrrrrrrtrtrtttttttttytttttttytytyttyyyyryyyyutuyyyyyyyyyyuyyyuuuyuuuuuuuiuuuuuiuuuiuuiuiuiiuuiiiiiiipipipiippppipipppppppppapaappaapaapaaaaaaaaaaaaaaaaaaaaa",
"            XX..Xoo.oooooooooooooOOoooO.OoooOoOoOOOOOOOOOOOOOOOOo+@@@o+o+O@@+@@@+@+o@++@+#@###@#####+@$@######$##$###$@$$$$@$$$$$$$$$$$$%$$$$$$%$$$$&&&$%*&$%*$%$*&$**$=********=$*=**==*=*==*=***=*======================;;;;-;=:=::--:;;;;;-:-;::::::::::::>:>:>:>>:::>>>>>:>>>:>>>>>>>>,>>>>,,>>,>,>,,>,,,>,,><><><<<<<<<<<<<<<<,<<<<1<1<<11<11<1<111<1<1111111111131311311111222<3331333333133333<33333333333443344473443444445344444444543454544554554555555556655665665656666666666686868666868688866888886088898989800000999999998099909009909000000000000q000qq000qqq0qqq00qq0qqqqqqwqqwqwwqqwqwqwwwwwwwwwwwwwweewwweweweeeeeeeeeereeeeeeereererrrrerrrrrrrrrrrrtrrrtrtttrrttrtttttytttttyytyyyyyryyytyytyuyyyuyyyuyyuuyuuuyuyuyuuuuuuuuuiuuuiiiuiiiiiiipuiiiiiiiiippipiippipppppppppppppapppaapapaaapaaaaaaaaaaaaaaaaaa",
"             .X.  .oo oooooooooOooooO.oOXOOOoOOoOoOoOOoOOOOOOOO@#oo@@@@@O@@o@@@o@+++@@+@+@@@#+######$#@@$$##$###$##$#$$+$@$$$#$$#$$$$$$$$$$$&$$$$*$*$$&&$$&*$%**$*=*$*********=***********=*=**======*=**=========;=-=;==-;==-==:=:==-:=:;;:;::-::::::::::>::>:::::>:>>>>::>>>>>>>>>>>>>>>>>>,>>>>,,,,>>,,,>,,,,<><<><><,<<<<<<<<<<<<<<<<<<<<<<1<<1<1<111111<1111111311113113313222233<313313333<33333333333433333334333333444343444444344544474444554555455555555556465565666666666666668666868868868668888888868888888609686069898999908909990999009090009000000q00000q0q00q0qqqqqqqqqqqqqwqqwqqwqwqwwwqwwwwwwwwwwwewwweeeweeeweeweeeeeereerrerrererreeerrrerrrrrrrtrrrtttrtrttryrtttttttttyttyttyryyryyyyyyyyyytyyuyyyuyuyuyuyuuuuuuuuuuuiuuuuuuuiuiauuiiiiiiiiipiipiippiipippppppipppppppppappappapaaapaaaaaaaaaaaaaaaaaaaaa",
"               .oo.o.oo.o.oooooooOoOOooOoOooOoOOOoOOOOOOOOOOOOOO@@o+o+@+@o@@o@@o@@@@@@@#++####@###$####$#####$#$###$$$@$$#$@$$#$$$$$$$&$$$$$$&$**$#&&&$&&*&&&&%**=$*************$==*=**=*=*=*=*=*=*================-;======;;;=-=:=:;;;-;;;:;-:-:;:::::::>::>:>::>:>>:>::>>>>>>>>:>>>>>>>>>>>>,,,>,>,,,,,>,,,,,,<<><<<<<<<<<<<<<<<<1<<<<1<<11<1<1<1<11<1<11111111111113131311311222213<33333313333333<333333333343434333343444343443344445444445544445454555555555656566566666666666668666888666668868888888888860888899898068609899999980999909099000000000000000000q00qqq0q0qqqq0qqqqqqqqqwqqqqqqwqwqwqwqwwwwweqweweweeweeeweeeeeewrreerwreeeeerreererrerrerrerrrrttrttrrtrrtrttrytttttttytttttyytytyyyyyyyyyyyyyuuyyyyyuyuuyyuyuyuyuyuuuuuuuuiuuuiiieiiiiiuiiiiiiipiiipippipippipppppappppppapapppapaaapaaaaaaaaaaaaaaaaaaaaa",
"                .oo o.ooo.OooOoooooooOooOoOOOXOooOoOOOOoOOOOOOOOo+o@@@@o+++o@+@+@@@@@@@+#@@@#@@+#######@##$######$$#@$$$$$$$#$$$$$$$$$$$$$$*$&$$*$&&%&&&%%$&&*$%*$=$$******************==*=*===**==*=*=================;;;==;=;;:=:=;;-;;;-;-:::;::;:;::::::::::>:>::>>:>>:::>>:>>>:>>>>>,>,>,>>>>,>,>,,>,,,,>,,><><><><<><<<<<<<<<<1<1<<1<<<<<1<1<11<1111<11111113<1111111111131212<333<33<3331333334333333343433433344434334344444544444444444455545544554455555555555565656656666666666666686686886688686688606878888888009609999999908990990990990090000000000qqq0q0000qq00qq0qqqqqqqqqwqqwqqwwqqwqwqwwwwwwwwwewwwwwewwwweeweeeerwweewreeeereeererrrrrreerrrrrrrerrrrrtrttttrttrtrttttrttyyytytyyytyytyytyyytuutyyuyuyyyyuuuuyuuuuuuuuuuuuuuiuiuuuiiiiiiiiiiiiupiiiiiipiipppipppppppppppppppppapppaaapaaaaaaaaaaaaaaaaaaaaaa",
"                 oo .oooo.oooOOooOOooOOooOoOOOoOOoOOoOOOOOOOOOOOo++@@o@o+O++o+@@+@++@@@+@#+#+####@#####$####$$#$#$#$@$$$$@$$$$$$$$$$$%$$$$$&$$$$$&&$#&&$$&&&&%%**$$**************==$**=$*=*=$=====*=====*=========;==;=;=-=;-==;=;:==:;-;;:;-::::;::::::::::::>>:>:>>::>>:>>:>>::>>>>>>,>>>>>>>:,>,,,,>>,,,>,,,><><<><<,<,<><<<<<<,1,1<1<<1<<1<11<11<<11<11111111111111213131231223<33<32333313333<33333333333334333344334444443345335445354444445544455555574555556556556566656666666668668688888868686888888888888098880068000989998999999099990900090900000000q0000q0q00qqq0qqq0qq0qqqqqqqqqqqqwqqqqwwqwwwqwwqewwwewewwweweewewwrwerweewreeeereerrrerererrrrrrrrretetrrrttrtrrtrttyyrytytytttttyttyttyyytyyyyyytuyyyyyuyuyyyuuuuyuyuuuuuuuuuuuuiiiuuiuiiuiiiiuppupiipipipipippippupppppppppppapapappppaaaapaaaaaaaaaaaaaaaaaa",
"                X.ooooooooooooooooooOooOooOooOOOOOoOOOOOoOOOOOOO@+o@@o@+O+@@++@@+++o@@@+++@@##++####$@###$#$##$#$#$#$$##$$@$$@$$$$$$$$$$$&$$%$$$$*&&&&%%&$$*$*$*$=$**$%************=*==***=*==*-*====*=*==*==========;===;;=;;-=;:=--=;-;;:;--::;::::;::::>:>:::>:::::>>:>:>>>>>>>>>>>>>>>,>>,>;>>,>>,,,,,,,,,,,<<<><,,,<<<<<<<<<<<<,<<<1<1<11<<<11<111<111111111111311111113113223133231133331333333333333433433343433433343344534534534454437244455545554545555555655565665565666666666666666886686888688888888888688888606068989999809909999000099000000900000000q000q00q00qqq0qqqqqqqqqqqqqqqwqwwwwqwwwwwwwwewwwwwwweewewweewrwwwreweeeeeereerreerrerrrrrerrrrrrrttrrtrtrtrttrytrrttrttttttttytyytyytyyyyyytyyyyuyyyuyuyuuuyyyuuuuyuuuuuuuuuiuuuuiiuuiiiiiiupupiiiiiipipiipipuppppppppppppppppppaaaaappapaaaaaaaaaaaaaaaaaaa",
"ssssssssssssssssssssssssssssssssssssssssssssssssssssssssssssssssssssssssssssssssssssssssssssssssssssssssssssssssssssssssssssssssssssssssssssssssssssssssssssssssssssssssssssssssssssssssssssssssssssssssssssssssssssssssssssssssssssssssssssssssssssssssssssssssssssssssssssssssssssssssssssssssssssssssssssssssssssssssssssssssssssssssssssssssssssssssssssssssssssssssssssssssssssssssssssssssssssssssssssssssssssssssssssssssssssssssssssssssssssssssssssssssssssssssssssssssssssssssssssssssssssssssssssssssssssssssssssssssssssssssssssssssssssssssssssssssssssssssssssssssssssssssssssssssssssssssssssssssssssssssssssssssssssssssssssssssssssssssssssssssssssssssssssssssssssssssssssssssssssssssssssssssssssssssssssssssssssssssssssssssssssssssssssssssssssssssssssssssssssssssssssssssssssssssssssssssssssssssssssssss",
"77777777777777778777777777777777777777777777777777777777777777777777777777777777777777777777777777777777777777777777777777777777777777777777777777777777777777777777777777777777777777777777777777777777777777777777777777777777777777777777777777777777777777777w7777777777777777777777777777777777777777777777777777777777777777777777777777777777777777777777777777777777777777777777777777777777777777777777w777777777777777777777777777777777777777777777777877777777777777777777777777777777777777777777777777777777777777777777777777777777777777777777777877777777777777777777777777777777777777777777777777777777777777777777777777777777777777777777777777777777777777777777777777777777777777777777777777777777777777777777777777777777777777777777777777777777777777777777777777777777777777777777777777777777777777"
};
