/* XPM */
static char * tl_un_xpm[] = {
"6 19 5 1",
" 	c None",
".	c #777777",
"+	c #BAB8AB",
"@	c #E6E6E6",
"#	c #7E7E7C",
"......",
"++++++",
"+@@@@@",
"+@####",
"+@####",
"+@####",
"+@####",
"+@####",
"+@####",
"+@####",
"+@####",
"+@####",
"+@####",
"+@####",
"+@####",
"+@####",
"+@####",
"+@@@@@",
"++++++"};
