/* XPM */
static char * tr_un_btn_xpm[] = {
"3 18 4 1",
" 	c None",
".	c #BAB8AB",
"+	c #E6E6E6",
"@	c #C1C1C1",
"...",
"++.",
"@+.",
"@+.",
"@+.",
"@+.",
"@+.",
"@+.",
"@+.",
"@+.",
"@+.",
"@+.",
"@+.",
"@+.",
"@+.",
"@+.",
"++.",
"..."};
