/* XPM */
static char * tr_un_xpm[] = {
"3 19 5 1",
" 	c None",
".	c #777777",
"+	c #BAB8AB",
"@	c #E6E6E6",
"#	c #C1C1C1",
"...",
"+++",
"@@+",
"#@+",
"#@+",
"#@+",
"#@+",
"#@+",
"#@+",
"#@+",
"#@+",
"#@+",
"#@+",
"#@+",
"#@+",
"#@+",
"#@+",
"@@+",
"+++"};
