/* XPM */
static char *br-un.png[] = {
/* columns rows colors chars-per-pixel */
"22 7 21 1",
"  c black",
". c gray32",
"X c gray78",
"o c gray81",
"O c #CFCFD0",
"+ c #CFD0CF",
"@ c #CFD0D0",
"# c #D0CFCF",
"$ c #D0D0CF",
"% c #D0D0D0",
"& c #D8D8D8",
"* c #D8D9D8",
"= c #E0E1E0",
"- c #E0E1E1",
"; c #E1E1E0",
": c #E1E1E1",
"> c #E0E2E0",
", c #E0E2E1",
"< c #E1E2E1",
"1 c #E9EAE9",
"2 c None",
/* pixels */
"......................",
".11111111111111111111.",
".<<<==<<=<<<<>=>><<<.2",
".&&&&&&&&&&&&&&&&&&&.2",
".oooo++%o%+++o++++o.22",
".XXXXXXXXXXXXXXXX..222",
".................22222"
};
