/* XPM */
static char *title-fo.png[] = {
/* columns rows colors chars-per-pixel */
"10 20 50 1",
"  c gray32",
". c #B3BBC7",
"X c #B4BCC9",
"o c #B5BCC9",
"O c #B6BECA",
"+ c #B6BECB",
"@ c #B8C0CC",
"# c #B8C0CD",
"$ c #B9C2CE",
"% c #B9C2CF",
"& c #BAC2CE",
"* c #BAC2CF",
"= c #BBC4D0",
"- c #BCC4D0",
"; c #BCC4D1",
": c #BDC6D2",
"> c #BDC6D3",
", c #BEC8D4",
"< c #BFC8D4",
"1 c #BFC8D5",
"2 c #C0CAD6",
"3 c #C0CAD7",
"4 c #C1CAD6",
"5 c #C1CAD7",
"6 c #C2CBD8",
"7 c #C2CBD9",
"8 c #C3CBD8",
"9 c #C3CBD9",
"0 c #C4CDDB",
"q c #C5CDDB",
"w c #C6CFDC",
"e c #C6CFDD",
"r c #C7D1DE",
"t c #C7D1DF",
"y c #C8D1DE",
"u c #C9D3E0",
"i c #C9D3E1",
"p c #CAD3E0",
"a c #CBD5E2",
"s c #CBD5E3",
"d c #CCD5E2",
"f c #CDD7E4",
"g c #CDD7E5",
"h c #CED7E4",
"j c #CED7E5",
"k c #CFD9E6",
"l c #CFD9E7",
"z c #D0DAE8",
"x c #D1DAE9",
"c c #D2DCEA",
/* pixels */
"cccccccccc",
"zzzzzzzzzz",
"kkkkkkkkkk",
"hhhhhhhhhh",
"ssssaaaass",
"iiiiiiiiii",
"rrrtrrrrrr",
"wwwwwwwwww",
"00000000w0",
"1050799777",
"5555111711",
"1111111111",
":1=1,,=,1=",
"=====*====",
"****%*****",
"**+*@@@@@*",
"ooo+++++++",
"oooooooooo",
"..........",
"          "
};
