/* XPM */
static char * tl_fo_sq_bdls_xpm[] = {
"9 20 26 1",
" 	c None",
".	c #525252",
"+	c #D2DCEA",
"@	c #D0DAE9",
"#	c #CFD9E6",
"$	c #CDD7E4",
"%	c #CBD5E2",
"&	c #C9D3E0",
"*	c #CCD5E2",
"=	c #C8D1DE",
"-	c #C6CFDD",
";	c #C7D1DF",
">	c #C5CDDB",
",	c #C4CDDB",
"'	c #C3CBD9",
")	c #C1CAD7",
"!	c #C1CAD6",
"~	c #BDC6D3",
"{	c #BFC8D5",
"]	c #BDC6D2",
"^	c #BBC4D0",
"/	c #BCC4D1",
"(	c #BAC2CE",
"_	c #B6BECB",
":	c #B5BCC9",
"<	c #B3BBC7",
".++++++++",
".@@@@@@@@",
".###@$$@$",
".$$$$$$$$",
".%%%%%&*%",
".&&&&&&&%",
".==&-&&;=",
".---=>---",
".,,,>>>>>",
".',)')))'",
".!)))))!)",
".!~!~{~!!",
".]~]]~~~]",
".^^/^^^//",
".(^((^(((",
".__(_(_(_",
".________",
".::::::::",
".<<<<<<<<",
"........."};
