/* XPM */
static char * sep_un_xpm[] = {
"5 21 22 1",
" 	c #3F3F3F",
".	c #B7B7B7",
"+	c #666666",
"@	c #A6A6A6",
"#	c #919191",
"$	c #A2A2A2",
"%	c #A0A0A0",
"&	c #9FA0A0",
"*	c #9C9D9C",
"=	c #9D9C9C",
"-	c #9A9A9A",
";	c #9B9A9B",
">	c #979797",
",	c #979898",
"'	c #949595",
")	c #959494",
"!	c #929292",
"~	c #8F8F90",
"{	c #8F9090",
"]	c #8D8C8D",
"^	c #8D8D8D",
"/	c #4B4B4B",
"     ",
".+ @.",
"#+ @#",
"++ @+",
"#+ @#",
"$+ @$",
"$+ @$",
"$+ @$",
"$+ @$",
"$+ @$",
"$+ @$",
"%+ @&",
"*+ @=",
"-+ @;",
">+ @,",
"'+ @)",
"!+ @!",
"~+ @{",
"]+ @^",
"++ @+",
"/////"};
